<?xml version="1.0" standalone="no"?>
<!DOCTYPE svg PUBLIC "-//W3C//DTD SVG 1.1//EN" "http://www.w3.org/Graphics/SVG/1.1/DTD/svg11.dtd" >
<svg xmlns="http://www.w3.org/2000/svg" xmlns:xlink="http://www.w3.org/1999/xlink" version="1.1">
<metadata>
Created by FontForge 20170924 at Mon Jan 29 09:59:03 2018
 By www-data
Alice Savoie. Le caractere Faune est une commande du Centre national des arts plastiques.
</metadata>
<defs>
<font id="Faune-TextItalic" horiz-adv-x="624" >
  <font-face 
    font-family="Faune"
    font-weight="400"
    font-style="italic"
    font-stretch="normal"
    units-per-em="1000"
    panose-1="2 0 0 0 0 0 0 0 0 0"
    ascent="800"
    descent="-200"
    x-height="480"
    cap-height="690"
    bbox="-150 -250 1115 1007"
    underline-thickness="55"
    underline-position="-223"
    slope="-15"
    stemh="40"
    stemv="46"
    unicode-range="U+0020-FB02"
  />
<missing-glyph horiz-adv-x="500" 
d="M60 0v690h380v-690h-380zM151 630l99 -215l99 215h-198zM124 550v-410l94 205zM282 345l94 -205v410zM151 60h198l-99 215z" />
    <glyph glyph-name="fi" unicode="fi" horiz-adv-x="595" 
d="M91 0h-32c-28 59 -34 95 -34 144c0 128 109 223 132 291h-92v40h95c0 36 -22 60 -22 105c0 69 48 130 150 130c74 0 110 -44 110 -90c0 -22 -5 -37 -13 -52h-34c9 53 -4 97 -63 97c-54 0 -75 -33 -75 -79c0 -47 24 -66 24 -111h102v-40h-104c-9 -37 -31 -96 -49 -149z
M524 592c-29 0 -51 19 -51 47c0 39 28 64 63 64c30 0 51 -20 51 -48c0 -38 -27 -63 -63 -63zM462 474l30 8c30 -32 36 -61 36 -98c0 -59 -43 -153 -74 -253l-41 -131h-32c-21 48 -34 88 -34 130c0 143 126 202 126 305c0 12 -4 28 -11 39z" />
    <glyph glyph-name="fl" unicode="fl" horiz-adv-x="605" 
d="M91 0h-32c-28 59 -34 95 -34 144c0 128 109 223 132 291h-92v40h95c0 36 -22 60 -22 105c0 69 48 130 150 130c74 0 110 -44 110 -90c0 -22 -5 -37 -13 -52h-34c9 53 -4 97 -63 97c-54 0 -75 -33 -75 -79c0 -47 24 -66 24 -111h102v-40h-104c-9 -37 -31 -96 -49 -149z
M522 701l31 9c22 -30 34 -71 34 -117c0 -80 -25 -156 -66 -281l-103 -312h-32c-27 49 -34 95 -34 144c0 198 182 296 182 494c0 30 -8 53 -12 63z" />
    <glyph glyph-name=".notdef" horiz-adv-x="500" 
d="M60 0v690h380v-690h-380zM151 630l99 -215l99 215h-198zM124 550v-410l94 205zM282 345l94 -205v410zM151 60h198l-99 215z" />
    <glyph glyph-name="space" unicode=" " horiz-adv-x="236" 
 />
    <glyph glyph-name="A" unicode="A" horiz-adv-x="610" 
d="M93 0h-36c-29 35 -55 78 -55 128c0 120 104 236 233 358l221 208h46c33 -66 48 -126 48 -203c0 -151 -93 -316 -145 -491h-40c0 74 15 169 28 244h-251c-29 -69 -43 -146 -49 -244zM304 466c-61 -61 -106 -116 -138 -173h235l55 327z" />
    <glyph glyph-name="B" unicode="B" horiz-adv-x="640" 
d="M50 0c-3 47 -5 83 -5 122c0 215 129 406 183 568c25 0 132 5 181 5c132 0 214 -52 214 -150c0 -129 -133 -177 -257 -186c114 -9 176 -63 176 -149c0 -138 -138 -215 -303 -215c-53 0 -118 5 -189 5zM376 645c-27 0 -66 -2 -96 -7c-14 -79 -27 -135 -56 -247h63
c104 0 160 14 191 87c21 50 34 66 34 97c0 48 -36 70 -136 70zM276 336h-67l-93 -282c26 -4 69 -8 99 -8c131 0 163 38 189 120c14 45 28 66 28 94c0 50 -43 76 -156 76z" />
    <glyph glyph-name="C" unicode="C" horiz-adv-x="645" 
d="M44 204c0 232 181 496 411 496c118 0 165 -59 165 -133c0 -60 -39 -108 -97 -108c-15 0 -28 3 -39 9v23c53 8 72 40 72 83c0 42 -31 76 -102 76c-86 0 -122 -38 -143 -81c-28 -58 -41 -115 -76 -209c-58 -144 -98 -147 -98 -216c0 -51 28 -99 141 -99
c133 0 196 75 210 176h49c0 -134 -103 -231 -264 -231c-139 0 -229 67 -229 214z" />
    <glyph glyph-name="D" unicode="D" horiz-adv-x="714" 
d="M225 690h162c224 0 284 -130 284 -249c0 -210 -185 -441 -467 -441h-159v118c0 200 122 416 180 572zM120 52h56c166 0 255 48 319 231c51 146 63 158 63 218c0 66 -40 138 -165 138h-111c-14 -91 -46 -228 -85 -348z" />
    <glyph glyph-name="E" unicode="E" horiz-adv-x="571" 
d="M474 116c-8 -73 -51 -126 -133 -126c-71 0 -211 26 -283 34c-11 52 -13 89 -13 128c0 198 146 382 195 538l264 -14c54 -3 78 5 90 21h11c0 -82 -35 -104 -91 -104c-78 0 -186 33 -241 45c-7 -65 -27 -158 -51 -245h237l-15 -55h-238l-88 -264h198c73 0 127 11 139 42h19
z" />
    <glyph glyph-name="F" unicode="F" horiz-adv-x="510" 
d="M97 0h-33c-15 53 -19 113 -19 152c0 198 146 382 195 538l251 -14c54 -3 78 5 90 21h11c0 -82 -35 -104 -91 -104c-78 0 -173 33 -228 45c-7 -65 -31 -175 -55 -262h227l-15 -55h-228c-3 -10 -6 -20 -105 -321z" />
    <glyph glyph-name="G" unicode="G" horiz-adv-x="671" 
d="M495 58c-3 1 -11 2 -16 2c-34 0 -75 -70 -203 -70c-184 0 -232 103 -232 224c0 226 185 486 425 486c120 0 172 -61 172 -134c0 -57 -38 -95 -83 -95c-17 0 -34 4 -41 9v23c29 8 59 18 59 67c0 53 -50 77 -107 77c-84 0 -123 -31 -151 -69c-34 -46 -48 -113 -89 -215
c-59 -147 -94 -150 -94 -218c0 -76 65 -100 150 -100c133 0 187 92 187 180c0 20 -4 35 -16 46c-12 10 -32 15 -66 15v40h197c-12 -58 -51 -185 -92 -268z" />
    <glyph glyph-name="H" unicode="H" horiz-adv-x="702" 
d="M197 298l-100 -298h-33c-13 46 -19 93 -19 152c0 202 140 358 200 538h36c0 -32 -12 -146 -55 -297h279l100 297h33c13 -46 19 -93 19 -152c0 -195 -140 -358 -200 -538h-36c0 35 15 167 67 338h-278c-4 -13 -8 -26 -13 -40z" />
    <glyph glyph-name="I" unicode="I" horiz-adv-x="303" 
d="M198 298l-100 -298h-32c-13 46 -19 93 -19 152c0 202 140 358 200 538h35c0 -39 -18 -195 -84 -392z" />
    <glyph glyph-name="J" unicode="J" horiz-adv-x="392" 
d="M-73 29h40c-8 -63 -3 -116 74 -116c86 0 99 80 99 142v104c0 200 155 373 202 531h36c0 -144 -88 -395 -130 -539c-42 -145 -65 -289 -216 -289c-86 0 -119 52 -119 102c0 29 5 46 14 65z" />
    <glyph glyph-name="K" unicode="K" horiz-adv-x="634" 
d="M97 0h-33c-15 50 -19 106 -19 144c0 219 144 371 200 546h36c0 -37 -23 -210 -60 -316l361 316h21c9 -11 17 -27 17 -49c0 -64 -139 -119 -312 -242c21 4 40 6 57 6c130 1 154 -91 154 -133c0 -109 -83 -158 -83 -207c0 -22 14 -32 45 -37l-8 -26c-78 0 -116 41 -116 107
c0 74 42 122 42 187c0 20 -5 73 -76 73c-56 0 -112 -32 -145 -129z" />
    <glyph glyph-name="L" unicode="L" horiz-adv-x="518" 
d="M58 24c-11 52 -13 89 -13 128c0 198 151 382 200 538h33c0 -72 -37 -253 -80 -381l-79 -234h183c73 0 127 15 139 46h19c-8 -73 -50 -131 -132 -131c-71 0 -192 29 -270 34z" />
    <glyph glyph-name="M" unicode="M" horiz-adv-x="829" 
d="M321 3c-8 81 -69 360 -69 546l-171 -549h-21c-11 38 -20 91 -20 130c0 172 149 354 224 560h57c14 -119 61 -338 69 -505c102 188 271 420 355 505h30c11 -49 14 -84 14 -134c0 -177 -121 -341 -195 -556h-33c0 49 14 163 42 250l96 297c-90 -114 -266 -381 -356 -544
h-22z" />
    <glyph glyph-name="N" unicode="N" horiz-adv-x="701" 
d="M434 -1h-24c-12 87 -144 326 -175 529l-164 -528h-20c-11 30 -21 83 -21 127c0 175 142 335 220 563h25c41 -151 141 -349 184 -541l167 541h19c17 -40 26 -84 26 -133c0 -137 -123 -302 -237 -558z" />
    <glyph glyph-name="O" unicode="O" horiz-adv-x="710" 
d="M443 699c161 0 223 -102 223 -241c0 -189 -166 -467 -393 -467c-169 0 -229 90 -229 241c0 188 167 467 399 467zM503 331c41 121 72 155 72 208c0 71 -59 110 -138 110c-137 0 -172 -142 -225 -290c-44 -121 -75 -156 -75 -208c0 -68 48 -110 135 -110
c148 0 184 134 231 290z" />
    <glyph glyph-name="P" unicode="P" horiz-adv-x="608" 
d="M325 259c-33 0 -105 7 -139 15l-89 -274h-33c-13 39 -19 99 -19 148c0 213 143 393 186 542c23 0 131 5 179 5c125 0 206 -58 206 -171c0 -144 -126 -265 -291 -265zM305 313c57 0 105 18 124 47c19 30 22 50 46 110c21 53 34 70 34 103c0 38 -26 74 -131 74
c-37 0 -87 -6 -98 -7c-10 -71 -25 -155 -53 -240l-24 -75c22 -6 66 -12 102 -12z" />
    <glyph glyph-name="Q" unicode="Q" horiz-adv-x="710" 
d="M443 699c161 0 223 -102 223 -241c0 -176 -144 -430 -348 -463c-5 -15 -10 -32 -10 -52c0 -39 10 -70 72 -70c70 0 104 37 108 90h38c0 -95 -66 -135 -165 -135c-107 0 -154 47 -154 115c0 21 4 37 9 52c-126 19 -172 104 -172 237c0 188 167 467 399 467zM503 331
c41 121 72 155 72 208c0 71 -59 110 -138 110c-137 0 -172 -142 -225 -290c-44 -121 -75 -156 -75 -208c0 -68 48 -110 135 -110c148 0 184 134 231 290z" />
    <glyph glyph-name="R" unicode="R" horiz-adv-x="636" 
d="M481 0c-76 0 -115 35 -115 96s37 100 37 154c0 58 -37 86 -115 86h-79l-112 -336h-33c-11 38 -19 87 -19 152c0 203 133 368 186 538c32 0 124 5 173 5c131 0 217 -53 217 -150c0 -128 -123 -177 -263 -188c122 -13 162 -60 162 -128c0 -73 -76 -122 -76 -167
c0 -20 14 -32 45 -36zM280 637c-11 -65 -35 -160 -57 -248h61c116 0 164 16 195 86c23 51 33 68 33 95c0 43 -27 74 -131 74c-29 0 -72 -3 -101 -7z" />
    <glyph glyph-name="S" unicode="S" horiz-adv-x="578" 
d="M37 232h41c-12 -101 0 -189 129 -189c119 0 160 66 160 134c0 76 -55 94 -128 129c-77 37 -124 68 -124 175c0 109 94 219 265 219c110 0 169 -56 169 -134c0 -27 -7 -51 -18 -71h-45c12 63 19 152 -112 152c-125 0 -159 -68 -159 -126c0 -76 43 -92 114 -116
c80 -28 150 -61 150 -178c0 -111 -88 -237 -274 -237c-147 0 -191 82 -191 157c0 30 7 59 23 85z" />
    <glyph glyph-name="T" unicode="T" horiz-adv-x="561" 
d="M522 607h-114l-189 -607h-35c-12 38 -22 100 -22 139c0 165 130 337 183 468h-149c-66 0 -90 -2 -115 -38h-24c9 55 43 128 177 128c106 0 252 -30 337 -30c29 0 81 -4 97 31h25c-8 -54 -52 -91 -171 -91z" />
    <glyph glyph-name="U" unicode="U" horiz-adv-x="678" 
d="M39 188c0 184 127 297 206 502h44c-4 -59 -21 -132 -46 -213l-58 -185c-20 -65 -34 -120 -32 -162c1 -57 29 -90 100 -90c118 0 189 81 238 293l82 357h37c13 -57 25 -127 25 -193c0 -207 -140 -507 -382 -507c-136 0 -214 71 -214 198z" />
    <glyph glyph-name="V" unicode="V" horiz-adv-x="609" 
d="M531 690h35c35 -36 55 -78 55 -128c0 -120 -113 -237 -243 -358l-223 -208h-49c-33 66 -51 126 -51 203c0 151 109 296 147 491h41c0 -118 -11 -212 -25 -288l-62 -328l154 154c151 151 219 257 221 462z" />
    <glyph glyph-name="W" unicode="W" horiz-adv-x="870" 
d="M156 74c130 168 308 368 348 616h31c29 -51 21 -172 6 -258l-61 -344l117 136c94 110 195 261 195 466h35c40 -42 55 -79 55 -136c0 -103 -117 -251 -220 -359l-189 -199h-38c-26 65 -42 152 -25 321c-71 -109 -158 -216 -255 -321h-49c-33 66 -51 126 -51 203
c0 151 106 295 147 491h41c0 -115 -11 -212 -25 -288z" />
    <glyph glyph-name="X" unicode="X" horiz-adv-x="576" 
d="M289 458l28 -44l215 276h34c14 -14 20 -34 20 -49c0 -54 -95 -116 -242 -269l30 -47c51 -79 78 -133 78 -192c0 -52 -24 -102 -56 -133h-24c13 95 -17 145 -79 239l-35 54l-218 -293h-35c-14 14 -20 34 -20 49c0 56 92 119 247 283l-23 35c-55 84 -90 149 -90 190
c0 52 20 100 56 133h24c-10 -80 9 -106 90 -232z" />
    <glyph glyph-name="Y" unicode="Y" horiz-adv-x="523" 
d="M169 0h-35c-17 24 -34 66 -34 103c0 72 39 119 95 192l-53 101c-65 138 -48 232 28 294h22c-15 -74 -5 -106 29 -184l55 -124l241 308h29c16 -18 22 -36 22 -54c0 -66 -164 -187 -266 -305c-37 -42 -62 -83 -80 -147z" />
    <glyph glyph-name="Z" unicode="Z" horiz-adv-x="594" 
d="M-9 1l-26 28c169 243 374 450 523 576h-211c-77 0 -110 -2 -129 -37h-27c0 46 38 129 144 129c69 0 222 -34 281 -44c18 14 36 27 51 38l27 -26c-109 -135 -363 -417 -529 -574h224c72 0 130 3 142 35h24c0 -95 -57 -133 -133 -133c-59 0 -228 35 -315 46
c-17 -15 -33 -28 -46 -38z" />
    <glyph glyph-name="Agrave" unicode="&#xc0;" horiz-adv-x="610" 
d="M315 823c0 18 14 46 44 46c40 0 88 -60 158 -114l-13 -22c-94 38 -189 43 -189 90zM93 0h-36c-29 35 -55 78 -55 128c0 120 104 236 233 358l221 208h46c33 -66 48 -126 48 -203c0 -151 -93 -316 -145 -491h-40c0 74 15 169 28 244h-251c-29 -69 -43 -146 -49 -244z
M304 466c-61 -61 -106 -116 -138 -173h235l55 327z" />
    <glyph glyph-name="Aacute" unicode="&#xc1;" horiz-adv-x="610" 
d="M408 765c98 51 148 105 193 105c23 0 40 -19 40 -43c0 -23 -16 -37 -39 -44c-30 -7 -116 -23 -184 -44zM93 0h-36c-29 35 -55 78 -55 128c0 120 104 236 233 358l221 208h46c33 -66 48 -126 48 -203c0 -151 -93 -316 -145 -491h-40c0 74 15 169 28 244h-251
c-29 -69 -43 -146 -49 -244zM304 466c-61 -61 -106 -116 -138 -173h235l55 327z" />
    <glyph glyph-name="Acircumflex" unicode="&#xc2;" horiz-adv-x="610" 
d="M329 759l209 119h25c17 -38 52 -95 79 -127l-21 -21c-32 10 -96 53 -118 73l-158 -72zM93 0h-36c-29 35 -55 78 -55 128c0 120 104 236 233 358l221 208h46c33 -66 48 -126 48 -203c0 -151 -93 -316 -145 -491h-40c0 74 15 169 28 244h-251c-29 -69 -43 -146 -49 -244z
M304 466c-61 -61 -106 -116 -138 -173h235l55 327z" />
    <glyph glyph-name="Atilde" unicode="&#xc3;" horiz-adv-x="610" 
d="M588 804c38 0 48 25 52 65h28c0 -89 -49 -127 -118 -127c-76 0 -86 67 -144 67c-38 0 -47 -25 -53 -64h-27c0 87 47 127 116 127c81 0 93 -68 146 -68zM93 0h-36c-29 35 -55 78 -55 128c0 120 104 236 233 358l221 208h46c33 -66 48 -126 48 -203
c0 -151 -93 -316 -145 -491h-40c0 74 15 169 28 244h-251c-29 -69 -43 -146 -49 -244zM304 466c-61 -61 -106 -116 -138 -173h235l55 327z" />
    <glyph glyph-name="Adieresis" unicode="&#xc4;" horiz-adv-x="610" 
d="M357 788c0 37 30 59 61 59c26 0 41 -17 41 -40c0 -35 -30 -58 -62 -58c-26 0 -40 17 -40 39zM535 788c0 37 30 59 60 59c27 0 41 -17 41 -40c0 -35 -29 -58 -61 -58c-26 0 -40 17 -40 39zM93 0h-36c-29 35 -55 78 -55 128c0 120 104 236 233 358l221 208h46
c33 -66 48 -126 48 -203c0 -151 -93 -316 -145 -491h-40c0 74 15 169 28 244h-251c-29 -69 -43 -146 -49 -244zM304 466c-61 -61 -106 -116 -138 -173h235l55 327z" />
    <glyph glyph-name="Amacron" unicode="&#x100;" horiz-adv-x="610" 
d="M367 833h288l-26 -57h-288zM93 0h-36c-29 35 -55 78 -55 128c0 120 104 236 233 358l221 208h46c33 -66 48 -126 48 -203c0 -151 -93 -316 -145 -491h-40c0 74 15 169 28 244h-251c-29 -69 -43 -146 -49 -244zM304 466c-61 -61 -106 -116 -138 -173h235l55 327z" />
    <glyph glyph-name="Abreve" unicode="&#x102;" horiz-adv-x="610" 
d="M415 880h28c-6 -42 4 -84 73 -84c66 0 116 39 145 84h33c-30 -77 -103 -144 -208 -144c-65 0 -92 29 -97 59s4 58 26 85zM93 0h-36c-29 35 -55 78 -55 128c0 120 104 236 233 358l221 208h46c33 -66 48 -126 48 -203c0 -151 -93 -316 -145 -491h-40c0 74 15 169 28 244
h-251c-29 -69 -43 -146 -49 -244zM304 466c-61 -61 -106 -116 -138 -173h235l55 327z" />
    <glyph glyph-name="Aring" unicode="&#xc5;" horiz-adv-x="610" 
d="M389 805c0 61 52 112 124 112c63 0 97 -38 97 -87c0 -64 -54 -112 -124 -112c-67 0 -97 38 -97 87zM551 825c0 30 -14 54 -44 54c-34 0 -58 -29 -58 -71c0 -29 13 -52 44 -52c34 0 58 31 58 69zM93 0h-36c-29 35 -55 78 -55 128c0 120 104 236 233 358l221 208h46
c33 -66 48 -126 48 -203c0 -151 -93 -316 -145 -491h-40c0 74 15 169 28 244h-251c-29 -69 -43 -146 -49 -244zM304 466c-61 -61 -106 -116 -138 -173h235l55 327z" />
    <glyph glyph-name="Aringacute" unicode="&#x1fa;" horiz-adv-x="610" 
d="M426 902c98 51 148 105 193 105c23 0 40 -19 40 -43c0 -23 -16 -37 -39 -44c-30 -7 -116 -23 -184 -44zM93 0h-36c-29 35 -55 78 -55 128c0 120 104 236 233 358l192 180c-34 14 -50 44 -50 79c0 61 52 112 124 112c63 0 97 -38 97 -87c0 -50 -34 -91 -82 -106
c23 -55 34 -108 34 -173c0 -151 -93 -316 -145 -491h-40c0 74 15 169 28 244h-251c-29 -69 -43 -146 -49 -244zM539 765c0 30 -14 54 -44 54c-34 0 -58 -29 -58 -71c0 -29 13 -52 44 -52c34 0 58 31 58 69zM304 466c-61 -61 -106 -116 -138 -173h235l55 327z" />
    <glyph glyph-name="Aogonek" unicode="&#x104;" horiz-adv-x="610" 
d="M93 0h-36c-29 35 -55 78 -55 128c0 120 104 236 233 358l221 208h46c33 -66 48 -126 48 -203c0 -151 -93 -316 -145 -491c-43 -42 -68 -84 -68 -122c0 -21 8 -35 29 -35c25 0 40 18 46 41h21c-9 -54 -37 -93 -98 -93c-48 0 -70 30 -70 70c0 55 40 92 100 139
c0 75 15 169 28 244h-251c-29 -69 -43 -146 -49 -244zM304 466c-61 -61 -106 -116 -138 -173h235l55 327z" />
    <glyph glyph-name="AE" unicode="&#xc6;" horiz-adv-x="873" 
d="M776 116c-8 -73 -51 -126 -133 -126c-71 0 -216 26 -288 35c-1 0 6 148 18 219h-226c-32 -70 -48 -144 -54 -244h-36c-29 35 -55 78 -55 128c0 120 99 225 232 362l202 204c100 -4 302 -18 370 -18c54 0 78 5 90 21h11c0 -82 -35 -104 -91 -104c-78 0 -194 33 -249 45
c-7 -65 -26 -163 -43 -245h237l-15 -55h-238c-3 -10 -23 -89 -76 -264h186c73 0 127 11 139 42h19zM381 293l55 327l-133 -150c-56 -66 -99 -121 -131 -177h209z" />
    <glyph glyph-name="AEacute" unicode="&#x1fc;" horiz-adv-x="873" 
d="M611 765c98 51 148 105 193 105c23 0 40 -19 40 -43c0 -23 -16 -37 -39 -44c-30 -7 -116 -23 -184 -44zM776 116c-8 -73 -51 -126 -133 -126c-71 0 -216 26 -288 35c-1 0 6 148 18 219h-226c-32 -70 -48 -144 -54 -244h-36c-29 35 -55 78 -55 128c0 120 99 225 232 362
l202 204c100 -4 302 -18 370 -18c54 0 78 5 90 21h11c0 -82 -35 -104 -91 -104c-78 0 -194 33 -249 45c-7 -65 -26 -163 -43 -245h237l-15 -55h-238c-3 -10 -23 -89 -76 -264h186c73 0 127 11 139 42h19zM381 293l55 327l-133 -150c-56 -66 -99 -121 -131 -177h209z" />
    <glyph glyph-name="Cacute" unicode="&#x106;" horiz-adv-x="645" 
d="M419 765c98 51 148 105 193 105c23 0 40 -19 40 -43c0 -23 -16 -37 -39 -44c-30 -7 -116 -23 -184 -44zM44 204c0 232 181 496 411 496c118 0 165 -59 165 -133c0 -60 -39 -108 -97 -108c-15 0 -28 3 -39 9v23c53 8 72 40 72 83c0 42 -31 76 -102 76
c-86 0 -122 -38 -143 -81c-28 -58 -41 -115 -76 -209c-58 -144 -98 -147 -98 -216c0 -51 28 -99 141 -99c133 0 196 75 210 176h49c0 -134 -103 -231 -264 -231c-139 0 -229 67 -229 214z" />
    <glyph glyph-name="Ccircumflex" unicode="&#x108;" horiz-adv-x="645" 
d="M331 759l209 119h25c17 -38 52 -95 79 -127l-21 -21c-32 10 -96 53 -118 73l-158 -72zM44 204c0 232 181 496 411 496c118 0 165 -59 165 -133c0 -60 -39 -108 -97 -108c-15 0 -28 3 -39 9v23c53 8 72 40 72 83c0 42 -31 76 -102 76c-86 0 -122 -38 -143 -81
c-28 -58 -41 -115 -76 -209c-58 -144 -98 -147 -98 -216c0 -51 28 -99 141 -99c133 0 196 75 210 176h49c0 -134 -103 -231 -264 -231c-139 0 -229 67 -229 214z" />
    <glyph glyph-name="Ccaron" unicode="&#x10c;" horiz-adv-x="645" 
d="M375 855l35 25c36 -13 71 -41 114 -79l155 77l15 -28l-208 -119h-25c-33 66 -65 100 -86 124zM44 204c0 232 181 496 411 496c118 0 165 -59 165 -133c0 -60 -39 -108 -97 -108c-15 0 -28 3 -39 9v23c53 8 72 40 72 83c0 42 -31 76 -102 76c-86 0 -122 -38 -143 -81
c-28 -58 -41 -115 -76 -209c-58 -144 -98 -147 -98 -216c0 -51 28 -99 141 -99c133 0 196 75 210 176h49c0 -134 -103 -231 -264 -231c-139 0 -229 67 -229 214z" />
    <glyph glyph-name="Cdotaccent" unicode="&#x10a;" horiz-adv-x="645" 
d="M445 798c0 31 25 56 55 56c31 0 57 -25 57 -56s-26 -56 -57 -56c-30 0 -55 25 -55 56zM44 204c0 232 181 496 411 496c118 0 165 -59 165 -133c0 -60 -39 -108 -97 -108c-15 0 -28 3 -39 9v23c53 8 72 40 72 83c0 42 -31 76 -102 76c-86 0 -122 -38 -143 -81
c-28 -58 -41 -115 -76 -209c-58 -144 -98 -147 -98 -216c0 -51 28 -99 141 -99c133 0 196 75 210 176h49c0 -134 -103 -231 -264 -231c-139 0 -229 67 -229 214z" />
    <glyph glyph-name="Ccedilla" unicode="&#xc7;" horiz-adv-x="645" 
d="M146 -115h21c0 -28 9 -49 39 -49c27 0 45 18 45 48c0 21 -13 35 -36 35c-7 0 -14 -1 -20 -3l-18 18l32 61c-102 19 -165 86 -165 209c0 232 181 496 411 496c118 0 165 -59 165 -133c0 -60 -39 -108 -97 -108c-15 0 -28 3 -39 9v23c53 8 72 40 72 83c0 42 -31 76 -102 76
c-86 0 -122 -38 -143 -81c-28 -58 -41 -115 -76 -209c-58 -144 -98 -147 -98 -216c0 -51 28 -99 141 -99c133 0 196 75 210 176h49c0 -134 -103 -231 -264 -231c-10 0 -20 0 -30 1l-14 -39c52 8 81 -19 81 -61c0 -57 -46 -91 -98 -91c-63 0 -74 50 -66 85z" />
    <glyph glyph-name="Dcaron" unicode="&#x10e;" horiz-adv-x="714" 
d="M323 855l35 25c36 -13 71 -41 114 -79l155 77l15 -28l-208 -119h-25c-33 66 -65 100 -86 124zM225 690h162c224 0 284 -130 284 -249c0 -210 -185 -441 -467 -441h-159v118c0 200 122 416 180 572zM120 52h56c166 0 255 48 319 231c51 146 63 158 63 218
c0 66 -40 138 -165 138h-111c-14 -91 -46 -228 -85 -348z" />
    <glyph glyph-name="Dcroat" unicode="&#x110;" horiz-adv-x="714" 
d="M12 394h91c40 108 90 211 122 296h162c224 0 284 -130 284 -249c0 -210 -185 -441 -467 -441h-159v118c0 73 16 148 39 221h-94zM120 52h56c166 0 255 48 319 231c51 146 63 158 63 218c0 66 -40 138 -165 138h-111c-10 -66 -30 -155 -54 -245h158l-22 -55h-152l-15 -48z
" />
    <glyph glyph-name="Egrave" unicode="&#xc8;" horiz-adv-x="571" 
d="M300 823c0 18 14 46 44 46c40 0 88 -60 158 -114l-13 -22c-94 38 -189 43 -189 90zM474 116c-8 -73 -51 -126 -133 -126c-71 0 -211 26 -283 34c-11 52 -13 89 -13 128c0 198 146 382 195 538l264 -14c54 -3 78 5 90 21h11c0 -82 -35 -104 -91 -104
c-78 0 -186 33 -241 45c-7 -65 -27 -158 -51 -245h237l-15 -55h-238l-88 -264h198c73 0 127 11 139 42h19z" />
    <glyph glyph-name="Eacute" unicode="&#xc9;" horiz-adv-x="571" 
d="M372 765c98 51 148 105 193 105c23 0 40 -19 40 -43c0 -23 -16 -37 -39 -44c-30 -7 -116 -23 -184 -44zM474 116c-8 -73 -51 -126 -133 -126c-71 0 -211 26 -283 34c-11 52 -13 89 -13 128c0 198 146 382 195 538l264 -14c54 -3 78 5 90 21h11c0 -82 -35 -104 -91 -104
c-78 0 -186 33 -241 45c-7 -65 -27 -158 -51 -245h237l-15 -55h-238l-88 -264h198c73 0 127 11 139 42h19z" />
    <glyph glyph-name="Ecircumflex" unicode="&#xca;" horiz-adv-x="571" 
d="M292 759l209 119h25c17 -38 52 -95 79 -127l-21 -21c-32 10 -96 53 -118 73l-158 -72zM474 116c-8 -73 -51 -126 -133 -126c-71 0 -211 26 -283 34c-11 52 -13 89 -13 128c0 198 146 382 195 538l264 -14c54 -3 78 5 90 21h11c0 -82 -35 -104 -91 -104
c-78 0 -186 33 -241 45c-7 -65 -27 -158 -51 -245h237l-15 -55h-238l-88 -264h198c73 0 127 11 139 42h19z" />
    <glyph glyph-name="Ecaron" unicode="&#x11a;" horiz-adv-x="571" 
d="M335 855l35 25c36 -13 71 -41 114 -79l155 77l15 -28l-208 -119h-25c-33 66 -65 100 -86 124zM474 116c-8 -73 -51 -126 -133 -126c-71 0 -211 26 -283 34c-11 52 -13 89 -13 128c0 198 146 382 195 538l264 -14c54 -3 78 5 90 21h11c0 -82 -35 -104 -91 -104
c-78 0 -186 33 -241 45c-7 -65 -27 -158 -51 -245h237l-15 -55h-238l-88 -264h198c73 0 127 11 139 42h19z" />
    <glyph glyph-name="Edieresis" unicode="&#xcb;" horiz-adv-x="571" 
d="M312 788c0 37 30 59 61 59c26 0 41 -17 41 -40c0 -35 -30 -58 -62 -58c-26 0 -40 17 -40 39zM490 788c0 37 30 59 60 59c27 0 41 -17 41 -40c0 -35 -29 -58 -61 -58c-26 0 -40 17 -40 39zM474 116c-8 -73 -51 -126 -133 -126c-71 0 -211 26 -283 34
c-11 52 -13 89 -13 128c0 198 146 382 195 538l264 -14c54 -3 78 5 90 21h11c0 -82 -35 -104 -91 -104c-78 0 -186 33 -241 45c-7 -65 -27 -158 -51 -245h237l-15 -55h-238l-88 -264h198c73 0 127 11 139 42h19z" />
    <glyph glyph-name="Emacron" unicode="&#x112;" horiz-adv-x="571" 
d="M324 833h288l-26 -57h-288zM474 116c-8 -73 -51 -126 -133 -126c-71 0 -211 26 -283 34c-11 52 -13 89 -13 128c0 198 146 382 195 538l264 -14c54 -3 78 5 90 21h11c0 -82 -35 -104 -91 -104c-78 0 -186 33 -241 45c-7 -65 -27 -158 -51 -245h237l-15 -55h-238l-88 -264
h198c73 0 127 11 139 42h19z" />
    <glyph glyph-name="Ebreve" unicode="&#x114;" horiz-adv-x="571" 
d="M357 880h28c-6 -42 4 -84 73 -84c66 0 116 39 145 84h33c-30 -77 -103 -144 -208 -144c-65 0 -92 29 -97 59s4 58 26 85zM474 116c-8 -73 -51 -126 -133 -126c-71 0 -211 26 -283 34c-11 52 -13 89 -13 128c0 198 146 382 195 538l264 -14c54 -3 78 5 90 21h11
c0 -82 -35 -104 -91 -104c-78 0 -186 33 -241 45c-7 -65 -27 -158 -51 -245h237l-15 -55h-238l-88 -264h198c73 0 127 11 139 42h19z" />
    <glyph glyph-name="Edotaccent" unicode="&#x116;" horiz-adv-x="571" 
d="M385 798c0 31 25 56 55 56c31 0 57 -25 57 -56s-26 -56 -57 -56c-30 0 -55 25 -55 56zM474 116c-8 -73 -51 -126 -133 -126c-71 0 -211 26 -283 34c-11 52 -13 89 -13 128c0 198 146 382 195 538l264 -14c54 -3 78 5 90 21h11c0 -82 -35 -104 -91 -104
c-78 0 -186 33 -241 45c-7 -65 -27 -158 -51 -245h237l-15 -55h-238l-88 -264h198c73 0 127 11 139 42h19z" />
    <glyph glyph-name="Eogonek" unicode="&#x118;" horiz-adv-x="571" 
d="M274 -135c0 49 34 88 84 126c-5 -1 -11 -1 -17 -1c-71 0 -211 26 -283 34c-11 52 -13 89 -13 128c0 198 146 382 195 538l264 -14c54 -3 78 5 90 21h11c0 -82 -35 -104 -91 -104c-78 0 -186 33 -241 45c-7 -65 -27 -158 -51 -245h237l-15 -55h-238l-88 -264h198
c73 0 127 11 139 42h19c-4 -37 -17 -69 -40 -92c-62 -52 -87 -105 -87 -141c0 -26 10 -40 31 -40c25 0 40 18 46 41h22c-10 -54 -38 -93 -99 -93c-48 0 -73 28 -73 74z" />
    <glyph glyph-name="fi.cap" horiz-adv-x="834" 
d="M97 0h-33c-15 53 -19 113 -19 152c0 198 146 382 195 538l251 -14c54 -3 78 5 90 21h11c0 -82 -35 -104 -91 -104c-78 0 -173 33 -228 45c-7 -65 -31 -175 -55 -262h227l-15 -55h-228c-3 -10 -6 -20 -105 -321zM729 295l-100 -298h-32c-13 46 -19 93 -19 152
c0 202 140 358 200 538h35c0 -39 -18 -195 -84 -392z" />
    <glyph glyph-name="fl.cap" horiz-adv-x="1034" 
d="M97 0h-33c-15 53 -19 113 -19 152c0 198 146 382 195 538l251 -14c54 -3 78 5 90 21h11c0 -82 -35 -104 -91 -104c-78 0 -173 33 -228 45c-7 -65 -31 -175 -55 -262h227l-15 -55h-228c-3 -10 -6 -20 -105 -321zM574 24c-11 52 -13 89 -13 128c0 198 151 382 200 538h33
c0 -72 -37 -253 -80 -381l-79 -234h183c73 0 127 15 139 46h19c-8 -73 -50 -131 -132 -131c-71 0 -192 29 -270 34z" />
    <glyph glyph-name="Gcircumflex" unicode="&#x11c;" horiz-adv-x="671" 
d="M335 759l209 119h25c17 -38 52 -95 79 -127l-21 -21c-32 10 -96 53 -118 73l-158 -72zM495 58c-3 1 -11 2 -16 2c-34 0 -75 -70 -203 -70c-184 0 -232 103 -232 224c0 226 185 486 425 486c120 0 172 -61 172 -134c0 -57 -38 -95 -83 -95c-17 0 -34 4 -41 9v23
c29 8 59 18 59 67c0 53 -50 77 -107 77c-84 0 -123 -31 -151 -69c-34 -46 -48 -113 -89 -215c-59 -147 -94 -150 -94 -218c0 -76 65 -100 150 -100c133 0 187 92 187 180c0 20 -4 35 -16 46c-12 10 -32 15 -66 15v40h197c-12 -58 -51 -185 -92 -268z" />
    <glyph glyph-name="Gbreve" unicode="&#x11e;" horiz-adv-x="671" 
d="M427 880h28c-6 -42 4 -84 73 -84c66 0 116 39 145 84h33c-30 -77 -103 -144 -208 -144c-65 0 -92 29 -97 59s4 58 26 85zM495 58c-3 1 -11 2 -16 2c-34 0 -75 -70 -203 -70c-184 0 -232 103 -232 224c0 226 185 486 425 486c120 0 172 -61 172 -134
c0 -57 -38 -95 -83 -95c-17 0 -34 4 -41 9v23c29 8 59 18 59 67c0 53 -50 77 -107 77c-84 0 -123 -31 -151 -69c-34 -46 -48 -113 -89 -215c-59 -147 -94 -150 -94 -218c0 -76 65 -100 150 -100c133 0 187 92 187 180c0 20 -4 35 -16 46c-12 10 -32 15 -66 15v40h197
c-12 -58 -51 -185 -92 -268z" />
    <glyph glyph-name="Gdotaccent" unicode="&#x120;" horiz-adv-x="671" 
d="M449 798c0 31 25 56 55 56c31 0 57 -25 57 -56s-26 -56 -57 -56c-30 0 -55 25 -55 56zM495 58c-3 1 -11 2 -16 2c-34 0 -75 -70 -203 -70c-184 0 -232 103 -232 224c0 226 185 486 425 486c120 0 172 -61 172 -134c0 -57 -38 -95 -83 -95c-17 0 -34 4 -41 9v23
c29 8 59 18 59 67c0 53 -50 77 -107 77c-84 0 -123 -31 -151 -69c-34 -46 -48 -113 -89 -215c-59 -147 -94 -150 -94 -218c0 -76 65 -100 150 -100c133 0 187 92 187 180c0 20 -4 35 -16 46c-12 10 -32 15 -66 15v40h197c-12 -58 -51 -185 -92 -268z" />
    <glyph glyph-name="Gcommaaccent" unicode="&#x122;" horiz-adv-x="671" 
d="M495 58c-3 1 -11 2 -16 2c-34 0 -75 -70 -203 -70c-184 0 -232 103 -232 224c0 226 185 486 425 486c120 0 172 -61 172 -134c0 -57 -38 -95 -83 -95c-17 0 -34 4 -41 9v23c29 8 59 18 59 67c0 53 -50 77 -107 77c-84 0 -123 -31 -151 -69c-34 -46 -48 -113 -89 -215
c-59 -147 -94 -150 -94 -218c0 -76 65 -100 150 -100c133 0 187 92 187 180c0 20 -4 35 -16 46c-12 10 -32 15 -66 15v40h197c-12 -58 -51 -185 -92 -268zM176 -220c21 37 55 117 62 166h78c-9 -56 -63 -146 -108 -178z" />
    <glyph glyph-name="Hcircumflex" unicode="&#x124;" horiz-adv-x="702" 
d="M300 759l209 119h25c17 -38 52 -95 79 -127l-21 -21c-32 10 -96 53 -118 73l-158 -72zM197 298l-100 -298h-33c-13 46 -19 93 -19 152c0 202 140 358 200 538h36c0 -32 -12 -146 -55 -297h279l100 297h33c13 -46 19 -93 19 -152c0 -195 -140 -358 -200 -538h-36
c0 35 15 167 67 338h-278c-4 -13 -8 -26 -13 -40z" />
    <glyph glyph-name="Hbar" unicode="&#x126;" horiz-adv-x="702" 
d="M197 298l-100 -298h-33c-13 46 -19 93 -19 152c0 136 64 251 123 367h-88l22 55h94c19 38 36 76 49 116h36c0 -17 -4 -58 -14 -116h299l39 116h33c10 -36 16 -73 18 -116h90l-22 -55h-67c-9 -187 -142 -345 -200 -519h-36c0 35 15 167 67 338h-278c-4 -13 -8 -26 -13 -40
zM226 393h279l43 126h-291c-8 -38 -18 -80 -31 -126z" />
    <glyph glyph-name="Igrave" unicode="&#xcc;" horiz-adv-x="303" 
d="M143 823c0 18 14 46 44 46c40 0 88 -60 158 -114l-13 -22c-94 38 -189 43 -189 90zM198 298l-100 -298h-32c-13 46 -19 93 -19 152c0 202 140 358 200 538h35c0 -39 -18 -195 -84 -392z" />
    <glyph glyph-name="Iacute" unicode="&#xcd;" horiz-adv-x="303" 
d="M238 765c98 51 148 105 193 105c23 0 40 -19 40 -43c0 -23 -16 -37 -39 -44c-30 -7 -116 -23 -184 -44zM198 298l-100 -298h-32c-13 46 -19 93 -19 152c0 202 140 358 200 538h35c0 -39 -18 -195 -84 -392z" />
    <glyph glyph-name="Icircumflex" unicode="&#xce;" horiz-adv-x="303" 
d="M113 759l209 119h25c17 -38 52 -95 79 -127l-21 -21c-32 10 -96 53 -118 73l-158 -72zM198 298l-100 -298h-32c-13 46 -19 93 -19 152c0 202 140 358 200 538h35c0 -39 -18 -195 -84 -392z" />
    <glyph glyph-name="Itilde" unicode="&#x128;" horiz-adv-x="303" 
d="M393 804c38 0 48 25 52 65h28c0 -89 -49 -127 -118 -127c-76 0 -86 67 -144 67c-38 0 -47 -25 -53 -64h-27c0 87 47 127 116 127c81 0 93 -68 146 -68zM198 298l-100 -298h-32c-13 46 -19 93 -19 152c0 202 140 358 200 538h35c0 -39 -18 -195 -84 -392z" />
    <glyph glyph-name="Idieresis" unicode="&#xcf;" horiz-adv-x="303" 
d="M153 788c0 37 30 59 61 59c26 0 41 -17 41 -40c0 -35 -30 -58 -62 -58c-26 0 -40 17 -40 39zM331 788c0 37 30 59 60 59c27 0 41 -17 41 -40c0 -35 -29 -58 -61 -58c-26 0 -40 17 -40 39zM198 298l-100 -298h-32c-13 46 -19 93 -19 152c0 202 140 358 200 538h35
c0 -39 -18 -195 -84 -392z" />
    <glyph glyph-name="Imacron" unicode="&#x12a;" horiz-adv-x="303" 
d="M160 833h288l-26 -57h-288zM198 298l-100 -298h-32c-13 46 -19 93 -19 152c0 202 140 358 200 538h35c0 -39 -18 -195 -84 -392z" />
    <glyph glyph-name="Ibreve" unicode="&#x12c;" horiz-adv-x="303" 
d="M202 880h28c-6 -42 4 -84 73 -84c66 0 116 39 145 84h33c-30 -77 -103 -144 -208 -144c-65 0 -92 29 -97 59s4 58 26 85zM198 298l-100 -298h-32c-13 46 -19 93 -19 152c0 202 140 358 200 538h35c0 -39 -18 -195 -84 -392z" />
    <glyph glyph-name="Idotaccent" unicode="&#x130;" horiz-adv-x="303" 
d="M225 798c0 31 25 56 55 56c31 0 57 -25 57 -56s-26 -56 -57 -56c-30 0 -55 25 -55 56zM198 298l-100 -298h-32c-13 46 -19 93 -19 152c0 202 140 358 200 538h35c0 -39 -18 -195 -84 -392z" />
    <glyph glyph-name="Iogonek" unicode="&#x12e;" horiz-adv-x="303" 
d="M-31 -135c0 55 40 93 95 142c-12 44 -17 89 -17 145c0 202 140 358 200 538h35c0 -39 -18 -195 -84 -392l-100 -298c-40 -44 -56 -85 -56 -117c0 -27 10 -40 31 -40c25 0 40 18 46 41h22c-10 -54 -38 -93 -99 -93c-48 0 -73 28 -73 74z" />
    <glyph glyph-name="IJ" unicode="&#x132;" horiz-adv-x="675" 
d="M198 298l-100 -298h-32c-13 46 -19 93 -19 152c0 202 140 358 200 538h35c0 -39 -18 -195 -84 -392zM210 29h40c-8 -63 -3 -116 74 -116c86 0 99 80 99 142v104c0 200 155 373 202 531h36c0 -144 -88 -395 -130 -539c-42 -145 -65 -289 -216 -289c-86 0 -119 52 -119 102
c0 29 5 46 14 65z" />
    <glyph glyph-name="Jcircumflex" unicode="&#x134;" horiz-adv-x="392" 
d="M211 759l209 119h25c17 -38 52 -95 79 -127l-21 -21c-32 10 -96 53 -118 73l-158 -72zM-73 29h40c-8 -63 -3 -116 74 -116c86 0 99 80 99 142v104c0 200 155 373 202 531h36c0 -144 -88 -395 -130 -539c-42 -145 -65 -289 -216 -289c-86 0 -119 52 -119 102
c0 29 5 46 14 65z" />
    <glyph glyph-name="Kcommaaccent" unicode="&#x136;" horiz-adv-x="636" 
d="M97 0h-33c-15 50 -19 106 -19 144c0 219 144 371 200 546h36c0 -37 -23 -210 -60 -316l361 316h21c9 -11 17 -27 17 -49c0 -64 -139 -119 -312 -242c21 4 40 6 57 6c130 1 154 -91 154 -133c0 -109 -83 -158 -83 -207c0 -22 14 -32 45 -37l-8 -26c-78 0 -116 41 -116 107
c0 74 42 122 42 187c0 20 -5 73 -76 73c-56 0 -112 -32 -145 -129zM154 -220c21 37 55 117 62 166h78c-9 -56 -63 -146 -108 -178z" />
    <glyph glyph-name="Lacute" unicode="&#x139;" horiz-adv-x="518" 
d="M264 765c98 51 148 105 193 105c23 0 40 -19 40 -43c0 -23 -16 -37 -39 -44c-30 -7 -116 -23 -184 -44zM58 24c-11 52 -13 89 -13 128c0 198 151 382 200 538h33c0 -72 -37 -253 -80 -381l-79 -234h183c73 0 127 15 139 46h19c-8 -73 -50 -131 -132 -131
c-71 0 -192 29 -270 34z" />
    <glyph glyph-name="Lcaron" unicode="&#x13d;" horiz-adv-x="518" 
d="M359 517c20 38 53 130 59 178h74c-9 -57 -58 -160 -103 -192zM58 24c-11 52 -13 89 -13 128c0 198 151 382 200 538h33c0 -72 -37 -253 -80 -381l-79 -234h183c73 0 127 15 139 46h19c-8 -73 -50 -131 -132 -131c-71 0 -192 29 -270 34z" />
    <glyph glyph-name="Lcommaaccent" unicode="&#x13b;" horiz-adv-x="518" 
d="M58 24c-11 52 -13 89 -13 128c0 198 151 382 200 538h33c0 -72 -37 -253 -80 -381l-79 -234h183c73 0 127 15 139 46h19c-8 -73 -50 -131 -132 -131c-71 0 -192 29 -270 34zM119 -220c21 37 55 117 62 166h78c-9 -56 -63 -146 -108 -178z" />
    <glyph glyph-name="Lslash" unicode="&#x141;" horiz-adv-x="518" 
d="M62 24c-11 52 -13 89 -13 128c0 15 1 30 3 45l-87 -53v66l101 61c40 153 144 295 183 419h33c0 -62 -27 -205 -62 -325l180 110v-64l-206 -127l-71 -209h183c73 0 127 15 139 46h19c-8 -73 -50 -131 -132 -131c-71 0 -192 29 -270 34z" />
    <glyph glyph-name="Ldot" unicode="&#x13f;" horiz-adv-x="518" 
d="M58 24c-11 52 -13 89 -13 128c0 198 151 382 200 538h33c0 -72 -37 -253 -80 -381l-79 -234h183c73 0 127 15 139 46h19c-8 -73 -50 -131 -132 -131c-71 0 -192 29 -270 34zM382 300c-29 0 -51 19 -51 47c0 39 28 64 63 64c30 0 51 -20 51 -48c0 -38 -27 -63 -63 -63z
" />
    <glyph glyph-name="Nacute" unicode="&#x143;" horiz-adv-x="701" 
d="M409 765c98 51 148 105 193 105c23 0 40 -19 40 -43c0 -23 -16 -37 -39 -44c-30 -7 -116 -23 -184 -44zM434 -1h-24c-12 87 -144 326 -175 529l-164 -528h-20c-11 30 -21 83 -21 127c0 175 142 335 220 563h25c41 -151 141 -349 184 -541l167 541h19
c17 -40 26 -84 26 -133c0 -137 -123 -302 -237 -558z" />
    <glyph glyph-name="Ncaron" unicode="&#x147;" horiz-adv-x="701" 
d="M356 855l35 25c36 -13 71 -41 114 -79l155 77l15 -28l-208 -119h-25c-33 66 -65 100 -86 124zM434 -1h-24c-12 87 -144 326 -175 529l-164 -528h-20c-11 30 -21 83 -21 127c0 175 142 335 220 563h25c41 -151 141 -349 184 -541l167 541h19c17 -40 26 -84 26 -133
c0 -137 -123 -302 -237 -558z" />
    <glyph glyph-name="Ntilde" unicode="&#xd1;" horiz-adv-x="701" 
d="M570 804c38 0 48 25 52 65h28c0 -89 -49 -127 -118 -127c-76 0 -86 67 -144 67c-38 0 -47 -25 -53 -64h-27c0 87 47 127 116 127c81 0 93 -68 146 -68zM434 -1h-24c-12 87 -144 326 -175 529l-164 -528h-20c-11 30 -21 83 -21 127c0 175 142 335 220 563h25
c41 -151 141 -349 184 -541l167 541h19c17 -40 26 -84 26 -133c0 -137 -123 -302 -237 -558z" />
    <glyph glyph-name="Ncommaaccent" unicode="&#x145;" horiz-adv-x="701" 
d="M434 -1h-24c-12 87 -144 326 -175 529l-164 -528h-20c-11 30 -21 83 -21 127c0 175 142 335 220 563h25c41 -151 141 -349 184 -541l167 541h19c17 -40 26 -84 26 -133c0 -137 -123 -302 -237 -558zM136 -220c21 37 55 117 62 166h78c-9 -56 -63 -146 -108 -178z" />
    <glyph glyph-name="Ograve" unicode="&#xd2;" horiz-adv-x="710" 
d="M354 823c0 18 14 46 44 46c40 0 88 -60 158 -114l-13 -22c-94 38 -189 43 -189 90zM443 699c161 0 223 -102 223 -241c0 -189 -166 -467 -393 -467c-169 0 -229 90 -229 241c0 188 167 467 399 467zM503 331c41 121 72 155 72 208c0 71 -59 110 -138 110
c-137 0 -172 -142 -225 -290c-44 -121 -75 -156 -75 -208c0 -68 48 -110 135 -110c148 0 184 134 231 290z" />
    <glyph glyph-name="Oacute" unicode="&#xd3;" horiz-adv-x="710" 
d="M448 765c98 51 148 105 193 105c23 0 40 -19 40 -43c0 -23 -16 -37 -39 -44c-30 -7 -116 -23 -184 -44zM443 699c161 0 223 -102 223 -241c0 -189 -166 -467 -393 -467c-169 0 -229 90 -229 241c0 188 167 467 399 467zM503 331c41 121 72 155 72 208
c0 71 -59 110 -138 110c-137 0 -172 -142 -225 -290c-44 -121 -75 -156 -75 -208c0 -68 48 -110 135 -110c148 0 184 134 231 290z" />
    <glyph glyph-name="Ocircumflex" unicode="&#xd4;" horiz-adv-x="710" 
d="M336 759l209 119h25c17 -38 52 -95 79 -127l-21 -21c-32 10 -96 53 -118 73l-158 -72zM443 699c161 0 223 -102 223 -241c0 -189 -166 -467 -393 -467c-169 0 -229 90 -229 241c0 188 167 467 399 467zM503 331c41 121 72 155 72 208c0 71 -59 110 -138 110
c-137 0 -172 -142 -225 -290c-44 -121 -75 -156 -75 -208c0 -68 48 -110 135 -110c148 0 184 134 231 290z" />
    <glyph glyph-name="Otilde" unicode="&#xd5;" horiz-adv-x="710" 
d="M612 804c38 0 48 25 52 65h28c0 -89 -49 -127 -118 -127c-76 0 -86 67 -144 67c-38 0 -47 -25 -53 -64h-27c0 87 47 127 116 127c81 0 93 -68 146 -68zM443 699c161 0 223 -102 223 -241c0 -189 -166 -467 -393 -467c-169 0 -229 90 -229 241c0 188 167 467 399 467z
M503 331c41 121 72 155 72 208c0 71 -59 110 -138 110c-137 0 -172 -142 -225 -290c-44 -121 -75 -156 -75 -208c0 -68 48 -110 135 -110c148 0 184 134 231 290z" />
    <glyph glyph-name="Odieresis" unicode="&#xd6;" horiz-adv-x="710" 
d="M354 788c0 37 30 59 61 59c26 0 41 -17 41 -40c0 -35 -30 -58 -62 -58c-26 0 -40 17 -40 39zM532 788c0 37 30 59 60 59c27 0 41 -17 41 -40c0 -35 -29 -58 -61 -58c-26 0 -40 17 -40 39zM443 699c161 0 223 -102 223 -241c0 -189 -166 -467 -393 -467
c-169 0 -229 90 -229 241c0 188 167 467 399 467zM503 331c41 121 72 155 72 208c0 71 -59 110 -138 110c-137 0 -172 -142 -225 -290c-44 -121 -75 -156 -75 -208c0 -68 48 -110 135 -110c148 0 184 134 231 290z" />
    <glyph glyph-name="Omacron" unicode="&#x14c;" horiz-adv-x="710" 
d="M396 833h288l-26 -57h-288zM443 699c161 0 223 -102 223 -241c0 -189 -166 -467 -393 -467c-169 0 -229 90 -229 241c0 188 167 467 399 467zM503 331c41 121 72 155 72 208c0 71 -59 110 -138 110c-137 0 -172 -142 -225 -290c-44 -121 -75 -156 -75 -208
c0 -68 48 -110 135 -110c148 0 184 134 231 290z" />
    <glyph glyph-name="Obreve" unicode="&#x14e;" horiz-adv-x="710" 
d="M413 880h28c-6 -42 4 -84 73 -84c66 0 116 39 145 84h33c-30 -77 -103 -144 -208 -144c-65 0 -92 29 -97 59s4 58 26 85zM443 699c161 0 223 -102 223 -241c0 -189 -166 -467 -393 -467c-169 0 -229 90 -229 241c0 188 167 467 399 467zM503 331c41 121 72 155 72 208
c0 71 -59 110 -138 110c-137 0 -172 -142 -225 -290c-44 -121 -75 -156 -75 -208c0 -68 48 -110 135 -110c148 0 184 134 231 290z" />
    <glyph glyph-name="Ohungarumlaut" unicode="&#x150;" horiz-adv-x="710" 
d="M371 740l136 141l75 -35l-183 -130zM548 740l136 141l74 -35l-182 -130zM443 699c161 0 223 -102 223 -241c0 -189 -166 -467 -393 -467c-169 0 -229 90 -229 241c0 188 167 467 399 467zM503 331c41 121 72 155 72 208c0 71 -59 110 -138 110
c-137 0 -172 -142 -225 -290c-44 -121 -75 -156 -75 -208c0 -68 48 -110 135 -110c148 0 184 134 231 290z" />
    <glyph glyph-name="Oslash" unicode="&#xd8;" horiz-adv-x="710" 
d="M443 699c55 0 99 -12 132 -33l27 33h78l-60 -75c32 -42 46 -100 46 -166c0 -189 -166 -467 -393 -467c-59 0 -105 11 -140 32l-24 -30h-79l58 71c-31 41 -44 98 -44 168c0 188 167 467 399 467zM137 151c0 -8 1 -16 2 -23l398 491c-24 20 -60 30 -100 30
c-137 0 -172 -142 -225 -290c-44 -121 -75 -156 -75 -208zM503 331c41 121 72 155 72 208c0 9 -1 18 -3 26l-400 -494c23 -19 56 -30 100 -30c148 0 184 134 231 290z" />
    <glyph glyph-name="Oslashacute" unicode="&#x1fe;" horiz-adv-x="710" 
d="M448 765c98 51 148 105 193 105c23 0 40 -19 40 -43c0 -23 -16 -37 -39 -44c-30 -7 -116 -23 -184 -44zM443 699c55 0 99 -12 132 -33l27 33h78l-60 -75c32 -42 46 -100 46 -166c0 -189 -166 -467 -393 -467c-59 0 -105 11 -140 32l-24 -30h-79l58 71
c-31 41 -44 98 -44 168c0 188 167 467 399 467zM137 151c0 -8 1 -16 2 -23l398 491c-24 20 -60 30 -100 30c-137 0 -172 -142 -225 -290c-44 -121 -75 -156 -75 -208zM503 331c41 121 72 155 72 208c0 9 -1 18 -3 26l-400 -494c23 -19 56 -30 100 -30c148 0 184 134 231 290
z" />
    <glyph glyph-name="OE" unicode="&#x152;" horiz-adv-x="999" 
d="M44 232c0 188 167 467 399 467c104 0 158 -43 184 -110c16 35 31 68 41 101l264 -14c54 -3 78 5 90 21h11c0 -82 -35 -104 -91 -104c-78 0 -186 33 -241 45c-7 -65 -27 -158 -51 -245h237l-15 -55h-238c-3 -10 -6 -20 -88 -264h198c73 0 127 11 139 42l15 -6
c-8 -73 -47 -120 -129 -120c-71 0 -211 26 -283 34c-4 19 -7 36 -9 52c-56 -52 -125 -85 -204 -85c-169 0 -229 90 -229 241zM503 331c41 121 72 155 72 208c0 71 -59 110 -138 110c-137 0 -172 -142 -225 -290c-44 -121 -75 -156 -75 -208c0 -68 48 -110 135 -110
c148 0 184 134 231 290z" />
    <glyph glyph-name="Racute" unicode="&#x154;" horiz-adv-x="636" 
d="M378 765c98 51 148 105 193 105c23 0 40 -19 40 -43c0 -23 -16 -37 -39 -44c-30 -7 -116 -23 -184 -44zM481 0c-76 0 -115 35 -115 96s37 100 37 154c0 58 -37 86 -115 86h-79l-112 -336h-33c-11 38 -19 87 -19 152c0 203 133 368 186 538c32 0 124 5 173 5
c131 0 217 -53 217 -150c0 -128 -123 -177 -263 -188c122 -13 162 -60 162 -128c0 -73 -76 -122 -76 -167c0 -20 14 -32 45 -36zM280 637c-11 -65 -35 -160 -57 -248h61c116 0 164 16 195 86c23 51 33 68 33 95c0 43 -27 74 -131 74c-29 0 -72 -3 -101 -7z" />
    <glyph glyph-name="Rcaron" unicode="&#x158;" horiz-adv-x="636" 
d="M328 855l35 25c36 -13 71 -41 114 -79l155 77l15 -28l-208 -119h-25c-33 66 -65 100 -86 124zM481 0c-76 0 -115 35 -115 96s37 100 37 154c0 58 -37 86 -115 86h-79l-112 -336h-33c-11 38 -19 87 -19 152c0 203 133 368 186 538c32 0 124 5 173 5
c131 0 217 -53 217 -150c0 -128 -123 -177 -263 -188c122 -13 162 -60 162 -128c0 -73 -76 -122 -76 -167c0 -20 14 -32 45 -36zM280 637c-11 -65 -35 -160 -57 -248h61c116 0 164 16 195 86c23 51 33 68 33 95c0 43 -27 74 -131 74c-29 0 -72 -3 -101 -7z" />
    <glyph glyph-name="Rcommaaccent" unicode="&#x156;" horiz-adv-x="636" 
d="M481 0c-76 0 -115 35 -115 96s37 100 37 154c0 58 -37 86 -115 86h-79l-112 -336h-33c-11 38 -19 87 -19 152c0 203 133 368 186 538c32 0 124 5 173 5c131 0 217 -53 217 -150c0 -128 -123 -177 -263 -188c122 -13 162 -60 162 -128c0 -73 -76 -122 -76 -167
c0 -20 14 -32 45 -36zM280 637c-11 -65 -35 -160 -57 -248h61c116 0 164 16 195 86c23 51 33 68 33 95c0 43 -27 74 -131 74c-29 0 -72 -3 -101 -7zM151 -220c21 37 55 117 62 166h78c-9 -56 -63 -146 -108 -178z" />
    <glyph glyph-name="germandbls.cap" horiz-adv-x="1144" 
d="M37 232h41c-12 -101 0 -189 129 -189c119 0 160 66 160 134c0 76 -55 94 -128 129c-77 37 -124 68 -124 175c0 109 94 219 265 219c110 0 169 -56 169 -134c0 -27 -7 -51 -18 -71h-45c12 63 19 152 -112 152c-125 0 -159 -68 -159 -126c0 -76 43 -92 114 -116
c80 -28 150 -61 150 -178c0 -111 -88 -237 -274 -237c-147 0 -191 82 -191 157c0 30 7 59 23 85zM603 232h41c-12 -101 0 -189 129 -189c119 0 160 66 160 134c0 76 -55 94 -128 129c-77 37 -124 68 -124 175c0 109 94 219 265 219c110 0 169 -56 169 -134
c0 -27 -7 -51 -18 -71h-45c12 63 19 152 -112 152c-125 0 -159 -68 -159 -126c0 -76 43 -92 114 -116c80 -28 150 -61 150 -178c0 -111 -88 -237 -274 -237c-147 0 -191 82 -191 157c0 30 7 59 23 85z" />
    <glyph glyph-name="Sacute" unicode="&#x15a;" horiz-adv-x="578" 
d="M336 765c98 51 148 105 193 105c23 0 40 -19 40 -43c0 -23 -16 -37 -39 -44c-30 -7 -116 -23 -184 -44zM37 232h41c-12 -101 0 -189 129 -189c119 0 160 66 160 134c0 76 -55 94 -128 129c-77 37 -124 68 -124 175c0 109 94 219 265 219c110 0 169 -56 169 -134
c0 -27 -7 -51 -18 -71h-45c12 63 19 152 -112 152c-125 0 -159 -68 -159 -126c0 -76 43 -92 114 -116c80 -28 150 -61 150 -178c0 -111 -88 -237 -274 -237c-147 0 -191 82 -191 157c0 30 7 59 23 85z" />
    <glyph glyph-name="Scircumflex" unicode="&#x15c;" horiz-adv-x="578" 
d="M234 759l209 119h25c17 -38 52 -95 79 -127l-21 -21c-32 10 -96 53 -118 73l-158 -72zM37 232h41c-12 -101 0 -189 129 -189c119 0 160 66 160 134c0 76 -55 94 -128 129c-77 37 -124 68 -124 175c0 109 94 219 265 219c110 0 169 -56 169 -134c0 -27 -7 -51 -18 -71h-45
c12 63 19 152 -112 152c-125 0 -159 -68 -159 -126c0 -76 43 -92 114 -116c80 -28 150 -61 150 -178c0 -111 -88 -237 -274 -237c-147 0 -191 82 -191 157c0 30 7 59 23 85z" />
    <glyph glyph-name="Scaron" unicode="&#x160;" horiz-adv-x="578" 
d="M279 855l35 25c36 -13 71 -41 114 -79l155 77l15 -28l-208 -119h-25c-33 66 -65 100 -86 124zM37 232h41c-12 -101 0 -189 129 -189c119 0 160 66 160 134c0 76 -55 94 -128 129c-77 37 -124 68 -124 175c0 109 94 219 265 219c110 0 169 -56 169 -134
c0 -27 -7 -51 -18 -71h-45c12 63 19 152 -112 152c-125 0 -159 -68 -159 -126c0 -76 43 -92 114 -116c80 -28 150 -61 150 -178c0 -111 -88 -237 -274 -237c-147 0 -191 82 -191 157c0 30 7 59 23 85z" />
    <glyph glyph-name="Scedilla" unicode="&#x15e;" horiz-adv-x="578" 
d="M98 -115h21c0 -28 9 -49 39 -49c27 0 45 18 45 48c0 21 -13 35 -36 35c-7 0 -14 -1 -20 -3l-18 18l31 59c-111 15 -146 87 -146 154c0 30 7 59 23 85h41c-12 -101 0 -189 129 -189c119 0 160 66 160 134c0 76 -55 94 -128 129c-77 37 -124 68 -124 175
c0 109 94 219 265 219c110 0 169 -56 169 -134c0 -27 -7 -51 -18 -71h-45c12 63 19 152 -112 152c-125 0 -159 -68 -159 -126c0 -76 43 -92 114 -116c80 -28 150 -61 150 -178c0 -111 -88 -237 -274 -237h-11l-13 -38c52 8 81 -19 81 -61c0 -57 -46 -91 -98 -91
c-63 0 -74 50 -66 85z" />
    <glyph glyph-name="Scommaaccent" unicode="&#x218;" horiz-adv-x="578" 
d="M37 232h41c-12 -101 0 -189 129 -189c119 0 160 66 160 134c0 76 -55 94 -128 129c-77 37 -124 68 -124 175c0 109 94 219 265 219c110 0 169 -56 169 -134c0 -27 -7 -51 -18 -71h-45c12 63 19 152 -112 152c-125 0 -159 -68 -159 -126c0 -76 43 -92 114 -116
c80 -28 150 -61 150 -178c0 -111 -88 -237 -274 -237c-147 0 -191 82 -191 157c0 30 7 59 23 85zM101 -220c21 37 55 117 62 166h78c-9 -56 -63 -146 -108 -178z" />
    <glyph glyph-name="Tcaron" unicode="&#x164;" horiz-adv-x="561" 
d="M305 855l35 25c36 -13 71 -41 114 -79l155 77l15 -28l-208 -119h-25c-33 66 -65 100 -86 124zM522 607h-114l-189 -607h-35c-12 38 -22 100 -22 139c0 165 130 337 183 468h-149c-66 0 -90 -2 -115 -38h-24c9 55 43 128 177 128c106 0 252 -30 337 -30c29 0 81 -4 97 31
h25c-8 -54 -52 -91 -171 -91z" />
    <glyph glyph-name="Tcommaaccent" unicode="&#x21a;" horiz-adv-x="561" 
d="M522 607h-114l-189 -607h-35c-12 38 -22 100 -22 139c0 165 130 337 183 468h-149c-66 0 -90 -2 -115 -38h-24c9 55 43 128 177 128c106 0 252 -30 337 -30c29 0 81 -4 97 31h25c-8 -54 -52 -91 -171 -91zM94 -220c21 37 55 117 62 166h78c-9 -56 -63 -146 -108 -178z
" />
    <glyph glyph-name="Tcedilla" unicode="&#x162;" horiz-adv-x="561" 
d="M119 -115h21c0 -28 9 -49 39 -49c27 0 45 18 45 48c0 21 -13 35 -36 35c-7 0 -14 -1 -20 -3l-18 18l35 66h-1c-12 38 -22 100 -22 139c0 165 130 337 183 468h-149c-66 0 -90 -2 -115 -38h-24c9 55 43 128 177 128c106 0 252 -30 337 -30c29 0 81 -4 97 31h25
c-8 -54 -52 -91 -171 -91h-114l-189 -607l-17 -48c52 8 81 -19 81 -61c0 -57 -46 -91 -98 -91c-63 0 -74 50 -66 85z" />
    <glyph glyph-name="Tbar" unicode="&#x166;" horiz-adv-x="561" 
d="M112 364h111c41 88 93 171 122 243h-149c-66 0 -90 -2 -115 -38h-24c9 55 43 128 177 128c106 0 252 -30 337 -30c29 0 81 -4 97 31h25c-8 -54 -52 -91 -171 -91h-114l-76 -243h119l-22 -55h-114l-96 -309h-35c-12 38 -22 100 -22 139c0 57 15 114 37 170h-109z" />
    <glyph glyph-name="Ugrave" unicode="&#xd9;" horiz-adv-x="678" 
d="M322 823c0 18 14 46 44 46c40 0 88 -60 158 -114l-13 -22c-94 38 -189 43 -189 90zM39 188c0 184 127 297 206 502h44c-4 -59 -21 -132 -46 -213l-58 -185c-20 -65 -34 -120 -32 -162c1 -57 29 -90 100 -90c118 0 189 81 238 293l82 357h37c13 -57 25 -127 25 -193
c0 -207 -140 -507 -382 -507c-136 0 -214 71 -214 198z" />
    <glyph glyph-name="Uacute" unicode="&#xda;" horiz-adv-x="678" 
d="M384 765c98 51 148 105 193 105c23 0 40 -19 40 -43c0 -23 -16 -37 -39 -44c-30 -7 -116 -23 -184 -44zM39 188c0 184 127 297 206 502h44c-4 -59 -21 -132 -46 -213l-58 -185c-20 -65 -34 -120 -32 -162c1 -57 29 -90 100 -90c118 0 189 81 238 293l82 357h37
c13 -57 25 -127 25 -193c0 -207 -140 -507 -382 -507c-136 0 -214 71 -214 198z" />
    <glyph glyph-name="Ucircumflex" unicode="&#xdb;" horiz-adv-x="678" 
d="M282 759l209 119h25c17 -38 52 -95 79 -127l-21 -21c-32 10 -96 53 -118 73l-158 -72zM39 188c0 184 127 297 206 502h44c-4 -59 -21 -132 -46 -213l-58 -185c-20 -65 -34 -120 -32 -162c1 -57 29 -90 100 -90c118 0 189 81 238 293l82 357h37c13 -57 25 -127 25 -193
c0 -207 -140 -507 -382 -507c-136 0 -214 71 -214 198z" />
    <glyph glyph-name="Utilde" unicode="&#x168;" horiz-adv-x="678" 
d="M530 804c38 0 48 25 52 65h28c0 -89 -49 -127 -118 -127c-76 0 -86 67 -144 67c-38 0 -47 -25 -53 -64h-27c0 87 47 127 116 127c81 0 93 -68 146 -68zM39 188c0 184 127 297 206 502h44c-4 -59 -21 -132 -46 -213l-58 -185c-20 -65 -34 -120 -32 -162
c1 -57 29 -90 100 -90c118 0 189 81 238 293l82 357h37c13 -57 25 -127 25 -193c0 -207 -140 -507 -382 -507c-136 0 -214 71 -214 198z" />
    <glyph glyph-name="Udieresis" unicode="&#xdc;" horiz-adv-x="678" 
d="M309 788c0 37 30 59 61 59c26 0 41 -17 41 -40c0 -35 -30 -58 -62 -58c-26 0 -40 17 -40 39zM487 788c0 37 30 59 60 59c27 0 41 -17 41 -40c0 -35 -29 -58 -61 -58c-26 0 -40 17 -40 39zM39 188c0 184 127 297 206 502h44c-4 -59 -21 -132 -46 -213l-58 -185
c-20 -65 -34 -120 -32 -162c1 -57 29 -90 100 -90c118 0 189 81 238 293l82 357h37c13 -57 25 -127 25 -193c0 -207 -140 -507 -382 -507c-136 0 -214 71 -214 198z" />
    <glyph glyph-name="Umacron" unicode="&#x16a;" horiz-adv-x="678" 
d="M318 833h288l-26 -57h-288zM39 188c0 184 127 297 206 502h44c-4 -59 -21 -132 -46 -213l-58 -185c-20 -65 -34 -120 -32 -162c1 -57 29 -90 100 -90c118 0 189 81 238 293l82 357h37c13 -57 25 -127 25 -193c0 -207 -140 -507 -382 -507c-136 0 -214 71 -214 198z" />
    <glyph glyph-name="Ubreve" unicode="&#x16c;" horiz-adv-x="678" 
d="M362 880h28c-6 -42 4 -84 73 -84c66 0 116 39 145 84h33c-30 -77 -103 -144 -208 -144c-65 0 -92 29 -97 59s4 58 26 85zM39 188c0 184 127 297 206 502h44c-4 -59 -21 -132 -46 -213l-58 -185c-20 -65 -34 -120 -32 -162c1 -57 29 -90 100 -90c118 0 189 81 238 293
l82 357h37c13 -57 25 -127 25 -193c0 -207 -140 -507 -382 -507c-136 0 -214 71 -214 198z" />
    <glyph glyph-name="Uring" unicode="&#x16e;" horiz-adv-x="678" 
d="M336 805c0 61 52 112 124 112c63 0 97 -38 97 -87c0 -64 -54 -112 -124 -112c-67 0 -97 38 -97 87zM498 825c0 30 -14 54 -44 54c-34 0 -58 -29 -58 -71c0 -29 13 -52 44 -52c34 0 58 31 58 69zM39 188c0 184 127 297 206 502h44c-4 -59 -21 -132 -46 -213l-58 -185
c-20 -65 -34 -120 -32 -162c1 -57 29 -90 100 -90c118 0 189 81 238 293l82 357h37c13 -57 25 -127 25 -193c0 -207 -140 -507 -382 -507c-136 0 -214 71 -214 198z" />
    <glyph glyph-name="Uhungarumlaut" unicode="&#x170;" horiz-adv-x="678" 
d="M317 740l136 141l75 -35l-183 -130zM494 740l136 141l74 -35l-182 -130zM39 188c0 184 127 297 206 502h44c-4 -59 -21 -132 -46 -213l-58 -185c-20 -65 -34 -120 -32 -162c1 -57 29 -90 100 -90c118 0 189 81 238 293l82 357h37c13 -57 25 -127 25 -193
c0 -207 -140 -507 -382 -507c-136 0 -214 71 -214 198z" />
    <glyph glyph-name="Uogonek" unicode="&#x172;" horiz-adv-x="678" 
d="M39 188c0 184 127 297 206 502h44c-4 -59 -21 -132 -46 -213l-58 -185c-20 -65 -34 -120 -32 -162c1 -57 29 -90 100 -90c118 0 189 81 238 293l82 357h37c13 -57 25 -127 25 -193c0 -150 -73 -349 -206 -447c-74 -61 -107 -123 -107 -166c0 -27 9 -41 31 -41
c24 0 36 18 42 41h25c-9 -54 -38 -93 -98 -93c-49 0 -73 31 -73 77c0 55 32 94 77 132c-23 -7 -47 -10 -73 -10c-136 0 -214 71 -214 198z" />
    <glyph glyph-name="Wgrave" unicode="&#x1e80;" horiz-adv-x="870" 
d="M406 823c0 18 14 46 44 46c40 0 88 -60 158 -114l-13 -22c-94 38 -189 43 -189 90zM156 74c130 168 308 368 348 616h31c29 -51 21 -172 6 -258l-61 -344l117 136c94 110 195 261 195 466h35c40 -42 55 -79 55 -136c0 -103 -117 -251 -220 -359l-189 -199h-38
c-26 65 -42 152 -25 321c-71 -109 -158 -216 -255 -321h-49c-33 66 -51 126 -51 203c0 151 106 295 147 491h41c0 -115 -11 -212 -25 -288z" />
    <glyph glyph-name="Wacute" unicode="&#x1e82;" horiz-adv-x="870" 
d="M501 765c98 51 148 105 193 105c23 0 40 -19 40 -43c0 -23 -16 -37 -39 -44c-30 -7 -116 -23 -184 -44zM156 74c130 168 308 368 348 616h31c29 -51 21 -172 6 -258l-61 -344l117 136c94 110 195 261 195 466h35c40 -42 55 -79 55 -136c0 -103 -117 -251 -220 -359
l-189 -199h-38c-26 65 -42 152 -25 321c-71 -109 -158 -216 -255 -321h-49c-33 66 -51 126 -51 203c0 151 106 295 147 491h41c0 -115 -11 -212 -25 -288z" />
    <glyph glyph-name="Wcircumflex" unicode="&#x174;" horiz-adv-x="870" 
d="M387 759l209 119h25c17 -38 52 -95 79 -127l-21 -21c-32 10 -96 53 -118 73l-158 -72zM156 74c130 168 308 368 348 616h31c29 -51 21 -172 6 -258l-61 -344l117 136c94 110 195 261 195 466h35c40 -42 55 -79 55 -136c0 -103 -117 -251 -220 -359l-189 -199h-38
c-26 65 -42 152 -25 321c-71 -109 -158 -216 -255 -321h-49c-33 66 -51 126 -51 203c0 151 106 295 147 491h41c0 -115 -11 -212 -25 -288z" />
    <glyph glyph-name="Wdieresis" unicode="&#x1e84;" horiz-adv-x="870" 
d="M402 788c0 37 30 59 61 59c26 0 41 -17 41 -40c0 -35 -30 -58 -62 -58c-26 0 -40 17 -40 39zM580 788c0 37 30 59 60 59c27 0 41 -17 41 -40c0 -35 -29 -58 -61 -58c-26 0 -40 17 -40 39zM156 74c130 168 308 368 348 616h31c29 -51 21 -172 6 -258l-61 -344l117 136
c94 110 195 261 195 466h35c40 -42 55 -79 55 -136c0 -103 -117 -251 -220 -359l-189 -199h-38c-26 65 -42 152 -25 321c-71 -109 -158 -216 -255 -321h-49c-33 66 -51 126 -51 203c0 151 106 295 147 491h41c0 -115 -11 -212 -25 -288z" />
    <glyph glyph-name="Ygrave" unicode="&#x1ef2;" horiz-adv-x="523" 
d="M260 823c0 18 14 46 44 46c40 0 88 -60 158 -114l-13 -22c-94 38 -189 43 -189 90zM169 0h-35c-17 24 -34 66 -34 103c0 72 39 119 95 192l-53 101c-65 138 -48 232 28 294h22c-15 -74 -5 -106 29 -184l55 -124l241 308h29c16 -18 22 -36 22 -54
c0 -66 -164 -187 -266 -305c-37 -42 -62 -83 -80 -147z" />
    <glyph glyph-name="Yacute" unicode="&#xdd;" horiz-adv-x="523" 
d="M329 765c98 51 148 105 193 105c23 0 40 -19 40 -43c0 -23 -16 -37 -39 -44c-30 -7 -116 -23 -184 -44zM169 0h-35c-17 24 -34 66 -34 103c0 72 39 119 95 192l-53 101c-65 138 -48 232 28 294h22c-15 -74 -5 -106 29 -184l55 -124l241 308h29c16 -18 22 -36 22 -54
c0 -66 -164 -187 -266 -305c-37 -42 -62 -83 -80 -147z" />
    <glyph glyph-name="Ycircumflex" unicode="&#x176;" horiz-adv-x="523" 
d="M218 759l209 119h25c17 -38 52 -95 79 -127l-21 -21c-32 10 -96 53 -118 73l-158 -72zM169 0h-35c-17 24 -34 66 -34 103c0 72 39 119 95 192l-53 101c-65 138 -48 232 28 294h22c-15 -74 -5 -106 29 -184l55 -124l241 308h29c16 -18 22 -36 22 -54
c0 -66 -164 -187 -266 -305c-37 -42 -62 -83 -80 -147z" />
    <glyph glyph-name="Ydieresis" unicode="&#x178;" horiz-adv-x="523" 
d="M250 788c0 37 30 59 61 59c26 0 41 -17 41 -40c0 -35 -30 -58 -62 -58c-26 0 -40 17 -40 39zM428 788c0 37 30 59 60 59c27 0 41 -17 41 -40c0 -35 -29 -58 -61 -58c-26 0 -40 17 -40 39zM169 0h-35c-17 24 -34 66 -34 103c0 72 39 119 95 192l-53 101
c-65 138 -48 232 28 294h22c-15 -74 -5 -106 29 -184l55 -124l241 308h29c16 -18 22 -36 22 -54c0 -66 -164 -187 -266 -305c-37 -42 -62 -83 -80 -147z" />
    <glyph glyph-name="Zacute" unicode="&#x179;" horiz-adv-x="594" 
d="M321 763c98 51 148 105 193 105c23 0 40 -19 40 -43c0 -23 -16 -37 -39 -44c-30 -7 -116 -23 -184 -44zM-9 1l-26 28c169 243 374 450 523 576h-211c-77 0 -110 -2 -129 -37h-27c0 46 38 129 144 129c69 0 222 -34 281 -44c18 14 36 27 51 38l27 -26
c-109 -135 -363 -417 -529 -574h224c72 0 130 3 142 35h24c0 -95 -57 -133 -133 -133c-59 0 -228 35 -315 46c-17 -15 -33 -28 -46 -38z" />
    <glyph glyph-name="Zcaron" unicode="&#x17d;" horiz-adv-x="594" 
d="M268 855l35 25c36 -13 71 -41 114 -79l155 77l15 -28l-208 -119h-25c-33 66 -65 100 -86 124zM-9 1l-26 28c169 243 374 450 523 576h-211c-77 0 -110 -2 -129 -37h-27c0 46 38 129 144 129c69 0 222 -34 281 -44c18 14 36 27 51 38l27 -26
c-109 -135 -363 -417 -529 -574h224c72 0 130 3 142 35h24c0 -95 -57 -133 -133 -133c-59 0 -228 35 -315 46c-17 -15 -33 -28 -46 -38z" />
    <glyph glyph-name="Zdotaccent" unicode="&#x17b;" horiz-adv-x="594" 
d="M334 798c0 31 25 56 55 56c31 0 57 -25 57 -56s-26 -56 -57 -56c-30 0 -55 25 -55 56zM-9 1l-26 28c169 243 374 450 523 576h-211c-77 0 -110 -2 -129 -37h-27c0 46 38 129 144 129c69 0 222 -34 281 -44c18 14 36 27 51 38l27 -26c-109 -135 -363 -417 -529 -574h224
c72 0 130 3 142 35h24c0 -95 -57 -133 -133 -133c-59 0 -228 35 -315 46c-17 -15 -33 -28 -46 -38z" />
    <glyph glyph-name="Schwa" unicode="&#x18f;" horiz-adv-x="680" 
d="M227 -9c-146 0 -191 77 -191 155c0 183 238 199 413 199c42 93 93 122 93 196c0 69 -55 104 -149 104c-125 0 -193 -62 -207 -176h-50c0 136 108 230 262 230c157 0 242 -79 242 -228c0 -234 -190 -480 -413 -480zM249 43c53 0 85 18 105 50c38 61 52 135 82 208
c-217 0 -248 -59 -263 -162c-7 -49 10 -96 76 -96z" />
    <glyph glyph-name="Eng" unicode="&#x14a;" horiz-adv-x="701" 
d="M266 -180c-66 0 -107 35 -107 88c0 23 5 40 14 59h40c-8 -63 8 -96 62 -96c62 0 85 56 85 119c0 172 -104 377 -125 538l-164 -528h-20c-11 30 -21 83 -21 127c0 175 142 335 220 563h25c41 -151 127 -335 174 -569l177 569h19c17 -40 26 -84 26 -133
c0 -129 -130 -331 -233 -558c-44 -96 -58 -179 -172 -179z" />
    <glyph glyph-name="Eth" unicode="&#xd0;" horiz-adv-x="714" 
d="M12 394h91c40 108 90 211 122 296h162c224 0 284 -130 284 -249c0 -210 -185 -441 -467 -441h-159v118c0 73 16 148 39 221h-94zM120 52h56c166 0 255 48 319 231c51 146 63 158 63 218c0 66 -40 138 -165 138h-111c-10 -66 -30 -155 -54 -245h158l-22 -55h-152l-15 -48z
" />
    <glyph glyph-name="Thorn" unicode="&#xde;" horiz-adv-x="608" 
d="M65 0c-13 39 -19 99 -19 148c0 207 135 343 201 542h35c0 -19 -4 -64 -16 -128c37 2 78 3 104 3c125 0 206 -58 206 -171c0 -144 -126 -265 -291 -265c-33 0 -105 7 -139 15l-48 -144h-33zM265 183c57 0 105 18 124 47c19 30 22 50 46 110c21 53 34 70 34 103
c0 38 -26 74 -131 74c-27 0 -61 -3 -82 -5c-13 -62 -31 -134 -58 -214l-35 -103c23 -6 66 -12 102 -12z" />
    <glyph glyph-name="a" unicode="a" horiz-adv-x="501" 
d="M320 -10c-62 0 -91 27 -99 80c-33 -54 -72 -80 -139 -80c-65 0 -105 42 -105 104c0 109 114 158 216 173c33 5 67 12 92 21c36 13 50 44 50 76c0 39 -24 75 -83 75c-66 0 -108 -39 -116 -104h-43c-4 94 71 150 181 150c99 0 154 -56 154 -132c0 -100 -118 -205 -118 -276
c0 -31 11 -42 35 -42c21 0 37 8 42 40h25c2 -49 -28 -85 -92 -85zM137 49c50 0 75 66 99 118c14 30 27 58 49 85c-33 -12 -70 -17 -98 -25c-40 -9 -79 -35 -92 -89c-12 -49 0 -89 42 -89z" />
    <glyph glyph-name="b" unicode="b" horiz-adv-x="549" 
d="M214 -10c-81 0 -107 59 -111 121l-33 -111h-21c-26 48 -34 106 -34 145c0 189 186 300 186 496c0 14 -4 42 -12 60l31 9c22 -33 34 -69 34 -126c0 -39 -15 -116 -45 -180c31 47 81 81 141 81c87 0 137 -55 137 -146c0 -155 -119 -349 -273 -349zM338 229
c36 86 73 104 73 149c0 38 -30 59 -71 59c-83 0 -156 -96 -196 -251c-22 -86 12 -147 70 -147c91 0 84 94 124 190z" />
    <glyph glyph-name="c" unicode="c" horiz-adv-x="449" 
d="M283 485c84 0 126 -45 126 -97c0 -49 -33 -69 -66 -69c-8 0 -16 1 -24 4v18c18 11 34 21 34 50c0 32 -22 55 -68 55c-86 0 -82 -88 -130 -200c-40 -94 -64 -95 -64 -144c0 -41 39 -64 86 -64c77 0 126 36 128 119h39c8 -105 -66 -167 -171 -167c-109 0 -170 75 -170 181
c0 159 130 314 280 314z" />
    <glyph glyph-name="d" unicode="d" horiz-adv-x="549" 
d="M334 0c-13 31 -17 93 -14 124c-43 -89 -97 -135 -182 -135c-82 0 -135 51 -135 148c0 148 120 348 266 348c61 0 105 -25 122 -85c34 79 88 163 88 248c0 10 -3 35 -12 53l30 9c24 -34 34 -79 34 -125c0 -84 -19 -143 -62 -274l-103 -311h-32zM345 285
c24 85 -4 155 -65 155c-35 0 -52 -15 -64 -31c-27 -36 -29 -79 -61 -157c-35 -86 -75 -100 -75 -156c0 -35 24 -58 66 -58c80 0 153 82 199 247z" />
    <glyph glyph-name="e" unicode="e" horiz-adv-x="468" 
d="M346 157c6 -105 -63 -167 -170 -167c-122 0 -173 73 -173 180c0 161 149 315 286 315c88 0 136 -45 136 -112c0 -57 -39 -101 -96 -119c-46 -15 -109 -21 -199 -19c-33 -69 -48 -80 -48 -122c0 -48 36 -75 95 -75c86 0 125 37 130 119h39zM277 447
c-67 0 -78 -61 -135 -180c35 0 91 0 123 18c29 16 39 44 46 61c22 58 15 101 -34 101z" />
    <glyph glyph-name="f" unicode="f" horiz-adv-x="328" 
d="M91 0h-32c-28 59 -34 95 -34 144c0 128 109 223 132 291h-92v40h95c0 36 -22 60 -22 105c0 69 48 130 150 130c74 0 110 -44 110 -90c0 -22 -5 -37 -13 -52h-34c9 53 -4 97 -63 97c-54 0 -75 -33 -75 -79c0 -47 24 -66 24 -111h102v-40h-104c-9 -37 -31 -96 -49 -149z
" />
    <glyph glyph-name="g" unicode="g" horiz-adv-x="528" 
d="M92 -250c-132 0 -177 51 -177 113c0 23 12 47 32 63h27c-2 -12 -3 -23 -3 -35c0 -50 26 -98 135 -98c115 0 171 51 171 104c0 45 -29 67 -91 71l-60 4c-84 6 -152 18 -152 97c0 53 39 102 130 121c-26 21 -46 53 -46 106c0 99 87 189 217 189c83 0 123 -37 139 -72
c12 49 47 62 77 62c41 0 57 -27 57 -52c0 -14 -5 -28 -11 -37h-29c9 30 3 51 -18 51c-20 0 -34 -15 -44 -68l-8 -42c-18 -97 -94 -174 -224 -174c-28 0 -48 4 -69 9c-67 -5 -106 -33 -106 -66c0 -23 18 -31 71 -31h99c102 0 157 -36 157 -116c0 -98 -84 -199 -274 -199z
M321 298c17 46 29 66 29 89c0 38 -22 63 -75 63c-59 0 -69 -46 -93 -111c-14 -39 -30 -60 -30 -85c0 -32 20 -65 74 -65c59 0 74 52 95 109z" />
    <glyph glyph-name="h" unicode="h" horiz-adv-x="542" 
d="M81 0h-32c-24 46 -34 87 -34 143c0 196 181 301 181 495c0 16 -3 42 -12 63l31 9c22 -33 34 -73 34 -116c0 -70 -30 -154 -70 -233l3 -5c37 72 91 129 174 129c88 0 130 -62 130 -134c0 -171 -161 -223 -161 -295c0 -14 8 -26 28 -35l-24 -29c-48 23 -69 62 -69 99
c0 140 137 184 137 292c0 22 -14 48 -56 48c-88 0 -165 -128 -205 -256z" />
    <glyph glyph-name="i" unicode="i" horiz-adv-x="260" 
d="M193 592c-29 0 -51 19 -51 47c0 39 28 64 63 64c30 0 51 -20 51 -48c0 -38 -27 -63 -63 -63zM131 474l30 8c30 -32 36 -61 36 -98c0 -59 -43 -153 -74 -253l-41 -131h-32c-21 48 -34 88 -34 130c0 143 126 202 126 305c0 12 -4 28 -11 39z" />
    <glyph glyph-name="j" unicode="j" horiz-adv-x="282" 
d="M213 592c-29 0 -51 19 -51 47c0 39 28 64 63 64c30 0 51 -20 51 -48c0 -38 -27 -63 -63 -63zM-138 -110h39c-10 -45 -11 -94 48 -94c55 0 84 63 84 178v129c0 187 134 221 134 331c0 14 -5 30 -11 40l28 8c28 -22 38 -55 38 -92c0 -59 -20 -97 -48 -188l-71 -230
c-33 -105 -39 -222 -158 -222c-67 0 -95 42 -95 85c0 20 5 39 12 55z" />
    <glyph glyph-name="k" unicode="k" horiz-adv-x="521" 
d="M325 -8c-53 15 -92 52 -92 108c0 94 115 109 115 164c0 20 -17 34 -45 34c-63 0 -139 -35 -195 -212l-27 -86h-32c-25 51 -34 88 -34 141c0 201 182 299 182 501c0 24 -8 50 -12 59l31 9c25 -34 34 -85 34 -119c0 -70 -38 -165 -69 -240l-32 -78l5 -4
c55 104 137 216 245 216c71 0 94 -38 94 -70c0 -34 -22 -57 -53 -57c-9 0 -20 2 -26 7v17c14 5 23 15 23 31s-12 32 -41 32c-56 0 -115 -41 -176 -138c24 18 55 28 94 28c58 0 109 -35 109 -106c0 -91 -105 -120 -105 -177c0 -14 9 -30 24 -39z" />
    <glyph glyph-name="l" unicode="l" horiz-adv-x="268" 
d="M185 701l31 9c22 -30 34 -71 34 -117c0 -80 -25 -156 -66 -281l-103 -312h-32c-27 49 -34 95 -34 144c0 198 182 296 182 494c0 30 -8 53 -12 63z" />
    <glyph glyph-name="m" unicode="m" horiz-adv-x="817" 
d="M131 156l-49 -156h-32c-26 52 -34 99 -34 134c0 150 115 215 115 299c0 16 -6 32 -11 41l28 8c34 -23 42 -74 36 -123c37 73 93 126 175 126c83 0 111 -50 111 -111c37 72 88 111 168 111c84 0 124 -61 124 -133c0 -172 -161 -224 -161 -296c0 -15 10 -25 28 -35l-24 -29
c-37 19 -69 51 -69 102c0 134 137 185 137 290c0 31 -22 47 -53 47c-84 0 -168 -103 -221 -274l-49 -157h-32c-28 54 -34 105 -34 139c0 138 99 188 99 255c0 19 -10 37 -41 37c-79 0 -159 -109 -211 -275z" />
    <glyph glyph-name="n" unicode="n" horiz-adv-x="543" 
d="M132 160l-50 -160h-32c-24 46 -34 92 -34 140c0 144 115 206 115 294c0 9 -3 26 -11 40l28 8c32 -24 42 -64 36 -123c38 74 96 126 174 126c87 0 129 -61 129 -133c0 -173 -161 -225 -161 -296c0 -16 10 -26 28 -35l-24 -29c-37 18 -69 50 -69 102c0 133 137 184 137 289
c0 30 -21 48 -56 48c-86 0 -164 -124 -210 -271z" />
    <glyph glyph-name="o" unicode="o" horiz-adv-x="513" 
d="M3 154c0 147 133 331 287 331c104 0 166 -61 166 -164c0 -147 -133 -331 -287 -331c-104 0 -166 59 -166 164zM312 231c34 82 64 99 64 144c0 37 -27 70 -84 70c-92 0 -103 -100 -145 -201c-34 -82 -64 -99 -64 -144c0 -37 26 -70 83 -70c92 0 104 100 146 201z" />
    <glyph glyph-name="p" unicode="p" horiz-adv-x="558" 
d="M230 -10c-64 0 -106 38 -115 97l-100 -328h-29c-23 41 -36 94 -36 151c0 192 169 297 169 493c0 16 -5 56 -13 71l27 8c34 -20 55 -60 59 -99c42 68 93 102 161 102c85 0 143 -50 143 -148c0 -155 -123 -347 -266 -347zM347 228c36 86 73 104 73 149c0 38 -29 60 -72 60
c-79 0 -152 -88 -195 -252c-23 -86 12 -147 70 -147c91 0 84 94 124 190z" />
    <glyph glyph-name="q" unicode="q" horiz-adv-x="540" 
d="M261 -248c-17 22 -34 66 -34 127c0 39 3 90 52 186l-3 4c-38 -53 -76 -79 -143 -79c-94 0 -130 68 -130 151c0 146 118 344 272 344c72 0 104 -38 116 -61l81 26v-26c0 -287 -192 -426 -192 -601c0 -23 5 -43 12 -62zM343 285c26 94 4 155 -65 155c-35 0 -52 -15 -64 -31
c-27 -36 -29 -79 -61 -157c-35 -86 -75 -101 -75 -157c0 -35 23 -57 69 -57c80 0 150 81 196 247z" />
    <glyph glyph-name="r" unicode="r" horiz-adv-x="444" 
d="M133 164l-51 -164h-32c-24 49 -34 91 -34 140c0 140 115 209 115 295c0 13 -6 31 -11 39l28 8c31 -23 41 -68 36 -123c36 73 84 126 156 126c58 0 89 -36 89 -83c0 -69 -66 -87 -66 -122c0 -9 2 -14 5 -19l-10 -8c-31 0 -69 15 -69 58c0 41 27 61 54 79c12 8 18 14 18 24
s-6 22 -28 22c-81 0 -154 -125 -200 -272z" />
    <glyph glyph-name="s" unicode="s" horiz-adv-x="432" 
d="M-3 161h37c-14 -79 6 -126 99 -126c74 0 101 38 101 82c0 45 -36 59 -80 80c-51 24 -95 51 -95 129c0 82 68 159 187 159c76 0 125 -39 125 -97c0 -24 -7 -39 -15 -52h-37c13 61 -6 104 -81 104c-72 0 -97 -40 -97 -78c0 -52 37 -60 87 -78c53 -19 99 -48 99 -127
c0 -89 -82 -167 -197 -167c-99 0 -143 47 -147 109c-1 20 4 44 14 62z" />
    <glyph glyph-name="t" unicode="t" horiz-adv-x="380" 
d="M20 128c0 112 109 201 160 307h-95v40h111c7 21 11 42 11 65c0 21 -6 42 -9 51l30 8c26 -35 30 -77 30 -114v-10h107v-40h-112c-25 -121 -126 -231 -126 -345c0 -33 16 -55 52 -55c54 0 83 39 83 122h36c13 -88 -27 -167 -132 -167c-98 0 -146 61 -146 138z" />
    <glyph glyph-name="u" unicode="u" horiz-adv-x="542" 
d="M355 315l50 161h32c24 -46 34 -93 34 -141c0 -144 -115 -206 -115 -294c0 -9 3 -26 11 -40l-28 -8c-32 24 -42 64 -36 123c-38 -74 -96 -126 -174 -126c-87 0 -129 61 -129 133c0 160 164 235 164 309c0 16 -8 26 -18 33l25 19c34 -20 55 -47 55 -99
c0 -139 -137 -192 -137 -293c0 -30 22 -49 57 -49c89 0 163 125 209 272z" />
    <glyph glyph-name="v" unicode="v" horiz-adv-x="469" 
d="M94 0h-20c-28 53 -49 103 -49 170c0 121 90 171 90 266c0 11 -2 25 -11 38l30 8c20 -19 36 -47 36 -97c0 -48 -14 -110 -30 -185l-21 -111h5c184 195 218 276 218 342c0 16 -2 30 -8 44l16 6c45 -11 84 -49 84 -113c0 -106 -156 -194 -251 -281c-28 -26 -59 -53 -89 -87z
" />
    <glyph glyph-name="w" unicode="w" horiz-adv-x="699" 
d="M319 0c-27 62 -29 139 -29 200c-26 -31 -58 -67 -89 -101c-34 -37 -67 -73 -92 -99h-25c-33 59 -57 109 -57 162c0 132 98 191 98 274c0 15 -5 31 -11 38l28 8c26 -25 38 -55 38 -97c0 -56 -20 -136 -37 -225l-14 -71h5c177 186 208 265 208 331c0 14 -2 40 -13 54l17 8
c44 -19 70 -62 70 -121c0 -34 -9 -85 -36 -205l-15 -67h4c144 153 195 274 195 341c0 14 -1 29 -8 45l16 6c44 -10 84 -53 84 -113c0 -106 -145 -211 -217 -272c-31 -26 -75 -67 -99 -96h-21z" />
    <glyph glyph-name="x" unicode="x" horiz-adv-x="434" 
d="M244 -10c-93 0 -116 78 -112 175l-144 -165h-17c-8 13 -11 26 -11 38c0 63 104 106 176 182c14 65 33 124 33 181c0 27 -10 45 -41 45c-23 0 -45 -13 -53 -20l-14 25s30 34 89 34c54 0 107 -37 107 -161l133 160h17c8 -12 12 -24 12 -36c0 -54 -101 -105 -163 -167
c-3 -83 -13 -129 -13 -199c0 -37 17 -48 37 -48c21 0 39 13 47 20l14 -25s-33 -39 -97 -39z" />
    <glyph glyph-name="y" unicode="y" horiz-adv-x="473" 
d="M438 370c0 -117 -193 -227 -276 -299c-23 -20 -58 -54 -78 -141c-25 -108 -47 -180 -136 -180c-65 0 -85 39 -87 81c-1 21 4 42 12 56h36c-2 -11 -4 -21 -4 -33c0 -31 9 -58 47 -58c55 0 80 64 80 157v209c0 148 88 189 88 274c0 20 -6 31 -11 38l29 8
c26 -25 37 -54 37 -97c0 -39 -13 -113 -37 -218l-16 -70h6c174 176 218 251 218 331c0 13 -1 29 -8 47l15 6c51 -11 85 -55 85 -111z" />
    <glyph glyph-name="z" unicode="z" horiz-adv-x="430" 
d="M347 106c0 0 -20 -114 -125 -114c-78 0 -127 29 -174 29c-51 0 -78 -26 -78 -26l-23 30s22 34 55 67l297 300h-140c-54 0 -78 -19 -93 -34l-21 17s36 105 131 105c58 0 112 -23 159 -23c45 0 79 23 79 23l20 -29s-31 -32 -63 -64l-305 -306h163c60 0 77 15 99 37z" />
    <glyph glyph-name="agrave" unicode="&#xe0;" horiz-adv-x="501" 
d="M177 707c0 20 21 42 45 42c44 0 65 -93 120 -176l-20 -19c-67 70 -145 111 -145 153zM320 -10c-62 0 -91 27 -99 80c-33 -54 -72 -80 -139 -80c-65 0 -105 42 -105 104c0 109 114 158 216 173c33 5 67 12 92 21c36 13 50 44 50 76c0 39 -24 75 -83 75
c-66 0 -108 -39 -116 -104h-43c-4 94 71 150 181 150c99 0 154 -56 154 -132c0 -100 -118 -205 -118 -276c0 -31 11 -42 35 -42c21 0 37 8 42 40h25c2 -49 -28 -85 -92 -85zM137 49c50 0 75 66 99 118c14 30 27 58 49 85c-33 -12 -70 -17 -98 -25c-40 -9 -79 -35 -92 -89
c-12 -49 0 -89 42 -89z" />
    <glyph glyph-name="aacute" unicode="&#xe1;" horiz-adv-x="501" 
d="M266 573c100 97 132 171 174 171c22 0 40 -18 40 -38c0 -48 -83 -70 -199 -152zM320 -10c-62 0 -91 27 -99 80c-33 -54 -72 -80 -139 -80c-65 0 -105 42 -105 104c0 109 114 158 216 173c33 5 67 12 92 21c36 13 50 44 50 76c0 39 -24 75 -83 75
c-66 0 -108 -39 -116 -104h-43c-4 94 71 150 181 150c99 0 154 -56 154 -132c0 -100 -118 -205 -118 -276c0 -31 11 -42 35 -42c21 0 37 8 42 40h25c2 -49 -28 -85 -92 -85zM137 49c50 0 75 66 99 118c14 30 27 58 49 85c-33 -12 -70 -17 -98 -25c-40 -9 -79 -35 -92 -89
c-12 -49 0 -89 42 -89z" />
    <glyph glyph-name="acircumflex" unicode="&#xe2;" horiz-adv-x="501" 
d="M147 581l232 175h26c11 -51 41 -132 68 -182l-25 -18c-28 15 -89 84 -108 114l-179 -116zM320 -10c-62 0 -91 27 -99 80c-33 -54 -72 -80 -139 -80c-65 0 -105 42 -105 104c0 109 114 158 216 173c33 5 67 12 92 21c36 13 50 44 50 76c0 39 -24 75 -83 75
c-66 0 -108 -39 -116 -104h-43c-4 94 71 150 181 150c99 0 154 -56 154 -132c0 -100 -118 -205 -118 -276c0 -31 11 -42 35 -42c21 0 37 8 42 40h25c2 -49 -28 -85 -92 -85zM137 49c50 0 75 66 99 118c14 30 27 58 49 85c-33 -12 -70 -17 -98 -25c-40 -9 -79 -35 -92 -89
c-12 -49 0 -89 42 -89z" />
    <glyph glyph-name="atilde" unicode="&#xe3;" horiz-adv-x="501" 
d="M162 594c0 98 43 134 113 134c83 0 96 -74 148 -74c39 0 48 27 51 70h34c0 -95 -47 -132 -114 -132c-78 0 -91 74 -147 74c-39 0 -48 -29 -52 -72h-33zM320 -10c-62 0 -91 27 -99 80c-33 -54 -72 -80 -139 -80c-65 0 -105 42 -105 104c0 109 114 158 216 173
c33 5 67 12 92 21c36 13 50 44 50 76c0 39 -24 75 -83 75c-66 0 -108 -39 -116 -104h-43c-4 94 71 150 181 150c99 0 154 -56 154 -132c0 -100 -118 -205 -118 -276c0 -31 11 -42 35 -42c21 0 37 8 42 40h25c2 -49 -28 -85 -92 -85zM137 49c50 0 75 66 99 118
c14 30 27 58 49 85c-33 -12 -70 -17 -98 -25c-40 -9 -79 -35 -92 -89c-12 -49 0 -89 42 -89z" />
    <glyph glyph-name="adieresis" unicode="&#xe4;" horiz-adv-x="501" 
d="M187 655c0 37 30 60 61 60c26 0 41 -17 41 -40c0 -36 -29 -59 -62 -59c-26 0 -40 18 -40 39zM365 655c0 37 30 60 61 60c26 0 41 -17 41 -40c0 -36 -30 -59 -62 -59c-26 0 -40 18 -40 39zM320 -10c-62 0 -91 27 -99 80c-33 -54 -72 -80 -139 -80c-65 0 -105 42 -105 104
c0 109 114 158 216 173c33 5 67 12 92 21c36 13 50 44 50 76c0 39 -24 75 -83 75c-66 0 -108 -39 -116 -104h-43c-4 94 71 150 181 150c99 0 154 -56 154 -132c0 -100 -118 -205 -118 -276c0 -31 11 -42 35 -42c21 0 37 8 42 40h25c2 -49 -28 -85 -92 -85zM137 49
c50 0 75 66 99 118c14 30 27 58 49 85c-33 -12 -70 -17 -98 -25c-40 -9 -79 -35 -92 -89c-12 -49 0 -89 42 -89z" />
    <glyph glyph-name="amacron" unicode="&#x101;" horiz-adv-x="501" 
d="M202 704h287l-26 -58h-288zM320 -10c-62 0 -91 27 -99 80c-33 -54 -72 -80 -139 -80c-65 0 -105 42 -105 104c0 109 114 158 216 173c33 5 67 12 92 21c36 13 50 44 50 76c0 39 -24 75 -83 75c-66 0 -108 -39 -116 -104h-43c-4 94 71 150 181 150c99 0 154 -56 154 -132
c0 -100 -118 -205 -118 -276c0 -31 11 -42 35 -42c21 0 37 8 42 40h25c2 -49 -28 -85 -92 -85zM137 49c50 0 75 66 99 118c14 30 27 58 49 85c-33 -12 -70 -17 -98 -25c-40 -9 -79 -35 -92 -89c-12 -49 0 -89 42 -89z" />
    <glyph glyph-name="abreve" unicode="&#x103;" horiz-adv-x="501" 
d="M311 574c-64 0 -89 35 -94 72c-5 35 5 65 28 100h25c-4 -43 -2 -103 80 -103c75 0 125 57 155 103h32c-25 -79 -107 -172 -226 -172zM320 -10c-62 0 -91 27 -99 80c-33 -54 -72 -80 -139 -80c-65 0 -105 42 -105 104c0 109 114 158 216 173c33 5 67 12 92 21
c36 13 50 44 50 76c0 39 -24 75 -83 75c-66 0 -108 -39 -116 -104h-43c-4 94 71 150 181 150c99 0 154 -56 154 -132c0 -100 -118 -205 -118 -276c0 -31 11 -42 35 -42c21 0 37 8 42 40h25c2 -49 -28 -85 -92 -85zM137 49c50 0 75 66 99 118c14 30 27 58 49 85
c-33 -12 -70 -17 -98 -25c-40 -9 -79 -35 -92 -89c-12 -49 0 -89 42 -89z" />
    <glyph glyph-name="aring" unicode="&#xe5;" horiz-adv-x="501" 
d="M215 661c0 63 53 115 126 115c63 0 99 -39 99 -89c0 -66 -55 -114 -126 -114c-61 0 -99 34 -99 88zM381 686c0 30 -14 52 -45 52c-35 0 -63 -31 -63 -76c0 -29 11 -52 46 -52c40 0 62 42 62 76zM320 -10c-62 0 -91 27 -99 80c-33 -54 -72 -80 -139 -80
c-65 0 -105 42 -105 104c0 109 114 158 216 173c33 5 67 12 92 21c36 13 50 44 50 76c0 39 -24 75 -83 75c-66 0 -108 -39 -116 -104h-43c-4 94 71 150 181 150c99 0 154 -56 154 -132c0 -100 -118 -205 -118 -276c0 -31 11 -42 35 -42c21 0 37 8 42 40h25
c2 -49 -28 -85 -92 -85zM137 49c50 0 75 66 99 118c14 30 27 58 49 85c-33 -12 -70 -17 -98 -25c-40 -9 -79 -35 -92 -89c-12 -49 0 -89 42 -89z" />
    <glyph glyph-name="aringacute" unicode="&#x1fb;" horiz-adv-x="501" 
d="M290 823c98 51 148 105 193 105c23 0 40 -19 40 -43c0 -23 -16 -37 -39 -44c-30 -7 -116 -23 -184 -44zM213 634c0 63 53 115 126 115c63 0 99 -39 99 -89c0 -66 -55 -114 -126 -114c-61 0 -99 34 -99 88zM379 659c0 30 -14 52 -45 52c-35 0 -63 -31 -63 -76
c0 -29 11 -52 46 -52c40 0 62 42 62 76zM320 -10c-62 0 -91 27 -99 80c-33 -54 -72 -80 -139 -80c-65 0 -105 42 -105 104c0 109 114 158 216 173c33 5 67 12 92 21c36 13 50 44 50 76c0 39 -24 75 -83 75c-66 0 -108 -39 -116 -104h-43c-4 94 71 150 181 150
c99 0 154 -56 154 -132c0 -100 -118 -205 -118 -276c0 -31 11 -42 35 -42c21 0 37 8 42 40h25c2 -49 -28 -85 -92 -85zM137 49c50 0 75 66 99 118c14 30 27 58 49 85c-33 -12 -70 -17 -98 -25c-40 -9 -79 -35 -92 -89c-12 -49 0 -89 42 -89z" />
    <glyph glyph-name="aogonek" unicode="&#x105;" horiz-adv-x="501" 
d="M235 -137c0 52 35 89 86 127h-1c-62 0 -91 27 -99 80c-33 -54 -72 -80 -139 -80c-65 0 -105 42 -105 104c0 109 114 158 216 173c33 5 67 12 92 21c36 13 50 44 50 76c0 39 -24 75 -83 75c-66 0 -108 -39 -116 -104h-43c-4 94 71 150 181 150c99 0 154 -56 154 -132
c0 -100 -118 -205 -118 -276c0 -31 11 -42 35 -42c21 0 37 8 42 40h25c1 -27 -8 -51 -27 -66c-47 -45 -77 -89 -77 -128c0 -24 10 -38 31 -38c25 0 35 18 41 41h27c-10 -54 -38 -93 -99 -93c-48 0 -73 29 -73 72zM137 49c50 0 75 66 99 118c14 30 27 58 49 85
c-33 -12 -70 -17 -98 -25c-40 -9 -79 -35 -92 -89c-12 -49 0 -89 42 -89z" />
    <glyph glyph-name="ae" unicode="&#xe6;" horiz-adv-x="737" 
d="M442 -10c-110 0 -176 39 -189 115c-38 -75 -85 -115 -159 -115c-76 0 -117 42 -117 104c0 109 114 158 216 173c33 5 67 12 92 21c36 13 50 44 50 76c0 39 -24 75 -83 75c-66 0 -108 -39 -116 -104h-43c-4 94 71 150 181 150c68 0 110 -26 130 -67c43 45 92 67 154 67
c88 0 136 -45 136 -112c0 -57 -39 -101 -96 -119c-46 -15 -109 -21 -199 -19c-33 -69 -48 -80 -48 -122c0 -48 36 -75 95 -75c86 0 125 37 130 119h39c6 -105 -66 -167 -173 -167zM546 447c-67 0 -78 -61 -135 -180c35 0 91 0 123 18c29 16 39 44 46 61
c22 58 15 101 -34 101zM137 49c50 0 75 66 99 118c14 30 27 58 49 85c-33 -12 -70 -17 -98 -25c-40 -9 -79 -35 -92 -89c-12 -49 0 -89 42 -89z" />
    <glyph glyph-name="aeacute" unicode="&#x1fd;" horiz-adv-x="737" 
d="M455 573c100 97 132 171 174 171c22 0 40 -18 40 -38c0 -48 -83 -70 -199 -152zM442 -10c-110 0 -176 39 -189 115c-38 -75 -85 -115 -159 -115c-76 0 -117 42 -117 104c0 109 114 158 216 173c33 5 67 12 92 21c36 13 50 44 50 76c0 39 -24 75 -83 75
c-66 0 -108 -39 -116 -104h-43c-4 94 71 150 181 150c68 0 110 -26 130 -67c43 45 92 67 154 67c88 0 136 -45 136 -112c0 -57 -39 -101 -96 -119c-46 -15 -109 -21 -199 -19c-33 -69 -48 -80 -48 -122c0 -48 36 -75 95 -75c86 0 125 37 130 119h39
c6 -105 -66 -167 -173 -167zM546 447c-67 0 -78 -61 -135 -180c35 0 91 0 123 18c29 16 39 44 46 61c22 58 15 101 -34 101zM137 49c50 0 75 66 99 118c14 30 27 58 49 85c-33 -12 -70 -17 -98 -25c-40 -9 -79 -35 -92 -89c-12 -49 0 -89 42 -89z" />
    <glyph glyph-name="cacute" unicode="&#x107;" horiz-adv-x="449" 
d="M266 573c100 97 132 171 174 171c22 0 40 -18 40 -38c0 -48 -83 -70 -199 -152zM283 485c84 0 126 -45 126 -97c0 -49 -33 -69 -66 -69c-8 0 -16 1 -24 4v18c18 11 34 21 34 50c0 32 -22 55 -68 55c-86 0 -82 -88 -130 -200c-40 -94 -64 -95 -64 -144
c0 -41 39 -64 86 -64c77 0 126 36 128 119h39c8 -105 -66 -167 -171 -167c-109 0 -170 75 -170 181c0 159 130 314 280 314z" />
    <glyph glyph-name="ccircumflex" unicode="&#x109;" horiz-adv-x="449" 
d="M154 581l232 175h26c11 -51 41 -132 68 -182l-25 -18c-28 15 -89 84 -108 114l-179 -116zM283 485c84 0 126 -45 126 -97c0 -49 -33 -69 -66 -69c-8 0 -16 1 -24 4v18c18 11 34 21 34 50c0 32 -22 55 -68 55c-86 0 -82 -88 -130 -200c-40 -94 -64 -95 -64 -144
c0 -41 39 -64 86 -64c77 0 126 36 128 119h39c8 -105 -66 -167 -171 -167c-109 0 -170 75 -170 181c0 159 130 314 280 314z" />
    <glyph glyph-name="ccaron" unicode="&#x10d;" horiz-adv-x="449" 
d="M230 734l35 22c28 -14 73 -68 105 -122l179 119l14 -27l-232 -174h-26c-22 77 -54 148 -75 182zM283 485c84 0 126 -45 126 -97c0 -49 -33 -69 -66 -69c-8 0 -16 1 -24 4v18c18 11 34 21 34 50c0 32 -22 55 -68 55c-86 0 -82 -88 -130 -200c-40 -94 -64 -95 -64 -144
c0 -41 39 -64 86 -64c77 0 126 36 128 119h39c8 -105 -66 -167 -171 -167c-109 0 -170 75 -170 181c0 159 130 314 280 314z" />
    <glyph glyph-name="cdotaccent" unicode="&#x10b;" horiz-adv-x="449" 
d="M323 592c-29 0 -51 19 -51 47c0 39 28 64 63 64c30 0 51 -20 51 -48c0 -38 -27 -63 -63 -63zM283 485c84 0 126 -45 126 -97c0 -49 -33 -69 -66 -69c-8 0 -16 1 -24 4v18c18 11 34 21 34 50c0 32 -22 55 -68 55c-86 0 -82 -88 -130 -200c-40 -94 -64 -95 -64 -144
c0 -41 39 -64 86 -64c77 0 126 36 128 119h39c8 -105 -66 -167 -171 -167c-109 0 -170 75 -170 181c0 159 130 314 280 314z" />
    <glyph glyph-name="ccedilla" unicode="&#xe7;" horiz-adv-x="449" 
d="M58 -115h21c0 -28 9 -49 39 -49c27 0 45 18 45 48c0 21 -13 35 -36 35c-7 0 -14 -1 -20 -3l-18 18l33 62c-77 20 -119 87 -119 175c0 159 130 314 280 314c84 0 126 -45 126 -97c0 -49 -33 -69 -66 -69c-8 0 -16 1 -24 4v18c18 11 34 21 34 50c0 32 -22 55 -68 55
c-86 0 -82 -88 -130 -200c-40 -94 -64 -95 -64 -144c0 -41 39 -64 86 -64c77 0 126 36 128 119h39c8 -105 -66 -167 -171 -167c-6 0 -12 0 -18 1l-14 -39c52 8 81 -19 81 -61c0 -57 -46 -91 -98 -91c-63 0 -74 50 -66 85z" />
    <glyph glyph-name="dcaron" unicode="&#x10f;" horiz-adv-x="560" 
d="M334 0c-13 31 -17 93 -14 124c-43 -89 -97 -135 -182 -135c-82 0 -135 51 -135 148c0 148 120 348 266 348c61 0 105 -25 122 -85c34 79 88 163 88 248c0 10 -3 35 -12 53l30 9c24 -34 34 -79 34 -125c0 -84 -19 -143 -62 -274l-103 -311h-32zM587 532
c20 38 53 130 59 178h74c-9 -57 -58 -160 -103 -192zM345 285c24 85 -4 155 -65 155c-35 0 -52 -15 -64 -31c-27 -36 -29 -79 -61 -157c-35 -86 -75 -100 -75 -156c0 -35 24 -58 66 -58c80 0 153 82 199 247z" />
    <glyph glyph-name="dcroat" unicode="&#x111;" horiz-adv-x="549" 
d="M334 0c-13 31 -17 93 -14 124c-43 -89 -97 -135 -182 -135c-82 0 -135 51 -135 148c0 148 120 348 266 348c61 0 105 -25 122 -85c24 57 59 116 77 176h-166l13 40h162c1 11 2 21 2 32c0 10 -3 35 -12 53l30 9c19 -26 29 -59 32 -94h103l-13 -40h-88
c-1 -79 -21 -139 -62 -265l-103 -311h-32zM345 285c24 85 -4 155 -65 155c-35 0 -52 -15 -64 -31c-27 -36 -29 -79 -61 -157c-35 -86 -75 -100 -75 -156c0 -35 24 -58 66 -58c80 0 153 82 199 247z" />
    <glyph glyph-name="egrave" unicode="&#xe8;" horiz-adv-x="468" 
d="M194 707c0 20 21 42 45 42c44 0 65 -93 120 -176l-20 -19c-67 70 -145 111 -145 153zM346 157c6 -105 -63 -167 -170 -167c-122 0 -173 73 -173 180c0 161 149 315 286 315c88 0 136 -45 136 -112c0 -57 -39 -101 -96 -119c-46 -15 -109 -21 -199 -19
c-33 -69 -48 -80 -48 -122c0 -48 36 -75 95 -75c86 0 125 37 130 119h39zM277 447c-67 0 -78 -61 -135 -180c35 0 91 0 123 18c29 16 39 44 46 61c22 58 15 101 -34 101z" />
    <glyph glyph-name="eacute" unicode="&#xe9;" horiz-adv-x="468" 
d="M283 573c100 97 132 171 174 171c22 0 40 -18 40 -38c0 -48 -83 -70 -199 -152zM346 157c6 -105 -63 -167 -170 -167c-122 0 -173 73 -173 180c0 161 149 315 286 315c88 0 136 -45 136 -112c0 -57 -39 -101 -96 -119c-46 -15 -109 -21 -199 -19
c-33 -69 -48 -80 -48 -122c0 -48 36 -75 95 -75c86 0 125 37 130 119h39zM277 447c-67 0 -78 -61 -135 -180c35 0 91 0 123 18c29 16 39 44 46 61c22 58 15 101 -34 101z" />
    <glyph glyph-name="ecircumflex" unicode="&#xea;" horiz-adv-x="468" 
d="M177 581l232 175h26c11 -51 41 -132 68 -182l-25 -18c-28 15 -89 84 -108 114l-179 -116zM346 157c6 -105 -63 -167 -170 -167c-122 0 -173 73 -173 180c0 161 149 315 286 315c88 0 136 -45 136 -112c0 -57 -39 -101 -96 -119c-46 -15 -109 -21 -199 -19
c-33 -69 -48 -80 -48 -122c0 -48 36 -75 95 -75c86 0 125 37 130 119h39zM277 447c-67 0 -78 -61 -135 -180c35 0 91 0 123 18c29 16 39 44 46 61c22 58 15 101 -34 101z" />
    <glyph glyph-name="ecaron" unicode="&#x11b;" horiz-adv-x="468" 
d="M227 734l35 22c28 -14 73 -68 105 -122l179 119l14 -27l-232 -174h-26c-22 77 -54 148 -75 182zM346 157c6 -105 -63 -167 -170 -167c-122 0 -173 73 -173 180c0 161 149 315 286 315c88 0 136 -45 136 -112c0 -57 -39 -101 -96 -119c-46 -15 -109 -21 -199 -19
c-33 -69 -48 -80 -48 -122c0 -48 36 -75 95 -75c86 0 125 37 130 119h39zM277 447c-67 0 -78 -61 -135 -180c35 0 91 0 123 18c29 16 39 44 46 61c22 58 15 101 -34 101z" />
    <glyph glyph-name="edieresis" unicode="&#xeb;" horiz-adv-x="468" 
d="M202 655c0 37 30 60 61 60c26 0 41 -17 41 -40c0 -36 -29 -59 -62 -59c-26 0 -40 18 -40 39zM380 655c0 37 30 60 61 60c26 0 41 -17 41 -40c0 -36 -30 -59 -62 -59c-26 0 -40 18 -40 39zM346 157c6 -105 -63 -167 -170 -167c-122 0 -173 73 -173 180
c0 161 149 315 286 315c88 0 136 -45 136 -112c0 -57 -39 -101 -96 -119c-46 -15 -109 -21 -199 -19c-33 -69 -48 -80 -48 -122c0 -48 36 -75 95 -75c86 0 125 37 130 119h39zM277 447c-67 0 -78 -61 -135 -180c35 0 91 0 123 18c29 16 39 44 46 61c22 58 15 101 -34 101z
" />
    <glyph glyph-name="emacron" unicode="&#x113;" horiz-adv-x="468" 
d="M207 704h287l-26 -58h-288zM346 157c6 -105 -63 -167 -170 -167c-122 0 -173 73 -173 180c0 161 149 315 286 315c88 0 136 -45 136 -112c0 -57 -39 -101 -96 -119c-46 -15 -109 -21 -199 -19c-33 -69 -48 -80 -48 -122c0 -48 36 -75 95 -75c86 0 125 37 130 119h39z
M277 447c-67 0 -78 -61 -135 -180c35 0 91 0 123 18c29 16 39 44 46 61c22 58 15 101 -34 101z" />
    <glyph glyph-name="ebreve" unicode="&#x115;" horiz-adv-x="468" 
d="M321 574c-64 0 -89 35 -94 72c-5 35 5 65 28 100h25c-4 -43 -2 -103 80 -103c75 0 125 57 155 103h32c-25 -79 -107 -172 -226 -172zM346 157c6 -105 -63 -167 -170 -167c-122 0 -173 73 -173 180c0 161 149 315 286 315c88 0 136 -45 136 -112c0 -57 -39 -101 -96 -119
c-46 -15 -109 -21 -199 -19c-33 -69 -48 -80 -48 -122c0 -48 36 -75 95 -75c86 0 125 37 130 119h39zM277 447c-67 0 -78 -61 -135 -180c35 0 91 0 123 18c29 16 39 44 46 61c22 58 15 101 -34 101z" />
    <glyph glyph-name="edotaccent" unicode="&#x117;" horiz-adv-x="468" 
d="M325 592c-29 0 -51 19 -51 47c0 39 28 64 63 64c30 0 51 -20 51 -48c0 -38 -27 -63 -63 -63zM346 157c6 -105 -63 -167 -170 -167c-122 0 -173 73 -173 180c0 161 149 315 286 315c88 0 136 -45 136 -112c0 -57 -39 -101 -96 -119c-46 -15 -109 -21 -199 -19
c-33 -69 -48 -80 -48 -122c0 -48 36 -75 95 -75c86 0 125 37 130 119h39zM277 447c-67 0 -78 -61 -135 -180c35 0 91 0 123 18c29 16 39 44 46 61c22 58 15 101 -34 101z" />
    <glyph glyph-name="eogonek" unicode="&#x119;" horiz-adv-x="468" 
d="M142 -132c0 48 33 89 76 125c-13 -2 -27 -3 -42 -3c-122 0 -173 73 -173 180c0 161 149 315 286 315c88 0 136 -45 136 -112c0 -57 -39 -101 -96 -119c-46 -15 -109 -21 -199 -19c-33 -69 -48 -80 -48 -122c0 -48 36 -75 95 -75c86 0 125 37 130 119h39
c3 -61 -18 -108 -58 -136c-48 -41 -73 -95 -73 -137c0 -27 9 -41 31 -41c24 0 36 18 42 41h25c-9 -54 -38 -93 -98 -93c-49 0 -73 31 -73 77zM277 447c-67 0 -78 -61 -135 -180c35 0 91 0 123 18c29 16 39 44 46 61c22 58 15 101 -34 101z" />
    <glyph glyph-name="gcircumflex" unicode="&#x11d;" horiz-adv-x="528" 
d="M164 581l232 175h26c11 -51 41 -132 68 -182l-25 -18c-28 15 -89 84 -108 114l-179 -116zM92 -250c-132 0 -177 51 -177 113c0 23 12 47 32 63h27c-2 -12 -3 -23 -3 -35c0 -50 26 -98 135 -98c115 0 171 51 171 104c0 45 -29 67 -91 71l-60 4c-84 6 -152 18 -152 97
c0 53 39 102 130 121c-26 21 -46 53 -46 106c0 99 87 189 217 189c83 0 123 -37 139 -72c12 49 47 62 77 62c41 0 57 -27 57 -52c0 -14 -5 -28 -11 -37h-29c9 30 3 51 -18 51c-20 0 -34 -15 -44 -68l-8 -42c-18 -97 -94 -174 -224 -174c-28 0 -48 4 -69 9
c-67 -5 -106 -33 -106 -66c0 -23 18 -31 71 -31h99c102 0 157 -36 157 -116c0 -98 -84 -199 -274 -199zM321 298c17 46 29 66 29 89c0 38 -22 63 -75 63c-59 0 -69 -46 -93 -111c-14 -39 -30 -60 -30 -85c0 -32 20 -65 74 -65c59 0 74 52 95 109z" />
    <glyph glyph-name="gbreve" unicode="&#x11f;" horiz-adv-x="528" 
d="M341 574c-64 0 -89 35 -94 72c-5 35 5 65 28 100h25c-4 -43 -2 -103 80 -103c75 0 125 57 155 103h32c-25 -79 -107 -172 -226 -172zM92 -250c-132 0 -177 51 -177 113c0 23 12 47 32 63h27c-2 -12 -3 -23 -3 -35c0 -50 26 -98 135 -98c115 0 171 51 171 104
c0 45 -29 67 -91 71l-60 4c-84 6 -152 18 -152 97c0 53 39 102 130 121c-26 21 -46 53 -46 106c0 99 87 189 217 189c83 0 123 -37 139 -72c12 49 47 62 77 62c41 0 57 -27 57 -52c0 -14 -5 -28 -11 -37h-29c9 30 3 51 -18 51c-20 0 -34 -15 -44 -68l-8 -42
c-18 -97 -94 -174 -224 -174c-28 0 -48 4 -69 9c-67 -5 -106 -33 -106 -66c0 -23 18 -31 71 -31h99c102 0 157 -36 157 -116c0 -98 -84 -199 -274 -199zM321 298c17 46 29 66 29 89c0 38 -22 63 -75 63c-59 0 -69 -46 -93 -111c-14 -39 -30 -60 -30 -85c0 -32 20 -65 74 -65
c59 0 74 52 95 109z" />
    <glyph glyph-name="gdotaccent" unicode="&#x121;" horiz-adv-x="528" 
d="M333 592c-29 0 -51 19 -51 47c0 39 28 64 63 64c30 0 51 -20 51 -48c0 -38 -27 -63 -63 -63zM92 -250c-132 0 -177 51 -177 113c0 23 12 47 32 63h27c-2 -12 -3 -23 -3 -35c0 -50 26 -98 135 -98c115 0 171 51 171 104c0 45 -29 67 -91 71l-60 4c-84 6 -152 18 -152 97
c0 53 39 102 130 121c-26 21 -46 53 -46 106c0 99 87 189 217 189c83 0 123 -37 139 -72c12 49 47 62 77 62c41 0 57 -27 57 -52c0 -14 -5 -28 -11 -37h-29c9 30 3 51 -18 51c-20 0 -34 -15 -44 -68l-8 -42c-18 -97 -94 -174 -224 -174c-28 0 -48 4 -69 9
c-67 -5 -106 -33 -106 -66c0 -23 18 -31 71 -31h99c102 0 157 -36 157 -116c0 -98 -84 -199 -274 -199zM321 298c17 46 29 66 29 89c0 38 -22 63 -75 63c-59 0 -69 -46 -93 -111c-14 -39 -30 -60 -30 -85c0 -32 20 -65 74 -65c59 0 74 52 95 109z" />
    <glyph glyph-name="gcommaaccent" unicode="&#x123;" horiz-adv-x="528" 
d="M415 729c-21 -37 -55 -117 -62 -166h-78c9 56 63 146 108 178zM92 -250c-132 0 -177 51 -177 113c0 23 12 47 32 63h27c-2 -12 -3 -23 -3 -35c0 -50 26 -98 135 -98c115 0 171 51 171 104c0 45 -29 67 -91 71l-60 4c-84 6 -152 18 -152 97c0 53 39 102 130 121
c-26 21 -46 53 -46 106c0 99 87 189 217 189c83 0 123 -37 139 -72c12 49 47 62 77 62c41 0 57 -27 57 -52c0 -14 -5 -28 -11 -37h-29c9 30 3 51 -18 51c-20 0 -34 -15 -44 -68l-8 -42c-18 -97 -94 -174 -224 -174c-28 0 -48 4 -69 9c-67 -5 -106 -33 -106 -66
c0 -23 18 -31 71 -31h99c102 0 157 -36 157 -116c0 -98 -84 -199 -274 -199zM321 298c17 46 29 66 29 89c0 38 -22 63 -75 63c-59 0 -69 -46 -93 -111c-14 -39 -30 -60 -30 -85c0 -32 20 -65 74 -65c59 0 74 52 95 109z" />
    <glyph glyph-name="hcircumflex" unicode="&#x125;" horiz-adv-x="542" 
d="M86 759l189 119h25c13 -35 44 -92 69 -127l-21 -21c-32 12 -86 53 -108 73l-138 -72zM81 0h-32c-24 46 -34 87 -34 143c0 196 181 301 181 495c0 16 -3 42 -12 63l31 9c22 -33 34 -73 34 -116c0 -70 -30 -154 -70 -233l3 -5c37 72 91 129 174 129c88 0 130 -62 130 -134
c0 -171 -161 -223 -161 -295c0 -14 8 -26 28 -35l-24 -29c-48 23 -69 62 -69 99c0 140 137 184 137 292c0 22 -14 48 -56 48c-88 0 -165 -128 -205 -256z" />
    <glyph glyph-name="hbar" unicode="&#x127;" horiz-adv-x="542" 
d="M81 0h-32c-24 46 -34 87 -34 143c0 174 143 276 175 433h-110l9 40h106c1 7 1 15 1 22c0 16 -3 42 -12 63l31 9c18 -27 30 -59 33 -94h159l-10 -40h-149c-4 -66 -32 -143 -69 -215l3 -5c37 72 91 129 174 129c88 0 130 -62 130 -134c0 -171 -161 -223 -161 -295
c0 -14 8 -26 28 -35l-24 -29c-48 23 -69 62 -69 99c0 140 137 184 137 292c0 22 -14 48 -56 48c-88 0 -165 -128 -205 -256z" />
    <glyph glyph-name="igrave" unicode="&#xec;" horiz-adv-x="260" 
d="M66 707c0 20 21 42 45 42c44 0 65 -93 120 -176l-20 -19c-67 70 -145 111 -145 153zM131 474l30 8c30 -32 36 -61 36 -98c0 -59 -43 -153 -74 -253l-41 -131h-32c-21 48 -34 88 -34 130c0 143 126 202 126 305c0 12 -4 28 -11 39z" />
    <glyph glyph-name="iacute" unicode="&#xed;" horiz-adv-x="260" 
d="M135 573c100 97 132 171 174 171c22 0 40 -18 40 -38c0 -48 -83 -70 -199 -152zM131 474l30 8c30 -32 36 -61 36 -98c0 -59 -43 -153 -74 -253l-41 -131h-32c-21 48 -34 88 -34 130c0 143 126 202 126 305c0 12 -4 28 -11 39z" />
    <glyph glyph-name="icircumflex" unicode="&#xee;" horiz-adv-x="260" 
d="M26 581l212 175h26c9 -54 26 -118 48 -182l-25 -18c-33 29 -70 81 -88 114l-159 -116zM131 474l30 8c30 -32 36 -61 36 -98c0 -59 -43 -153 -74 -253l-41 -131h-32c-21 48 -34 88 -34 130c0 143 126 202 126 305c0 12 -4 28 -11 39z" />
    <glyph glyph-name="itilde" unicode="&#x129;" horiz-adv-x="260" 
d="M32 594c0 98 40 134 104 134c74 0 88 -74 134 -74c39 0 45 27 48 70h34c0 -95 -46 -132 -105 -132c-70 0 -89 74 -133 74c-39 0 -45 -29 -49 -72h-33zM131 474l30 8c30 -32 36 -61 36 -98c0 -59 -43 -153 -74 -253l-41 -131h-32c-21 48 -34 88 -34 130
c0 143 126 202 126 305c0 12 -4 28 -11 39z" />
    <glyph glyph-name="idieresis" unicode="&#xef;" horiz-adv-x="260" 
d="M79 655c0 37 30 60 61 60c26 0 41 -17 41 -40c0 -36 -29 -59 -62 -59c-26 0 -40 18 -40 39zM237 655c0 37 30 60 61 60c26 0 41 -17 41 -40c0 -36 -30 -59 -62 -59c-26 0 -40 18 -40 39zM131 474l30 8c30 -32 36 -61 36 -98c0 -59 -43 -153 -74 -253l-41 -131h-32
c-21 48 -34 88 -34 130c0 143 126 202 126 305c0 12 -4 28 -11 39z" />
    <glyph glyph-name="imacron" unicode="&#x12b;" horiz-adv-x="260" 
d="M90 704h227l-20 -58h-228zM131 474l30 8c30 -32 36 -61 36 -98c0 -59 -43 -153 -74 -253l-41 -131h-32c-21 48 -34 88 -34 130c0 143 126 202 126 305c0 12 -4 28 -11 39z" />
    <glyph glyph-name="ibreve" unicode="&#x12d;" horiz-adv-x="260" 
d="M194 574c-64 0 -104 30 -104 84c0 31 13 65 33 88h23c-9 -44 -4 -103 70 -103c65 0 109 53 137 103h32c-25 -79 -84 -172 -191 -172zM131 474l30 8c30 -32 36 -61 36 -98c0 -59 -43 -153 -74 -253l-41 -131h-32c-21 48 -34 88 -34 130c0 143 126 202 126 305
c0 12 -4 28 -11 39z" />
    <glyph glyph-name="iogonek" unicode="&#x12f;" horiz-adv-x="260" 
d="M193 592c-29 0 -51 19 -51 47c0 39 28 64 63 64c30 0 51 -20 51 -48c0 -38 -27 -63 -63 -63zM-42 -134c0 53 40 94 92 135c-21 47 -34 87 -34 129c0 143 126 202 126 305c0 12 -4 28 -11 39l30 8c30 -32 36 -61 36 -98c0 -59 -43 -153 -74 -253l-40 -128l3 -3
c-38 -44 -55 -86 -55 -116c0 -27 9 -41 31 -41c24 0 40 18 46 41h21c-9 -54 -38 -93 -99 -93c-48 0 -72 29 -72 75z" />
    <glyph glyph-name="dotlessi" unicode="&#x131;" horiz-adv-x="260" 
d="M131 474l30 8c30 -32 36 -61 36 -98c0 -59 -43 -153 -74 -253l-41 -131h-32c-21 48 -34 88 -34 130c0 143 126 202 126 305c0 12 -4 28 -11 39z" />
    <glyph glyph-name="i.TRK" horiz-adv-x="260" 
d="M193 592c-29 0 -51 19 -51 47c0 39 28 64 63 64c30 0 51 -20 51 -48c0 -38 -27 -63 -63 -63zM131 474l30 8c30 -32 36 -61 36 -98c0 -59 -43 -153 -74 -253l-41 -131h-32c-21 48 -34 88 -34 130c0 143 126 202 126 305c0 12 -4 28 -11 39z" />
    <glyph glyph-name="ij" unicode="&#x133;" horiz-adv-x="531" 
d="M193 592c-29 0 -51 19 -51 47c0 39 28 64 63 64c30 0 51 -20 51 -48c0 -38 -27 -63 -63 -63zM462 592c-29 0 -51 19 -51 47c0 39 28 64 63 64c30 0 51 -20 51 -48c0 -38 -27 -63 -63 -63zM131 474l30 8c30 -32 36 -61 36 -98c0 -59 -43 -153 -74 -253l-41 -131h-32
c-21 48 -34 88 -34 130c0 143 126 202 126 305c0 12 -4 28 -11 39zM111 -110h39c-10 -45 -11 -94 48 -94c55 0 84 63 84 178v129c0 187 134 221 134 331c0 14 -5 30 -11 40l28 8c28 -22 38 -55 38 -92c0 -59 -20 -97 -48 -188l-71 -230c-33 -105 -39 -222 -158 -222
c-67 0 -95 42 -95 85c0 20 5 39 12 55z" />
    <glyph glyph-name="jcircumflex" unicode="&#x135;" horiz-adv-x="282" 
d="M43 581l232 175h26c11 -51 41 -132 68 -182l-25 -18c-28 15 -89 84 -108 114l-179 -116zM-138 -110h39c-10 -45 -11 -94 48 -94c55 0 84 63 84 178v129c0 187 134 221 134 331c0 14 -5 30 -11 40l28 8c28 -22 38 -55 38 -92c0 -59 -20 -97 -48 -188l-71 -230
c-33 -105 -39 -222 -158 -222c-67 0 -95 42 -95 85c0 20 5 39 12 55z" />
    <glyph glyph-name="dotlessj" unicode="&#x237;" horiz-adv-x="282" 
d="M-138 -110h39c-10 -45 -11 -94 48 -94c55 0 84 63 84 178v129c0 187 134 221 134 331c0 14 -5 30 -11 40l28 8c28 -22 38 -55 38 -92c0 -59 -20 -97 -48 -188l-71 -230c-33 -105 -39 -222 -158 -222c-67 0 -95 42 -95 85c0 20 5 39 12 55z" />
    <glyph glyph-name="kcommaaccent" unicode="&#x137;" horiz-adv-x="521" 
d="M325 -8c-53 15 -92 52 -92 108c0 94 115 109 115 164c0 20 -17 34 -45 34c-63 0 -139 -35 -195 -212l-27 -86h-32c-25 51 -34 88 -34 141c0 201 182 299 182 501c0 24 -8 50 -12 59l31 9c25 -34 34 -85 34 -119c0 -70 -38 -165 -69 -240l-32 -78l5 -4
c55 104 137 216 245 216c71 0 94 -38 94 -70c0 -34 -22 -57 -53 -57c-9 0 -20 2 -26 7v17c14 5 23 15 23 31s-12 32 -41 32c-56 0 -115 -41 -176 -138c24 18 55 28 94 28c58 0 109 -35 109 -106c0 -91 -105 -120 -105 -177c0 -14 9 -30 24 -39zM70 -220c21 37 55 117 62 166
h78c-9 -56 -63 -146 -108 -178z" />
    <glyph glyph-name="lacute" unicode="&#x13a;" horiz-adv-x="262" 
d="M137 765c98 51 148 105 193 105c23 0 40 -19 40 -43c0 -23 -16 -37 -39 -44c-30 -7 -116 -23 -184 -44zM185 701l31 9c22 -30 34 -71 34 -117c0 -80 -25 -156 -66 -281l-103 -312h-32c-27 49 -34 95 -34 144c0 198 182 296 182 494c0 30 -8 53 -12 63z" />
    <glyph glyph-name="lcaron" unicode="&#x13e;" horiz-adv-x="275" 
d="M185 701l31 9c22 -30 34 -71 34 -117c0 -80 -25 -156 -66 -281l-103 -312h-32c-27 49 -34 95 -34 144c0 198 182 296 182 494c0 30 -8 53 -12 63zM302 532c20 38 53 130 59 178h74c-9 -57 -58 -160 -103 -192z" />
    <glyph glyph-name="lcommaaccent" unicode="&#x13c;" horiz-adv-x="262" 
d="M185 701l31 9c22 -30 34 -71 34 -117c0 -80 -25 -156 -66 -281l-103 -312h-32c-27 49 -34 95 -34 144c0 198 182 296 182 494c0 30 -8 53 -12 63zM-42 -220c21 37 55 117 62 166h78c-9 -56 -63 -146 -108 -178z" />
    <glyph glyph-name="lslash" unicode="&#x142;" horiz-adv-x="262" 
d="M-52 128v59l87 70c48 130 162 224 162 381c0 30 -8 53 -12 63l31 9c22 -30 34 -71 34 -117c0 -60 -14 -118 -39 -197l79 63v-59l-104 -83l-2 -5l-103 -312h-32c-27 49 -34 95 -34 144c0 14 1 27 2 39z" />
    <glyph glyph-name="ldot" unicode="&#x140;" horiz-adv-x="330" 
d="M185 701l31 9c22 -30 34 -71 34 -117c0 -80 -25 -156 -66 -281l-103 -312h-32c-27 49 -34 95 -34 144c0 198 182 296 182 494c0 30 -8 53 -12 63zM279 271c-29 0 -51 19 -51 47c0 39 28 64 63 64c30 0 51 -20 51 -48c0 -38 -27 -63 -63 -63z" />
    <glyph glyph-name="nacute" unicode="&#x144;" horiz-adv-x="543" 
d="M311 573c100 97 132 171 174 171c22 0 40 -18 40 -38c0 -48 -83 -70 -199 -152zM132 160l-50 -160h-32c-24 46 -34 92 -34 140c0 144 115 206 115 294c0 9 -3 26 -11 40l28 8c32 -24 42 -64 36 -123c38 74 96 126 174 126c87 0 129 -61 129 -133
c0 -173 -161 -225 -161 -296c0 -16 10 -26 28 -35l-24 -29c-37 18 -69 50 -69 102c0 133 137 184 137 289c0 30 -21 48 -56 48c-86 0 -164 -124 -210 -271z" />
    <glyph glyph-name="ncaron" unicode="&#x148;" horiz-adv-x="543" 
d="M295 734l35 22c28 -14 73 -68 105 -122l179 119l14 -27l-232 -174h-26c-22 77 -54 148 -75 182zM132 160l-50 -160h-32c-24 46 -34 92 -34 140c0 144 115 206 115 294c0 9 -3 26 -11 40l28 8c32 -24 42 -64 36 -123c38 74 96 126 174 126c87 0 129 -61 129 -133
c0 -173 -161 -225 -161 -296c0 -16 10 -26 28 -35l-24 -29c-37 18 -69 50 -69 102c0 133 137 184 137 289c0 30 -21 48 -56 48c-86 0 -164 -124 -210 -271z" />
    <glyph glyph-name="ntilde" unicode="&#xf1;" horiz-adv-x="543" 
d="M217 594c0 98 43 134 113 134c83 0 96 -74 148 -74c39 0 48 27 51 70h34c0 -95 -47 -132 -114 -132c-78 0 -91 74 -147 74c-39 0 -48 -29 -52 -72h-33zM132 160l-50 -160h-32c-24 46 -34 92 -34 140c0 144 115 206 115 294c0 9 -3 26 -11 40l28 8c32 -24 42 -64 36 -123
c38 74 96 126 174 126c87 0 129 -61 129 -133c0 -173 -161 -225 -161 -296c0 -16 10 -26 28 -35l-24 -29c-37 18 -69 50 -69 102c0 133 137 184 137 289c0 30 -21 48 -56 48c-86 0 -164 -124 -210 -271z" />
    <glyph glyph-name="ncommaaccent" unicode="&#x146;" horiz-adv-x="543" 
d="M132 160l-50 -160h-32c-24 46 -34 92 -34 140c0 144 115 206 115 294c0 9 -3 26 -11 40l28 8c32 -24 42 -64 36 -123c38 74 96 126 174 126c87 0 129 -61 129 -133c0 -173 -161 -225 -161 -296c0 -16 10 -26 28 -35l-24 -29c-37 18 -69 50 -69 102c0 133 137 184 137 289
c0 30 -21 48 -56 48c-86 0 -164 -124 -210 -271zM86 -220c21 37 55 117 62 166h78c-9 -56 -63 -146 -108 -178z" />
    <glyph glyph-name="ograve" unicode="&#xf2;" horiz-adv-x="513" 
d="M221 707c0 20 21 42 45 42c44 0 65 -93 120 -176l-20 -19c-67 70 -145 111 -145 153zM3 154c0 147 133 331 287 331c104 0 166 -61 166 -164c0 -147 -133 -331 -287 -331c-104 0 -166 59 -166 164zM312 231c34 82 64 99 64 144c0 37 -27 70 -84 70
c-92 0 -103 -100 -145 -201c-34 -82 -64 -99 -64 -144c0 -37 26 -70 83 -70c92 0 104 100 146 201z" />
    <glyph glyph-name="oacute" unicode="&#xf3;" horiz-adv-x="513" 
d="M269 573c100 97 132 171 174 171c22 0 40 -18 40 -38c0 -48 -83 -70 -199 -152zM3 154c0 147 133 331 287 331c104 0 166 -61 166 -164c0 -147 -133 -331 -287 -331c-104 0 -166 59 -166 164zM312 231c34 82 64 99 64 144c0 37 -27 70 -84 70c-92 0 -103 -100 -145 -201
c-34 -82 -64 -99 -64 -144c0 -37 26 -70 83 -70c92 0 104 100 146 201z" />
    <glyph glyph-name="ocircumflex" unicode="&#xf4;" horiz-adv-x="513" 
d="M178 581l232 175h26c11 -51 41 -132 68 -182l-25 -18c-28 15 -89 84 -108 114l-179 -116zM3 154c0 147 133 331 287 331c104 0 166 -61 166 -164c0 -147 -133 -331 -287 -331c-104 0 -166 59 -166 164zM312 231c34 82 64 99 64 144c0 37 -27 70 -84 70
c-92 0 -103 -100 -145 -201c-34 -82 -64 -99 -64 -144c0 -37 26 -70 83 -70c92 0 104 100 146 201z" />
    <glyph glyph-name="otilde" unicode="&#xf5;" horiz-adv-x="513" 
d="M185 594c0 98 43 134 113 134c83 0 96 -74 148 -74c39 0 48 27 51 70h34c0 -95 -47 -132 -114 -132c-78 0 -91 74 -147 74c-39 0 -48 -29 -52 -72h-33zM3 154c0 147 133 331 287 331c104 0 166 -61 166 -164c0 -147 -133 -331 -287 -331c-104 0 -166 59 -166 164z
M312 231c34 82 64 99 64 144c0 37 -27 70 -84 70c-92 0 -103 -100 -145 -201c-34 -82 -64 -99 -64 -144c0 -37 26 -70 83 -70c92 0 104 100 146 201z" />
    <glyph glyph-name="odieresis" unicode="&#xf6;" horiz-adv-x="513" 
d="M203 655c0 37 30 60 61 60c26 0 41 -17 41 -40c0 -36 -29 -59 -62 -59c-26 0 -40 18 -40 39zM381 655c0 37 30 60 61 60c26 0 41 -17 41 -40c0 -36 -30 -59 -62 -59c-26 0 -40 18 -40 39zM3 154c0 147 133 331 287 331c104 0 166 -61 166 -164
c0 -147 -133 -331 -287 -331c-104 0 -166 59 -166 164zM312 231c34 82 64 99 64 144c0 37 -27 70 -84 70c-92 0 -103 -100 -145 -201c-34 -82 -64 -99 -64 -144c0 -37 26 -70 83 -70c92 0 104 100 146 201z" />
    <glyph glyph-name="omacron" unicode="&#x14d;" horiz-adv-x="513" 
d="M209 704h287l-26 -58h-288zM3 154c0 147 133 331 287 331c104 0 166 -61 166 -164c0 -147 -133 -331 -287 -331c-104 0 -166 59 -166 164zM312 231c34 82 64 99 64 144c0 37 -27 70 -84 70c-92 0 -103 -100 -145 -201c-34 -82 -64 -99 -64 -144c0 -37 26 -70 83 -70
c92 0 104 100 146 201z" />
    <glyph glyph-name="obreve" unicode="&#x14f;" horiz-adv-x="513" 
d="M331 574c-64 0 -89 35 -94 72c-5 35 5 65 28 100h25c-4 -43 -2 -103 80 -103c75 0 125 57 155 103h32c-25 -79 -107 -172 -226 -172zM3 154c0 147 133 331 287 331c104 0 166 -61 166 -164c0 -147 -133 -331 -287 -331c-104 0 -166 59 -166 164zM312 231
c34 82 64 99 64 144c0 37 -27 70 -84 70c-92 0 -103 -100 -145 -201c-34 -82 -64 -99 -64 -144c0 -37 26 -70 83 -70c92 0 104 100 146 201z" />
    <glyph glyph-name="ohungarumlaut" unicode="&#x151;" horiz-adv-x="513" 
d="M224 575l130 189l68 -44l-172 -168zM397 575l136 186l65 -48l-175 -161zM3 154c0 147 133 331 287 331c104 0 166 -61 166 -164c0 -147 -133 -331 -287 -331c-104 0 -166 59 -166 164zM312 231c34 82 64 99 64 144c0 37 -27 70 -84 70c-92 0 -103 -100 -145 -201
c-34 -82 -64 -99 -64 -144c0 -37 26 -70 83 -70c92 0 104 100 146 201z" />
    <glyph glyph-name="oslash" unicode="&#xf8;" horiz-adv-x="513" 
d="M3 154c0 147 133 331 287 331c35 0 65 -7 89 -20l16 20h57l-37 -47c27 -28 41 -67 41 -117c0 -147 -133 -331 -287 -331c-36 0 -67 7 -92 21l-16 -21h-58l38 48c-25 28 -38 67 -38 116zM83 100v-8l267 336c-14 11 -33 17 -58 17c-92 0 -103 -100 -145 -201
c-34 -82 -64 -99 -64 -144zM312 231c34 82 64 99 64 144c0 4 0 9 -1 12l-268 -339c13 -11 33 -18 59 -18c92 0 104 100 146 201z" />
    <glyph glyph-name="oslashacute" unicode="&#x1ff;" horiz-adv-x="513" 
d="M269 573c100 97 132 171 174 171c22 0 40 -18 40 -38c0 -48 -83 -70 -199 -152zM3 154c0 147 133 331 287 331c35 0 65 -7 89 -20l16 20h57l-37 -47c27 -28 41 -67 41 -117c0 -147 -133 -331 -287 -331c-36 0 -67 7 -92 21l-16 -21h-58l38 48c-25 28 -38 67 -38 116z
M83 100v-8l267 336c-14 11 -33 17 -58 17c-92 0 -103 -100 -145 -201c-34 -82 -64 -99 -64 -144zM312 231c34 82 64 99 64 144c0 4 0 9 -1 12l-268 -339c13 -11 33 -18 59 -18c92 0 104 100 146 201z" />
    <glyph glyph-name="oe" unicode="&#x153;" horiz-adv-x="772" 
d="M3 165c0 153 124 320 282 320c74 0 115 -32 133 -86c49 52 111 86 175 86c88 0 136 -45 136 -112c0 -57 -39 -101 -96 -119c-46 -15 -109 -21 -199 -19c-15 -32 -27 -52 -35 -68c-1 -3 -2 -5 -4 -8c-6 -15 -9 -27 -9 -46c0 -48 36 -75 95 -75c86 0 125 37 130 119h39
c6 -105 -63 -167 -170 -167c-81 0 -122 32 -140 85c-46 -51 -107 -85 -176 -85c-121 0 -161 73 -161 175zM581 447c-67 0 -78 -61 -135 -180c35 0 91 0 123 18c29 16 39 44 46 61c22 58 15 101 -34 101zM311 231c36 78 54 99 54 144c0 37 -26 70 -79 70
c-88 0 -101 -100 -144 -200c-37 -86 -56 -108 -56 -150c0 -38 27 -65 79 -65c85 0 100 101 146 201z" />
    <glyph glyph-name="racute" unicode="&#x155;" horiz-adv-x="444" 
d="M259 573c100 97 132 171 174 171c22 0 40 -18 40 -38c0 -48 -83 -70 -199 -152zM133 164l-51 -164h-32c-24 49 -34 91 -34 140c0 140 115 209 115 295c0 13 -6 31 -11 39l28 8c31 -23 41 -68 36 -123c36 73 84 126 156 126c58 0 89 -36 89 -83c0 -69 -66 -87 -66 -122
c0 -9 2 -14 5 -19l-10 -8c-31 0 -69 15 -69 58c0 41 27 61 54 79c12 8 18 14 18 24s-6 22 -28 22c-81 0 -154 -125 -200 -272z" />
    <glyph glyph-name="rcaron" unicode="&#x159;" horiz-adv-x="444" 
d="M230 734l35 22c28 -14 73 -68 105 -122l179 119l14 -27l-232 -174h-26c-22 77 -54 148 -75 182zM133 164l-51 -164h-32c-24 49 -34 91 -34 140c0 140 115 209 115 295c0 13 -6 31 -11 39l28 8c31 -23 41 -68 36 -123c36 73 84 126 156 126c58 0 89 -36 89 -83
c0 -69 -66 -87 -66 -122c0 -9 2 -14 5 -19l-10 -8c-31 0 -69 15 -69 58c0 41 27 61 54 79c12 8 18 14 18 24s-6 22 -28 22c-81 0 -154 -125 -200 -272z" />
    <glyph glyph-name="rcommaaccent" unicode="&#x157;" horiz-adv-x="444" 
d="M133 164l-51 -164h-32c-24 49 -34 91 -34 140c0 140 115 209 115 295c0 13 -6 31 -11 39l28 8c31 -23 41 -68 36 -123c36 73 84 126 156 126c58 0 89 -36 89 -83c0 -69 -66 -87 -66 -122c0 -9 2 -14 5 -19l-10 -8c-31 0 -69 15 -69 58c0 41 27 61 54 79c12 8 18 14 18 24
s-6 22 -28 22c-81 0 -154 -125 -200 -272zM-39 -220c21 37 55 117 62 166h78c-9 -56 -63 -146 -108 -178z" />
    <glyph glyph-name="sacute" unicode="&#x15b;" horiz-adv-x="432" 
d="M223 573c100 97 132 171 174 171c22 0 40 -18 40 -38c0 -48 -83 -70 -199 -152zM-3 161h37c-14 -79 6 -126 99 -126c74 0 101 38 101 82c0 45 -36 59 -80 80c-51 24 -95 51 -95 129c0 82 68 159 187 159c76 0 125 -39 125 -97c0 -24 -7 -39 -15 -52h-37
c13 61 -6 104 -81 104c-72 0 -97 -40 -97 -78c0 -52 37 -60 87 -78c53 -19 99 -48 99 -127c0 -89 -82 -167 -197 -167c-99 0 -143 47 -147 109c-1 20 4 44 14 62z" />
    <glyph glyph-name="scircumflex" unicode="&#x15d;" horiz-adv-x="432" 
d="M116 581l232 175h26c11 -51 41 -132 68 -182l-25 -18c-28 15 -89 84 -108 114l-179 -116zM-3 161h37c-14 -79 6 -126 99 -126c74 0 101 38 101 82c0 45 -36 59 -80 80c-51 24 -95 51 -95 129c0 82 68 159 187 159c76 0 125 -39 125 -97c0 -24 -7 -39 -15 -52h-37
c13 61 -6 104 -81 104c-72 0 -97 -40 -97 -78c0 -52 37 -60 87 -78c53 -19 99 -48 99 -127c0 -89 -82 -167 -197 -167c-99 0 -143 47 -147 109c-1 20 4 44 14 62z" />
    <glyph glyph-name="scaron" unicode="&#x161;" horiz-adv-x="432" 
d="M173 734l35 22c28 -14 73 -68 105 -122l179 119l14 -27l-232 -174h-26c-22 77 -54 148 -75 182zM-3 161h37c-14 -79 6 -126 99 -126c74 0 101 38 101 82c0 45 -36 59 -80 80c-51 24 -95 51 -95 129c0 82 68 159 187 159c76 0 125 -39 125 -97c0 -24 -7 -39 -15 -52h-37
c13 61 -6 104 -81 104c-72 0 -97 -40 -97 -78c0 -52 37 -60 87 -78c53 -19 99 -48 99 -127c0 -89 -82 -167 -197 -167c-99 0 -143 47 -147 109c-1 20 4 44 14 62z" />
    <glyph glyph-name="scedilla" unicode="&#x15f;" horiz-adv-x="432" 
d="M37 -115h21c0 -28 9 -49 39 -49c27 0 45 18 45 48c0 21 -13 35 -36 35c-7 0 -14 -1 -20 -3l-18 18l30 58c-76 9 -111 52 -115 107c-1 20 4 44 14 62h37c-14 -79 6 -126 99 -126c74 0 101 38 101 82c0 45 -36 59 -80 80c-51 24 -95 51 -95 129c0 82 68 159 187 159
c76 0 125 -39 125 -97c0 -24 -7 -39 -15 -52h-37c13 61 -6 104 -81 104c-72 0 -97 -40 -97 -78c0 -52 37 -60 87 -78c53 -19 99 -48 99 -127c0 -89 -82 -167 -194 -167l-13 -38c52 8 81 -19 81 -61c0 -57 -46 -91 -98 -91c-63 0 -74 50 -66 85z" />
    <glyph glyph-name="scommaaccent" unicode="&#x219;" horiz-adv-x="432" 
d="M-3 161h37c-14 -79 6 -126 99 -126c74 0 101 38 101 82c0 45 -36 59 -80 80c-51 24 -95 51 -95 129c0 82 68 159 187 159c76 0 125 -39 125 -97c0 -24 -7 -39 -15 -52h-37c13 61 -6 104 -81 104c-72 0 -97 -40 -97 -78c0 -52 37 -60 87 -78c53 -19 99 -48 99 -127
c0 -89 -82 -167 -197 -167c-99 0 -143 47 -147 109c-1 20 4 44 14 62zM28 -220c21 37 55 117 62 166h78c-9 -56 -63 -146 -108 -178z" />
    <glyph glyph-name="germandbls" unicode="&#xdf;" horiz-adv-x="599" 
d="M185 313l-104 -313h-32c-30 57 -34 99 -34 144c0 151 112 233 171 406c34 100 77 160 184 160c110 0 169 -59 169 -131c0 -84 -71 -112 -127 -139c-40 -19 -72 -40 -72 -70c0 -38 39 -47 79 -66c41 -19 95 -57 95 -137c0 -93 -70 -176 -206 -176c-111 0 -131 68 -131 117
c0 18 5 35 11 50h39c-3 -15 -5 -29 -5 -41c0 -55 32 -82 89 -82c69 0 108 29 108 82c0 82 -131 79 -131 207c0 134 147 153 147 269c0 45 -25 74 -69 74c-49 0 -81 -25 -104 -95c-19 -57 -34 -129 -77 -259z" />
    <glyph glyph-name="tcaron" unicode="&#x165;" horiz-adv-x="380" 
d="M327 529c21 38 53 114 61 159h62c-9 -49 -54 -138 -99 -170zM20 128c0 112 109 201 160 307h-95v40h111c7 21 11 42 11 65c0 21 -6 42 -9 51l30 8c26 -35 30 -77 30 -114v-10h107v-40h-112c-25 -121 -126 -231 -126 -345c0 -33 16 -55 52 -55c54 0 83 39 83 122h36
c13 -88 -27 -167 -132 -167c-98 0 -146 61 -146 138z" />
    <glyph glyph-name="tcommaaccent" unicode="&#x21b;" horiz-adv-x="380" 
d="M20 128c0 112 109 201 160 307h-95v40h111c7 21 11 42 11 65c0 21 -6 42 -9 51l30 8c26 -35 30 -77 30 -114v-10h107v-40h-112c-25 -121 -126 -231 -126 -345c0 -33 16 -55 52 -55c54 0 83 39 83 122h36c13 -88 -27 -167 -132 -167c-98 0 -146 61 -146 138zM48 -220
c21 37 55 117 62 166h78c-9 -56 -63 -146 -108 -178z" />
    <glyph glyph-name="tcedilla" unicode="&#x163;" horiz-adv-x="380" 
d="M58 -115h21c0 -28 9 -49 39 -49c27 0 45 18 45 48c0 21 -13 35 -36 35c-7 0 -14 -1 -20 -3l-18 18l32 61c-68 16 -101 69 -101 133c0 112 109 201 160 307h-95v40h111c7 21 11 42 11 65c0 21 -6 42 -9 51l30 8c26 -35 30 -77 30 -114v-10h107v-40h-112
c-25 -121 -126 -231 -126 -345c0 -33 16 -55 52 -55c54 0 83 39 83 122h36c13 -88 -27 -167 -132 -167h-12l-13 -38c52 8 81 -19 81 -61c0 -57 -46 -91 -98 -91c-63 0 -74 50 -66 85z" />
    <glyph glyph-name="tbar" unicode="&#x167;" horiz-adv-x="380" 
d="M20 128c0 48 20 92 47 135h-90l10 40h107c30 43 64 86 86 132h-95v40h111c7 21 11 42 11 65c0 21 -6 42 -9 51l30 8c26 -35 30 -77 30 -114v-10h107v-40h-112c-9 -45 -29 -89 -51 -132h117l-10 -40h-127c-29 -58 -55 -115 -55 -173c0 -33 16 -55 52 -55
c54 0 83 39 83 122h36c13 -88 -27 -167 -132 -167c-98 0 -146 61 -146 138z" />
    <glyph glyph-name="ugrave" unicode="&#xf9;" horiz-adv-x="542" 
d="M214 707c0 20 21 42 45 42c44 0 65 -93 120 -176l-20 -19c-67 70 -145 111 -145 153zM355 315l50 161h32c24 -46 34 -93 34 -141c0 -144 -115 -206 -115 -294c0 -9 3 -26 11 -40l-28 -8c-32 24 -42 64 -36 123c-38 -74 -96 -126 -174 -126c-87 0 -129 61 -129 133
c0 160 164 235 164 309c0 16 -8 26 -18 33l25 19c34 -20 55 -47 55 -99c0 -139 -137 -192 -137 -293c0 -30 22 -49 57 -49c89 0 163 125 209 272z" />
    <glyph glyph-name="uacute" unicode="&#xfa;" horiz-adv-x="542" 
d="M260 573c100 97 132 171 174 171c22 0 40 -18 40 -38c0 -48 -83 -70 -199 -152zM355 315l50 161h32c24 -46 34 -93 34 -141c0 -144 -115 -206 -115 -294c0 -9 3 -26 11 -40l-28 -8c-32 24 -42 64 -36 123c-38 -74 -96 -126 -174 -126c-87 0 -129 61 -129 133
c0 160 164 235 164 309c0 16 -8 26 -18 33l25 19c34 -20 55 -47 55 -99c0 -139 -137 -192 -137 -293c0 -30 22 -49 57 -49c89 0 163 125 209 272z" />
    <glyph glyph-name="ucircumflex" unicode="&#xfb;" horiz-adv-x="542" 
d="M157 581l232 175h26c11 -51 41 -132 68 -182l-25 -18c-28 15 -89 84 -108 114l-179 -116zM355 315l50 161h32c24 -46 34 -93 34 -141c0 -144 -115 -206 -115 -294c0 -9 3 -26 11 -40l-28 -8c-32 24 -42 64 -36 123c-38 -74 -96 -126 -174 -126c-87 0 -129 61 -129 133
c0 160 164 235 164 309c0 16 -8 26 -18 33l25 19c34 -20 55 -47 55 -99c0 -139 -137 -192 -137 -293c0 -30 22 -49 57 -49c89 0 163 125 209 272z" />
    <glyph glyph-name="utilde" unicode="&#x169;" horiz-adv-x="542" 
d="M152 594c0 98 43 134 113 134c83 0 96 -74 148 -74c39 0 48 27 51 70h34c0 -95 -47 -132 -114 -132c-78 0 -91 74 -147 74c-39 0 -48 -29 -52 -72h-33zM355 315l50 161h32c24 -46 34 -93 34 -141c0 -144 -115 -206 -115 -294c0 -9 3 -26 11 -40l-28 -8
c-32 24 -42 64 -36 123c-38 -74 -96 -126 -174 -126c-87 0 -129 61 -129 133c0 160 164 235 164 309c0 16 -8 26 -18 33l25 19c34 -20 55 -47 55 -99c0 -139 -137 -192 -137 -293c0 -30 22 -49 57 -49c89 0 163 125 209 272z" />
    <glyph glyph-name="udieresis" unicode="&#xfc;" horiz-adv-x="542" 
d="M201 655c0 37 30 60 61 60c26 0 41 -17 41 -40c0 -36 -29 -59 -62 -59c-26 0 -40 18 -40 39zM379 655c0 37 30 60 61 60c26 0 41 -17 41 -40c0 -36 -30 -59 -62 -59c-26 0 -40 18 -40 39zM355 315l50 161h32c24 -46 34 -93 34 -141c0 -144 -115 -206 -115 -294
c0 -9 3 -26 11 -40l-28 -8c-32 24 -42 64 -36 123c-38 -74 -96 -126 -174 -126c-87 0 -129 61 -129 133c0 160 164 235 164 309c0 16 -8 26 -18 33l25 19c34 -20 55 -47 55 -99c0 -139 -137 -192 -137 -293c0 -30 22 -49 57 -49c89 0 163 125 209 272z" />
    <glyph glyph-name="umacron" unicode="&#x16b;" horiz-adv-x="542" 
d="M197 704h287l-26 -58h-288zM355 315l50 161h32c24 -46 34 -93 34 -141c0 -144 -115 -206 -115 -294c0 -9 3 -26 11 -40l-28 -8c-32 24 -42 64 -36 123c-38 -74 -96 -126 -174 -126c-87 0 -129 61 -129 133c0 160 164 235 164 309c0 16 -8 26 -18 33l25 19
c34 -20 55 -47 55 -99c0 -139 -137 -192 -137 -293c0 -30 22 -49 57 -49c89 0 163 125 209 272z" />
    <glyph glyph-name="ubreve" unicode="&#x16d;" horiz-adv-x="542" 
d="M311 574c-64 0 -89 35 -94 72c-5 35 5 65 28 100h25c-4 -43 -2 -103 80 -103c75 0 125 57 155 103h32c-25 -79 -107 -172 -226 -172zM355 315l50 161h32c24 -46 34 -93 34 -141c0 -144 -115 -206 -115 -294c0 -9 3 -26 11 -40l-28 -8c-32 24 -42 64 -36 123
c-38 -74 -96 -126 -174 -126c-87 0 -129 61 -129 133c0 160 164 235 164 309c0 16 -8 26 -18 33l25 19c34 -20 55 -47 55 -99c0 -139 -137 -192 -137 -293c0 -30 22 -49 57 -49c89 0 163 125 209 272z" />
    <glyph glyph-name="uring" unicode="&#x16f;" horiz-adv-x="542" 
d="M226 661c0 63 53 115 126 115c63 0 99 -39 99 -89c0 -66 -55 -114 -126 -114c-61 0 -99 34 -99 88zM392 686c0 30 -14 52 -45 52c-35 0 -63 -31 -63 -76c0 -29 11 -52 46 -52c40 0 62 42 62 76zM355 315l50 161h32c24 -46 34 -93 34 -141c0 -144 -115 -206 -115 -294
c0 -9 3 -26 11 -40l-28 -8c-32 24 -42 64 -36 123c-38 -74 -96 -126 -174 -126c-87 0 -129 61 -129 133c0 160 164 235 164 309c0 16 -8 26 -18 33l25 19c34 -20 55 -47 55 -99c0 -139 -137 -192 -137 -293c0 -30 22 -49 57 -49c89 0 163 125 209 272z" />
    <glyph glyph-name="uhungarumlaut" unicode="&#x171;" horiz-adv-x="542" 
d="M203 575l130 189l68 -44l-172 -168zM376 575l136 186l65 -48l-175 -161zM355 315l50 161h32c24 -46 34 -93 34 -141c0 -144 -115 -206 -115 -294c0 -9 3 -26 11 -40l-28 -8c-32 24 -42 64 -36 123c-38 -74 -96 -126 -174 -126c-87 0 -129 61 -129 133
c0 160 164 235 164 309c0 16 -8 26 -18 33l25 19c34 -20 55 -47 55 -99c0 -139 -137 -192 -137 -293c0 -30 22 -49 57 -49c89 0 163 125 209 272z" />
    <glyph glyph-name="uogonek" unicode="&#x173;" horiz-adv-x="542" 
d="M220 -139c0 56 41 94 112 138c-27 25 -35 63 -29 117c-38 -74 -96 -126 -174 -126c-87 0 -129 61 -129 133c0 160 164 235 164 309c0 16 -8 26 -18 33l25 19c34 -20 55 -47 55 -99c0 -139 -137 -192 -137 -293c0 -30 22 -49 57 -49c89 0 163 125 209 272l50 161h32
c24 -46 34 -93 34 -141c0 -144 -115 -206 -115 -294c0 -9 3 -26 11 -40c-51 -47 -75 -86 -75 -123c0 -21 8 -35 29 -35c25 0 40 18 46 41h21c-9 -54 -37 -93 -98 -93c-48 0 -70 30 -70 70z" />
    <glyph glyph-name="wgrave" unicode="&#x1e81;" horiz-adv-x="699" 
d="M299 707c0 20 21 42 45 42c44 0 65 -93 120 -176l-20 -19c-67 70 -145 111 -145 153zM319 0c-27 62 -29 139 -29 200c-26 -31 -58 -67 -89 -101c-34 -37 -67 -73 -92 -99h-25c-33 59 -57 109 -57 162c0 132 98 191 98 274c0 15 -5 31 -11 38l28 8c26 -25 38 -55 38 -97
c0 -56 -20 -136 -37 -225l-14 -71h5c177 186 208 265 208 331c0 14 -2 40 -13 54l17 8c44 -19 70 -62 70 -121c0 -34 -9 -85 -36 -205l-15 -67h4c144 153 195 274 195 341c0 14 -1 29 -8 45l16 6c44 -10 84 -53 84 -113c0 -106 -145 -211 -217 -272c-31 -26 -75 -67 -99 -96
h-21z" />
    <glyph glyph-name="wacute" unicode="&#x1e83;" horiz-adv-x="699" 
d="M353 573c100 97 132 171 174 171c22 0 40 -18 40 -38c0 -48 -83 -70 -199 -152zM319 0c-27 62 -29 139 -29 200c-26 -31 -58 -67 -89 -101c-34 -37 -67 -73 -92 -99h-25c-33 59 -57 109 -57 162c0 132 98 191 98 274c0 15 -5 31 -11 38l28 8c26 -25 38 -55 38 -97
c0 -56 -20 -136 -37 -225l-14 -71h5c177 186 208 265 208 331c0 14 -2 40 -13 54l17 8c44 -19 70 -62 70 -121c0 -34 -9 -85 -36 -205l-15 -67h4c144 153 195 274 195 341c0 14 -1 29 -8 45l16 6c44 -10 84 -53 84 -113c0 -106 -145 -211 -217 -272c-31 -26 -75 -67 -99 -96
h-21z" />
    <glyph glyph-name="wcircumflex" unicode="&#x175;" horiz-adv-x="699" 
d="M232 581l232 175h26c11 -51 41 -132 68 -182l-25 -18c-28 15 -89 84 -108 114l-179 -116zM319 0c-27 62 -29 139 -29 200c-26 -31 -58 -67 -89 -101c-34 -37 -67 -73 -92 -99h-25c-33 59 -57 109 -57 162c0 132 98 191 98 274c0 15 -5 31 -11 38l28 8
c26 -25 38 -55 38 -97c0 -56 -20 -136 -37 -225l-14 -71h5c177 186 208 265 208 331c0 14 -2 40 -13 54l17 8c44 -19 70 -62 70 -121c0 -34 -9 -85 -36 -205l-15 -67h4c144 153 195 274 195 341c0 14 -1 29 -8 45l16 6c44 -10 84 -53 84 -113c0 -106 -145 -211 -217 -272
c-31 -26 -75 -67 -99 -96h-21z" />
    <glyph glyph-name="wdieresis" unicode="&#x1e85;" horiz-adv-x="699" 
d="M262 655c0 37 30 60 61 60c26 0 41 -17 41 -40c0 -36 -29 -59 -62 -59c-26 0 -40 18 -40 39zM440 655c0 37 30 60 61 60c26 0 41 -17 41 -40c0 -36 -30 -59 -62 -59c-26 0 -40 18 -40 39zM319 0c-27 62 -29 139 -29 200c-26 -31 -58 -67 -89 -101
c-34 -37 -67 -73 -92 -99h-25c-33 59 -57 109 -57 162c0 132 98 191 98 274c0 15 -5 31 -11 38l28 8c26 -25 38 -55 38 -97c0 -56 -20 -136 -37 -225l-14 -71h5c177 186 208 265 208 331c0 14 -2 40 -13 54l17 8c44 -19 70 -62 70 -121c0 -34 -9 -85 -36 -205l-15 -67h4
c144 153 195 274 195 341c0 14 -1 29 -8 45l16 6c44 -10 84 -53 84 -113c0 -106 -145 -211 -217 -272c-31 -26 -75 -67 -99 -96h-21z" />
    <glyph glyph-name="ygrave" unicode="&#x1ef3;" horiz-adv-x="473" 
d="M163 707c0 20 21 42 45 42c44 0 65 -93 120 -176l-20 -19c-67 70 -145 111 -145 153zM438 370c0 -117 -193 -227 -276 -299c-23 -20 -58 -54 -78 -141c-25 -108 -47 -180 -136 -180c-65 0 -85 39 -87 81c-1 21 4 42 12 56h36c-2 -11 -4 -21 -4 -33c0 -31 9 -58 47 -58
c55 0 80 64 80 157v209c0 148 88 189 88 274c0 20 -6 31 -11 38l29 8c26 -25 37 -54 37 -97c0 -39 -13 -113 -37 -218l-16 -70h6c174 176 218 251 218 331c0 13 -1 29 -8 47l15 6c51 -11 85 -55 85 -111z" />
    <glyph glyph-name="yacute" unicode="&#xfd;" horiz-adv-x="473" 
d="M235 573c100 97 132 171 174 171c22 0 40 -18 40 -38c0 -48 -83 -70 -199 -152zM438 370c0 -117 -193 -227 -276 -299c-23 -20 -58 -54 -78 -141c-25 -108 -47 -180 -136 -180c-65 0 -85 39 -87 81c-1 21 4 42 12 56h36c-2 -11 -4 -21 -4 -33c0 -31 9 -58 47 -58
c55 0 80 64 80 157v209c0 148 88 189 88 274c0 20 -6 31 -11 38l29 8c26 -25 37 -54 37 -97c0 -39 -13 -113 -37 -218l-16 -70h6c174 176 218 251 218 331c0 13 -1 29 -8 47l15 6c51 -11 85 -55 85 -111z" />
    <glyph glyph-name="ycircumflex" unicode="&#x177;" horiz-adv-x="473" 
d="M143 581l232 175h26c11 -51 41 -132 68 -182l-25 -18c-28 15 -89 84 -108 114l-179 -116zM438 370c0 -117 -193 -227 -276 -299c-23 -20 -58 -54 -78 -141c-25 -108 -47 -180 -136 -180c-65 0 -85 39 -87 81c-1 21 4 42 12 56h36c-2 -11 -4 -21 -4 -33
c0 -31 9 -58 47 -58c55 0 80 64 80 157v209c0 148 88 189 88 274c0 20 -6 31 -11 38l29 8c26 -25 37 -54 37 -97c0 -39 -13 -113 -37 -218l-16 -70h6c174 176 218 251 218 331c0 13 -1 29 -8 47l15 6c51 -11 85 -55 85 -111z" />
    <glyph glyph-name="ydieresis" unicode="&#xff;" horiz-adv-x="473" 
d="M168 655c0 37 30 60 61 60c26 0 41 -17 41 -40c0 -36 -29 -59 -62 -59c-26 0 -40 18 -40 39zM346 655c0 37 30 60 61 60c26 0 41 -17 41 -40c0 -36 -30 -59 -62 -59c-26 0 -40 18 -40 39zM438 370c0 -117 -193 -227 -276 -299c-23 -20 -58 -54 -78 -141
c-25 -108 -47 -180 -136 -180c-65 0 -85 39 -87 81c-1 21 4 42 12 56h36c-2 -11 -4 -21 -4 -33c0 -31 9 -58 47 -58c55 0 80 64 80 157v209c0 148 88 189 88 274c0 20 -6 31 -11 38l29 8c26 -25 37 -54 37 -97c0 -39 -13 -113 -37 -218l-16 -70h6c174 176 218 251 218 331
c0 13 -1 29 -8 47l15 6c51 -11 85 -55 85 -111z" />
    <glyph glyph-name="zacute" unicode="&#x17a;" horiz-adv-x="430" 
d="M194 573c100 97 132 171 174 171c22 0 40 -18 40 -38c0 -48 -83 -70 -199 -152zM347 106c0 0 -20 -114 -125 -114c-78 0 -127 29 -174 29c-51 0 -78 -26 -78 -26l-23 30s22 34 55 67l297 300h-140c-54 0 -78 -19 -93 -34l-21 17s36 105 131 105c58 0 112 -23 159 -23
c45 0 79 23 79 23l20 -29s-31 -32 -63 -64l-305 -306h163c60 0 77 15 99 37z" />
    <glyph glyph-name="zcaron" unicode="&#x17e;" horiz-adv-x="430" 
d="M169 734l35 22c28 -14 73 -68 105 -122l179 119l14 -27l-232 -174h-26c-22 77 -54 148 -75 182zM347 106c0 0 -20 -114 -125 -114c-78 0 -127 29 -174 29c-51 0 -78 -26 -78 -26l-23 30s22 34 55 67l297 300h-140c-54 0 -78 -19 -93 -34l-21 17s36 105 131 105
c58 0 112 -23 159 -23c45 0 79 23 79 23l20 -29s-31 -32 -63 -64l-305 -306h163c60 0 77 15 99 37z" />
    <glyph glyph-name="zdotaccent" unicode="&#x17c;" horiz-adv-x="430" 
d="M266 592c-29 0 -51 19 -51 47c0 39 28 64 63 64c30 0 51 -20 51 -48c0 -38 -27 -63 -63 -63zM347 106c0 0 -20 -114 -125 -114c-78 0 -127 29 -174 29c-51 0 -78 -26 -78 -26l-23 30s22 34 55 67l297 300h-140c-54 0 -78 -19 -93 -34l-21 17s36 105 131 105
c58 0 112 -23 159 -23c45 0 79 23 79 23l20 -29s-31 -32 -63 -64l-305 -306h163c60 0 77 15 99 37z" />
    <glyph glyph-name="schwa" unicode="&#x259;" horiz-adv-x="464" 
d="M64 318c-6 105 63 167 170 167c122 0 173 -73 173 -180c0 -161 -149 -315 -286 -315c-88 0 -136 45 -136 112c0 57 39 101 96 119c46 15 109 21 199 19c33 69 48 80 48 122c0 48 -36 75 -95 75c-86 0 -125 -37 -130 -119h-39zM133 28c67 0 78 61 135 180
c-35 0 -91 0 -123 -18c-29 -16 -39 -44 -46 -61c-22 -58 -15 -101 34 -101z" />
    <glyph glyph-name="eng" unicode="&#x14b;" horiz-adv-x="543" 
d="M173 -250c-67 0 -95 42 -95 85c0 20 5 39 12 55h39c-10 -45 -11 -94 48 -94c55 0 84 63 84 178v99c0 169 137 208 137 310c0 30 -21 48 -56 48c-86 0 -164 -124 -210 -271l-50 -160h-32c-24 46 -34 92 -34 140c0 144 115 206 115 294c0 9 -3 26 -11 40l28 8
c32 -24 42 -64 36 -123c38 74 96 126 174 126c87 0 129 -61 129 -133c0 -68 -37 -137 -66 -199l-67 -145c-49 -107 -62 -258 -181 -258z" />
    <glyph glyph-name="eth" unicode="&#xf0;" horiz-adv-x="547" 
d="M163 -10c-128 0 -160 86 -160 179c0 159 124 311 286 311c61 0 108 -30 126 -81c5 24 7 47 7 67c1 54 -12 97 -35 127l-113 -67l-20 34l104 61c-28 21 -63 31 -103 31c-13 0 -26 -1 -40 -3l-8 34c15 7 45 10 67 10c55 0 100 -15 136 -41l89 53l19 -33l-78 -47
c46 -49 70 -122 70 -205c0 -185 -147 -430 -347 -430zM322 223c31 76 54 100 54 142c0 33 -25 75 -84 75c-95 0 -103 -93 -149 -198c-33 -76 -57 -104 -57 -145c0 -38 21 -67 80 -67c93 0 112 85 156 193z" />
    <glyph glyph-name="thorn" unicode="&#xfe;" horiz-adv-x="558" 
d="M230 -10c-64 0 -106 38 -115 96l-9 -28l-91 -299h-29c-23 41 -36 94 -36 151c0 162 88 306 182 479c44 81 71 159 71 249c0 30 -8 53 -12 63l31 9c22 -30 34 -71 34 -117c0 -52 -10 -102 -29 -164c37 37 80 56 131 56c85 0 138 -50 138 -148c0 -155 -123 -347 -266 -347z
M347 228c36 86 72 104 72 149c0 38 -30 59 -71 59c-83 0 -152 -87 -195 -251c-23 -86 12 -147 70 -147c91 0 84 94 124 190z" />
    <glyph glyph-name="A.small" horiz-adv-x="511" 
d="M265 0c-1 41 13 101 25 154l9 37h-199c-26 -55 -40 -117 -46 -191h-28c-29 26 -51 62 -51 105c0 83 86 177 202 270l187 150h33c30 -42 49 -93 49 -155c0 -140 -100 -227 -151 -370h-30zM308 231l55 236l-128 -109c-50 -42 -87 -83 -114 -127h187z" />
    <glyph glyph-name="B.small" horiz-adv-x="523" 
d="M13 0c-5 38 -8 75 -8 111c0 185 117 283 169 413c23 0 109 5 153 5c104 0 168 -41 168 -110c0 -103 -110 -142 -211 -148c87 -5 138 -47 138 -108c0 -105 -111 -167 -249 -167c-48 0 -96 4 -160 4zM302 489c-24 0 -61 -1 -88 -5c-12 -65 -25 -115 -51 -189h52
c81 0 126 1 152 65c20 50 30 55 30 81c0 30 -26 48 -95 48zM205 255h-56l-81 -212c24 -2 63 -6 86 -6c106 0 120 40 144 94c14 33 26 47 26 73c0 35 -32 51 -119 51z" />
    <glyph glyph-name="C.small" horiz-adv-x="514" 
d="M196 -10c-123 0 -186 68 -186 165c0 186 152 378 343 378c96 0 136 -49 136 -109c0 -50 -37 -82 -83 -82c-13 0 -25 3 -34 9v21c40 13 58 34 58 65c0 36 -26 55 -76 55c-66 0 -93 -27 -108 -56c-23 -45 -33 -90 -64 -162c-53 -118 -91 -106 -91 -167
c0 -41 28 -71 109 -71c105 0 157 53 170 138h40c0 -115 -89 -184 -214 -184z" />
    <glyph glyph-name="D.small" horiz-adv-x="582" 
d="M5 105c0 185 109 290 167 420h133c174 0 222 -103 222 -189c0 -163 -160 -336 -378 -336h-141c-2 19 -3 79 -3 105zM73 43h41c127 0 196 19 248 168c43 123 64 125 64 179c0 55 -35 93 -134 93h-75c-11 -63 -37 -131 -70 -227z" />
    <glyph glyph-name="E.small" horiz-adv-x="462" 
d="M361 109c-6 -71 -38 -119 -110 -119c-67 0 -162 27 -231 32c-10 35 -15 73 -15 110c0 167 129 249 182 393l203 -10c49 -3 69 4 81 17h11c0 -76 -32 -90 -76 -90c-62 0 -145 28 -193 40c-8 -48 -26 -114 -50 -185h191l-14 -44h-192l-70 -191h155c66 0 101 18 111 47h17z
" />
    <glyph glyph-name="F.small" horiz-adv-x="433" 
d="M148 240l-90 -240h-32c-15 46 -21 95 -21 131c0 167 127 246 182 393l195 -10c48 -3 68 4 80 17h11c0 -76 -32 -90 -75 -90c-63 0 -137 28 -185 40c-9 -56 -29 -131 -52 -197h180l-14 -44h-179z" />
    <glyph glyph-name="G.small" horiz-adv-x="545" 
d="M373 29c-4 4 -11 9 -17 9c-28 0 -64 -48 -156 -48c-143 0 -190 89 -190 172c0 177 163 371 359 371c97 0 139 -51 139 -107c0 -48 -33 -77 -73 -77c-14 0 -28 3 -35 8v20c23 8 51 21 51 58c0 38 -36 57 -84 57c-61 0 -90 -23 -111 -47c-28 -36 -40 -89 -77 -169
c-57 -121 -88 -117 -88 -167c0 -48 44 -73 112 -73c108 0 148 63 148 126c0 13 -3 25 -12 34c-9 8 -24 13 -49 14v30h166c-10 -42 -48 -154 -83 -211z" />
    <glyph glyph-name="H.small" horiz-adv-x="562" 
d="M300 0c0 34 18 132 63 253h-216l-96 -253h-27c-12 37 -19 88 -19 129c0 180 133 262 183 396h29c0 -31 -16 -121 -54 -228h216l87 228h27c11 -37 19 -89 19 -130c0 -177 -133 -261 -183 -395h-29z" />
    <glyph glyph-name="I.small" horiz-adv-x="252" 
d="M193 524h29c0 -37 -19 -148 -72 -283l-95 -241h-26c-13 47 -19 89 -19 131c0 178 133 260 183 393z" />
    <glyph glyph-name="J.small" horiz-adv-x="304" 
d="M-108 0h33c-7 -42 -3 -79 57 -79c58 0 79 45 79 93v102c0 185 144 290 184 409h29c0 -99 -80 -302 -120 -426c-36 -112 -57 -222 -179 -222c-71 0 -96 37 -96 75c0 20 5 35 13 48z" />
    <glyph glyph-name="K.small" horiz-adv-x="503" 
d="M353 -2c-72 2 -97 34 -97 82c0 68 50 107 50 156c0 18 -6 48 -58 48c-48 0 -98 -38 -125 -108l-70 -176h-27c-14 37 -21 90 -21 125c0 184 133 267 182 400h29c0 -34 -20 -133 -54 -231l298 231h18c8 -10 15 -22 15 -38c0 -59 -107 -92 -253 -174c16 3 29 3 41 3
c105 0 128 -66 128 -107c0 -101 -85 -124 -85 -160c0 -16 14 -22 36 -26z" />
    <glyph glyph-name="L.small" horiz-adv-x="420" 
d="M235 -8c-64 0 -147 25 -215 32c-10 37 -15 72 -15 108c0 178 140 265 184 393h28c0 -46 -27 -166 -72 -281l-72 -177h142c66 2 100 15 111 44h19c0 -68 -35 -119 -110 -119z" />
    <glyph glyph-name="M.small" horiz-adv-x="694" 
d="M194 412l-153 -412h-18c-11 28 -18 62 -18 98c0 159 136 250 203 427h58c12 -109 37 -265 40 -365c92 162 228 311 298 365h27c9 -42 13 -76 13 -122c0 -168 -116 -249 -180 -403h-27c0 45 15 118 37 175l85 237c-81 -94 -212 -262 -294 -412h-30c-7 75 -42 248 -41 412z
" />
    <glyph glyph-name="N.small" horiz-adv-x="602" 
d="M342 0h-40c-11 80 -93 226 -113 396l-149 -396h-16c-10 26 -19 60 -19 97c0 162 140 259 203 428h39c39 -140 95 -312 119 -407l152 407h15c16 -33 24 -66 24 -105c0 -126 -118 -227 -215 -420z" />
    <glyph glyph-name="O.small" horiz-adv-x="573" 
d="M10 170c0 151 127 363 323 363c140 0 185 -94 185 -178c0 -155 -130 -365 -320 -365c-135 0 -188 89 -188 180zM367 246c40 109 60 113 60 169c0 45 -34 78 -96 78c-113 0 -120 -103 -168 -223c-43 -108 -62 -110 -62 -165c0 -46 32 -75 98 -75c119 0 125 100 168 216z
" />
    <glyph glyph-name="P.small" horiz-adv-x="499" 
d="M246 190c-30 0 -84 5 -114 13l-78 -203h-31c-12 35 -18 77 -18 123c0 181 128 280 170 402c21 0 106 5 150 5c100 0 164 -43 164 -126c0 -108 -105 -214 -243 -214zM299 490c-30 0 -72 -3 -82 -5c-9 -62 -26 -124 -49 -185l-21 -55c18 -7 52 -12 86 -12c46 0 78 17 92 40
c14 25 17 35 37 83c19 45 32 53 32 83c0 31 -24 51 -95 51z" />
    <glyph glyph-name="Q.small" horiz-adv-x="573" 
d="M10 170c0 151 127 363 323 363c140 0 185 -94 185 -178c0 -148 -119 -347 -296 -364c-4 -11 -7 -22 -7 -33c0 -30 12 -54 63 -54c56 0 82 36 85 78h34c2 -76 -54 -117 -135 -117c-93 0 -135 50 -135 105c0 10 3 19 6 28c-87 24 -123 97 -123 172zM367 246
c40 109 60 113 60 169c0 45 -34 78 -96 78c-113 0 -120 -103 -168 -223c-43 -108 -62 -110 -62 -165c0 -46 32 -75 98 -75c119 0 125 100 168 216z" />
    <glyph glyph-name="R.small" horiz-adv-x="519" 
d="M366 -2c-79 2 -97 40 -97 86s26 71 26 115c0 34 -24 57 -84 57h-60l-99 -256h-29c-11 37 -18 76 -18 119c0 190 126 286 170 406c27 0 102 5 150 5c105 0 169 -42 169 -111c0 -94 -104 -137 -215 -145c94 -12 124 -46 124 -95c0 -72 -66 -98 -66 -130
c0 -15 14 -23 36 -26zM302 489c-26 0 -58 -1 -87 -4c-10 -60 -31 -125 -51 -188h48c102 0 132 17 156 71c16 36 26 49 26 73c0 27 -18 48 -92 48z" />
    <glyph glyph-name="S.small" horiz-adv-x="474" 
d="M7 186h39c-16 -83 -5 -150 99 -150c86 0 126 42 126 92s-45 67 -100 94c-56 28 -102 56 -102 137c0 84 63 174 212 174c93 0 143 -52 143 -110c0 -21 -7 -43 -18 -57h-42c11 46 13 122 -91 122c-89 0 -129 -44 -129 -94c0 -55 44 -63 99 -80c62 -21 124 -47 124 -137
c0 -81 -74 -186 -227 -186c-118 0 -155 69 -155 125c0 24 8 50 22 70z" />
    <glyph glyph-name="T.small" horiz-adv-x="457" 
d="M39 408h-19c3 43 34 123 144 123c96 0 193 -28 270 -28c26 0 71 -1 85 31h18c-5 -52 -41 -84 -147 -84h-80l-167 -450h-34c-10 35 -21 75 -21 111c0 137 111 239 168 339h-115c-56 0 -83 -10 -102 -42z" />
    <glyph glyph-name="U.small" horiz-adv-x="559" 
d="M10 140c0 170 129 234 195 385h34c-2 -40 -15 -90 -34 -145l-57 -161c-19 -54 -33 -94 -32 -124c0 -36 20 -62 75 -62c94 0 153 91 196 242l71 250h30c13 -42 21 -89 21 -131c0 -166 -132 -404 -323 -404c-113 0 -176 62 -176 150z" />
    <glyph glyph-name="V.small" horiz-adv-x="503" 
d="M95 0h-36c-28 40 -49 97 -49 159c0 140 108 218 152 366h32c0 -52 -10 -112 -23 -165l-74 -297l125 103c130 106 181 191 190 359h28c33 -23 53 -55 53 -105c0 -84 -99 -170 -213 -268z" />
    <glyph glyph-name="W.small" horiz-adv-x="721" 
d="M323 0c-21 50 -33 127 -22 216c-39 -47 -137 -151 -206 -216h-38c-27 41 -47 97 -47 159c0 139 105 213 151 366h32c1 -51 -9 -111 -22 -165l-74 -298c120 131 269 272 299 463h26c26 -47 27 -122 9 -193l-67 -269l102 102c89 89 157 185 164 360h28
c38 -29 53 -64 53 -110c0 -95 -96 -179 -188 -263l-166 -152h-34z" />
    <glyph glyph-name="X.small" horiz-adv-x="463" 
d="M214 183l-27 40l-178 -223h-25c-13 16 -19 34 -19 49c0 57 94 114 202 203l-16 24c-42 61 -67 98 -67 137c0 48 20 81 55 112h21c-9 -63 5 -90 66 -181l18 -27l175 208h25c14 -13 19 -30 19 -45c0 -57 -92 -103 -199 -193l27 -41c37 -51 59 -88 59 -132
c0 -48 -28 -88 -57 -114h-22c11 73 -8 107 -57 183z" />
    <glyph glyph-name="Y.small" horiz-adv-x="412" 
d="M101 0h-30c-17 23 -31 49 -31 78c0 52 41 91 90 147l-37 78c-52 110 -32 165 37 222h20c-13 -57 -1 -92 28 -176l22 -56l203 232h20c13 -12 19 -27 19 -43c0 -73 -129 -137 -222 -231c-35 -35 -51 -55 -71 -112z" />
    <glyph glyph-name="Z.small" horiz-adv-x="490" 
d="M500 505c-103 -147 -286 -303 -429 -423h180c65 0 101 11 112 40h20c0 -81 -43 -129 -112 -129c-55 0 -175 37 -254 44c-16 -14 -32 -27 -46 -39l-21 20c136 191 297 332 428 432h-162c-70 0 -93 -11 -109 -43h-22c0 37 25 124 121 124c64 0 173 -35 224 -42
c17 13 33 25 49 36z" />
    <glyph glyph-name="Agrave.small" horiz-adv-x="511" 
d="M249 757c0 20 21 42 45 42c44 0 65 -93 120 -176l-20 -19c-67 70 -145 111 -145 153zM265 0c-1 41 13 101 25 154l9 37h-199c-26 -55 -40 -117 -46 -191h-28c-29 26 -51 62 -51 105c0 83 86 177 202 270l187 150h33c30 -42 49 -93 49 -155c0 -140 -100 -227 -151 -370
h-30zM308 231l55 236l-128 -109c-50 -42 -87 -83 -114 -127h187z" />
    <glyph glyph-name="Aacute.small" horiz-adv-x="511" 
d="M351 623c100 97 132 171 174 171c22 0 40 -18 40 -38c0 -48 -83 -70 -199 -152zM265 0c-1 41 13 101 25 154l9 37h-199c-26 -55 -40 -117 -46 -191h-28c-29 26 -51 62 -51 105c0 83 86 177 202 270l187 150h33c30 -42 49 -93 49 -155c0 -140 -100 -227 -151 -370h-30z
M308 231l55 236l-128 -109c-50 -42 -87 -83 -114 -127h187z" />
    <glyph glyph-name="Acircumflex.small" horiz-adv-x="511" 
d="M229 631l232 175h26c11 -51 41 -132 68 -182l-25 -18c-28 15 -89 84 -108 114l-179 -116zM265 0c-1 41 13 101 25 154l9 37h-199c-26 -55 -40 -117 -46 -191h-28c-29 26 -51 62 -51 105c0 83 86 177 202 270l187 150h33c30 -42 49 -93 49 -155
c0 -140 -100 -227 -151 -370h-30zM308 231l55 236l-128 -109c-50 -42 -87 -83 -114 -127h187z" />
    <glyph glyph-name="Atilde.small" horiz-adv-x="511" 
d="M236 644c0 98 43 134 113 134c83 0 96 -74 148 -74c39 0 48 27 51 70h34c0 -95 -47 -132 -114 -132c-78 0 -91 74 -147 74c-39 0 -48 -29 -52 -72h-33zM265 0c-1 41 13 101 25 154l9 37h-199c-26 -55 -40 -117 -46 -191h-28c-29 26 -51 62 -51 105c0 83 86 177 202 270
l187 150h33c30 -42 49 -93 49 -155c0 -140 -100 -227 -151 -370h-30zM308 231l55 236l-128 -109c-50 -42 -87 -83 -114 -127h187z" />
    <glyph glyph-name="Adieresis.small" horiz-adv-x="511" 
d="M271 705c0 37 30 60 61 60c26 0 41 -17 41 -40c0 -36 -29 -59 -62 -59c-26 0 -40 18 -40 39zM449 705c0 37 30 60 61 60c26 0 41 -17 41 -40c0 -36 -30 -59 -62 -59c-26 0 -40 18 -40 39zM265 0c-1 41 13 101 25 154l9 37h-199c-26 -55 -40 -117 -46 -191h-28
c-29 26 -51 62 -51 105c0 83 86 177 202 270l187 150h33c30 -42 49 -93 49 -155c0 -140 -100 -227 -151 -370h-30zM308 231l55 236l-128 -109c-50 -42 -87 -83 -114 -127h187z" />
    <glyph glyph-name="Amacron.small" horiz-adv-x="511" 
d="M284 754h287l-26 -58h-288zM265 0c-1 41 13 101 25 154l9 37h-199c-26 -55 -40 -117 -46 -191h-28c-29 26 -51 62 -51 105c0 83 86 177 202 270l187 150h33c30 -42 49 -93 49 -155c0 -140 -100 -227 -151 -370h-30zM308 231l55 236l-128 -109c-50 -42 -87 -83 -114 -127
h187z" />
    <glyph glyph-name="Abreve.small" horiz-adv-x="511" 
d="M400 624c-64 0 -89 35 -94 72c-5 35 5 65 28 100h25c-4 -43 -2 -103 80 -103c75 0 125 57 155 103h32c-25 -79 -107 -172 -226 -172zM265 0c-1 41 13 101 25 154l9 37h-199c-26 -55 -40 -117 -46 -191h-28c-29 26 -51 62 -51 105c0 83 86 177 202 270l187 150h33
c30 -42 49 -93 49 -155c0 -140 -100 -227 -151 -370h-30zM308 231l55 236l-128 -109c-50 -42 -87 -83 -114 -127h187z" />
    <glyph glyph-name="Aring.small" horiz-adv-x="511" 
d="M301 711c0 63 53 115 126 115c63 0 99 -39 99 -89c0 -66 -55 -114 -126 -114c-61 0 -99 34 -99 88zM467 736c0 30 -14 52 -45 52c-35 0 -63 -31 -63 -76c0 -29 11 -52 46 -52c40 0 62 42 62 76zM265 0c-1 41 13 101 25 154l9 37h-199c-26 -55 -40 -117 -46 -191h-28
c-29 26 -51 62 -51 105c0 83 86 177 202 270l187 150h33c30 -42 49 -93 49 -155c0 -140 -100 -227 -151 -370h-30zM308 231l55 236l-128 -109c-50 -42 -87 -83 -114 -127h187z" />
    <glyph glyph-name="Aringacute.small" horiz-adv-x="511" 
d="M374 854c98 51 148 105 193 105c23 0 40 -19 40 -43c0 -23 -16 -37 -39 -44c-30 -7 -116 -23 -184 -44zM297 670c0 63 53 115 126 115c63 0 99 -39 99 -89c0 -66 -55 -114 -126 -114c-61 0 -99 34 -99 88zM463 695c0 30 -14 52 -45 52c-35 0 -63 -31 -63 -76
c0 -29 11 -52 46 -52c40 0 62 42 62 76zM265 0c-1 41 13 101 25 154l9 37h-199c-26 -55 -40 -117 -46 -191h-28c-29 26 -51 62 -51 105c0 83 86 177 202 270l187 150h33c30 -42 49 -93 49 -155c0 -140 -100 -227 -151 -370h-30zM308 231l55 236l-128 -109
c-50 -42 -87 -83 -114 -127h187z" />
    <glyph glyph-name="Aogonek.small" horiz-adv-x="511" 
d="M151 -139c0 59 47 98 114 150c1 40 14 95 25 143l9 37h-199c-26 -55 -40 -117 -46 -191h-28c-29 26 -51 62 -51 105c0 83 86 177 202 270l187 150h33c30 -42 49 -93 49 -155c0 -140 -100 -227 -151 -370c-43 -42 -72 -84 -72 -122c0 -21 8 -35 29 -35c25 0 40 18 46 41
h22c-10 -54 -38 -93 -99 -93c-48 0 -70 30 -70 70zM308 231l55 236l-128 -109c-50 -42 -87 -83 -114 -127h187z" />
    <glyph glyph-name="AE.small" horiz-adv-x="732" 
d="M631 109c-6 -71 -38 -119 -110 -119c-67 0 -182 32 -246 32c-1 41 3 80 15 132l9 39h-200c-26 -56 -39 -118 -45 -193h-28c-29 26 -51 62 -51 105c0 83 86 177 202 270l187 150c53 0 182 -5 296 -10c49 -2 69 4 81 17h11c0 -76 -32 -90 -76 -90c-62 0 -145 28 -193 40
c-8 -48 -26 -114 -50 -185h191l-14 -42h-192l-70 -193h155c66 0 101 18 111 47h17zM308 231l55 239l-128 -109c-51 -42 -88 -85 -116 -130h189z" />
    <glyph glyph-name="AEacute.small" horiz-adv-x="732" 
d="M505 623c100 97 132 171 174 171c22 0 40 -18 40 -38c0 -48 -83 -70 -199 -152zM631 109c-6 -71 -38 -119 -110 -119c-67 0 -182 32 -246 32c-1 41 3 80 15 132l9 39h-200c-26 -56 -39 -118 -45 -193h-28c-29 26 -51 62 -51 105c0 83 86 177 202 270l187 150
c53 0 182 -5 296 -10c49 -2 69 4 81 17h11c0 -76 -32 -90 -76 -90c-62 0 -145 28 -193 40c-8 -48 -26 -114 -50 -185h191l-14 -42h-192l-70 -193h155c66 0 101 18 111 47h17zM308 231l55 239l-128 -109c-51 -42 -88 -85 -116 -130h189z" />
    <glyph glyph-name="Cacute.small" horiz-adv-x="514" 
d="M326 623c100 97 132 171 174 171c22 0 40 -18 40 -38c0 -48 -83 -70 -199 -152zM196 -10c-123 0 -186 68 -186 165c0 186 152 378 343 378c96 0 136 -49 136 -109c0 -50 -37 -82 -83 -82c-13 0 -25 3 -34 9v21c40 13 58 34 58 65c0 36 -26 55 -76 55
c-66 0 -93 -27 -108 -56c-23 -45 -33 -90 -64 -162c-53 -118 -91 -106 -91 -167c0 -41 28 -71 109 -71c105 0 157 53 170 138h40c0 -115 -89 -184 -214 -184z" />
    <glyph glyph-name="Ccircumflex.small" horiz-adv-x="514" 
d="M229 631l232 175h26c11 -51 41 -132 68 -182l-25 -18c-28 15 -89 84 -108 114l-179 -116zM196 -10c-123 0 -186 68 -186 165c0 186 152 378 343 378c96 0 136 -49 136 -109c0 -50 -37 -82 -83 -82c-13 0 -25 3 -34 9v21c40 13 58 34 58 65c0 36 -26 55 -76 55
c-66 0 -93 -27 -108 -56c-23 -45 -33 -90 -64 -162c-53 -118 -91 -106 -91 -167c0 -41 28 -71 109 -71c105 0 157 53 170 138h40c0 -115 -89 -184 -214 -184z" />
    <glyph glyph-name="Ccaron.small" horiz-adv-x="514" 
d="M285 784l35 22c28 -14 73 -68 105 -122l179 119l14 -27l-232 -174h-26c-22 77 -54 148 -75 182zM196 -10c-123 0 -186 68 -186 165c0 186 152 378 343 378c96 0 136 -49 136 -109c0 -50 -37 -82 -83 -82c-13 0 -25 3 -34 9v21c40 13 58 34 58 65c0 36 -26 55 -76 55
c-66 0 -93 -27 -108 -56c-23 -45 -33 -90 -64 -162c-53 -118 -91 -106 -91 -167c0 -41 28 -71 109 -71c105 0 157 53 170 138h40c0 -115 -89 -184 -214 -184z" />
    <glyph glyph-name="Cdotaccent.small" horiz-adv-x="514" 
d="M395 642c-29 0 -51 19 -51 47c0 39 28 64 63 64c30 0 51 -20 51 -48c0 -38 -27 -63 -63 -63zM196 -10c-123 0 -186 68 -186 165c0 186 152 378 343 378c96 0 136 -49 136 -109c0 -50 -37 -82 -83 -82c-13 0 -25 3 -34 9v21c40 13 58 34 58 65c0 36 -26 55 -76 55
c-66 0 -93 -27 -108 -56c-23 -45 -33 -90 -64 -162c-53 -118 -91 -106 -91 -167c0 -41 28 -71 109 -71c105 0 157 53 170 138h40c0 -115 -89 -184 -214 -184z" />
    <glyph glyph-name="Ccedilla.small" horiz-adv-x="514" 
d="M118 -115h21c0 -28 9 -49 39 -49c27 0 45 18 45 48c0 21 -13 35 -36 35c-7 0 -14 -1 -20 -3l-18 18l30 56c-112 7 -169 73 -169 165c0 186 152 378 343 378c96 0 136 -49 136 -109c0 -50 -37 -82 -83 -82c-13 0 -25 3 -34 9v21c40 13 58 34 58 65c0 36 -26 55 -76 55
c-66 0 -93 -27 -108 -56c-23 -45 -33 -90 -64 -162c-53 -118 -91 -106 -91 -167c0 -41 28 -71 109 -71c105 0 157 53 170 138h40c0 -109 -80 -177 -195 -183l-14 -39c52 8 81 -19 81 -61c0 -57 -46 -91 -98 -91c-63 0 -74 50 -66 85z" />
    <glyph glyph-name="Dcaron.small" horiz-adv-x="582" 
d="M258 784l35 22c28 -14 73 -68 105 -122l179 119l14 -27l-232 -174h-26c-22 77 -54 148 -75 182zM5 105c0 185 109 290 167 420h133c174 0 222 -103 222 -189c0 -163 -160 -336 -378 -336h-141c-2 19 -3 79 -3 105zM73 43h41c127 0 196 19 248 168c43 123 64 125 64 179
c0 55 -35 93 -134 93h-75c-11 -63 -37 -131 -70 -227z" />
    <glyph glyph-name="Dcroat.small" horiz-adv-x="593" 
d="M16 105c0 55 10 103 25 147h-61l12 40h65c37 84 91 154 126 233h133c174 0 222 -103 222 -189c0 -163 -160 -336 -378 -336h-141c-2 19 -3 79 -3 105zM84 43h41c127 0 196 19 248 168c43 123 64 125 64 179c0 55 -35 93 -134 93h-75c-10 -55 -31 -113 -58 -191h121
l-12 -40h-122z" />
    <glyph glyph-name="Egrave.small" horiz-adv-x="462" 
d="M240 757c0 20 21 42 45 42c44 0 65 -93 120 -176l-20 -19c-67 70 -145 111 -145 153zM361 109c-6 -71 -38 -119 -110 -119c-67 0 -162 27 -231 32c-10 35 -15 73 -15 110c0 167 129 249 182 393l203 -10c49 -3 69 4 81 17h11c0 -76 -32 -90 -76 -90
c-62 0 -145 28 -193 40c-8 -48 -26 -114 -50 -185h191l-14 -44h-192l-70 -191h155c66 0 101 18 111 47h17z" />
    <glyph glyph-name="Eacute.small" horiz-adv-x="462" 
d="M306 623c100 97 132 171 174 171c22 0 40 -18 40 -38c0 -48 -83 -70 -199 -152zM361 109c-6 -71 -38 -119 -110 -119c-67 0 -162 27 -231 32c-10 35 -15 73 -15 110c0 167 129 249 182 393l203 -10c49 -3 69 4 81 17h11c0 -76 -32 -90 -76 -90c-62 0 -145 28 -193 40
c-8 -48 -26 -114 -50 -185h191l-14 -44h-192l-70 -191h155c66 0 101 18 111 47h17z" />
    <glyph glyph-name="Ecircumflex.small" horiz-adv-x="462" 
d="M192 631l232 175h26c11 -51 41 -132 68 -182l-25 -18c-28 15 -89 84 -108 114l-179 -116zM361 109c-6 -71 -38 -119 -110 -119c-67 0 -162 27 -231 32c-10 35 -15 73 -15 110c0 167 129 249 182 393l203 -10c49 -3 69 4 81 17h11c0 -76 -32 -90 -76 -90
c-62 0 -145 28 -193 40c-8 -48 -26 -114 -50 -185h191l-14 -44h-192l-70 -191h155c66 0 101 18 111 47h17z" />
    <glyph glyph-name="Ecaron.small" horiz-adv-x="462" 
d="M258 784l35 22c28 -14 73 -68 105 -122l179 119l14 -27l-232 -174h-26c-22 77 -54 148 -75 182zM361 109c-6 -71 -38 -119 -110 -119c-67 0 -162 27 -231 32c-10 35 -15 73 -15 110c0 167 129 249 182 393l203 -10c49 -3 69 4 81 17h11c0 -76 -32 -90 -76 -90
c-62 0 -145 28 -193 40c-8 -48 -26 -114 -50 -185h191l-14 -44h-192l-70 -191h155c66 0 101 18 111 47h17z" />
    <glyph glyph-name="Edieresis.small" horiz-adv-x="462" 
d="M235 705c0 37 30 60 61 60c26 0 41 -17 41 -40c0 -36 -29 -59 -62 -59c-26 0 -40 18 -40 39zM413 705c0 37 30 60 61 60c26 0 41 -17 41 -40c0 -36 -30 -59 -62 -59c-26 0 -40 18 -40 39zM361 109c-6 -71 -38 -119 -110 -119c-67 0 -162 27 -231 32
c-10 35 -15 73 -15 110c0 167 129 249 182 393l203 -10c49 -3 69 4 81 17h11c0 -76 -32 -90 -76 -90c-62 0 -145 28 -193 40c-8 -48 -26 -114 -50 -185h191l-14 -44h-192l-70 -191h155c66 0 101 18 111 47h17z" />
    <glyph glyph-name="Emacron.small" horiz-adv-x="462" 
d="M267 754h287l-26 -58h-288zM361 109c-6 -71 -38 -119 -110 -119c-67 0 -162 27 -231 32c-10 35 -15 73 -15 110c0 167 129 249 182 393l203 -10c49 -3 69 4 81 17h11c0 -76 -32 -90 -76 -90c-62 0 -145 28 -193 40c-8 -48 -26 -114 -50 -185h191l-14 -44h-192l-70 -191
h155c66 0 101 18 111 47h17z" />
    <glyph glyph-name="Edotaccent.small" horiz-adv-x="462" 
d="M353 642c-29 0 -51 19 -51 47c0 39 28 64 63 64c30 0 51 -20 51 -48c0 -38 -27 -63 -63 -63zM361 109c-6 -71 -38 -119 -110 -119c-67 0 -162 27 -231 32c-10 35 -15 73 -15 110c0 167 129 249 182 393l203 -10c49 -3 69 4 81 17h11c0 -76 -32 -90 -76 -90
c-62 0 -145 28 -193 40c-8 -48 -26 -114 -50 -185h191l-14 -44h-192l-70 -191h155c66 0 101 18 111 47h17z" />
    <glyph glyph-name="Ebreve.small" horiz-adv-x="462" 
d="M351 624c-64 0 -89 35 -94 72c-5 35 5 65 28 100h25c-4 -43 -2 -103 80 -103c75 0 125 57 155 103h32c-25 -79 -107 -172 -226 -172zM361 109c-6 -71 -38 -119 -110 -119c-67 0 -162 27 -231 32c-10 35 -15 73 -15 110c0 167 129 249 182 393l203 -10c49 -3 69 4 81 17
h11c0 -76 -32 -90 -76 -90c-62 0 -145 28 -193 40c-8 -48 -26 -114 -50 -185h191l-14 -44h-192l-70 -191h155c66 0 101 18 111 47h17z" />
    <glyph glyph-name="Eogonek.small" horiz-adv-x="462" 
d="M173 -135c0 49 33 88 82 125h-4c-67 0 -162 27 -231 32c-10 35 -15 73 -15 110c0 167 129 249 182 393l203 -10c49 -3 69 4 81 17h11c0 -76 -32 -90 -76 -90c-62 0 -145 28 -193 40c-8 -48 -26 -114 -50 -185h191l-14 -44h-192l-70 -191h155c66 0 101 18 111 47h17
c-4 -46 -18 -82 -47 -102c-54 -47 -69 -90 -69 -124c0 -26 10 -40 31 -40c25 0 40 18 46 41h22c-10 -54 -37 -93 -97 -93c-49 0 -74 28 -74 74z" />
    <glyph glyph-name="FI.small" horiz-adv-x="689" 
d="M148 240l-90 -240h-32c-15 46 -21 95 -21 131c0 167 127 246 182 393l195 -10c48 -3 68 4 80 17h11c0 -76 -32 -90 -75 -90c-63 0 -137 28 -185 40c-9 -56 -29 -131 -52 -197h180l-14 -44h-179zM630 524h29c0 -37 -19 -148 -72 -283l-95 -241h-26c-13 47 -19 89 -19 131
c0 178 133 260 183 393z" />
    <glyph glyph-name="FL.small" horiz-adv-x="857" 
d="M148 240l-90 -240h-32c-15 46 -21 95 -21 131c0 167 127 246 182 393l195 -10c48 -3 68 4 80 17h11c0 -76 -32 -90 -75 -90c-63 0 -137 28 -185 40c-9 -56 -29 -131 -52 -197h180l-14 -44h-179zM672 -8c-64 0 -147 25 -215 32c-10 37 -15 72 -15 108
c0 178 140 265 184 393h28c0 -46 -27 -166 -72 -281l-72 -177h142c66 2 100 15 111 44h19c0 -68 -35 -119 -110 -119z" />
    <glyph glyph-name="Gcircumflex.small" horiz-adv-x="545" 
d="M233 631l232 175h26c11 -51 41 -132 68 -182l-25 -18c-28 15 -89 84 -108 114l-179 -116zM373 29c-4 4 -11 9 -17 9c-28 0 -64 -48 -156 -48c-143 0 -190 89 -190 172c0 177 163 371 359 371c97 0 139 -51 139 -107c0 -48 -33 -77 -73 -77c-14 0 -28 3 -35 8v20
c23 8 51 21 51 58c0 38 -36 57 -84 57c-61 0 -90 -23 -111 -47c-28 -36 -40 -89 -77 -169c-57 -121 -88 -117 -88 -167c0 -48 44 -73 112 -73c108 0 148 63 148 126c0 13 -3 25 -12 34c-9 8 -24 13 -49 14v30h166c-10 -42 -48 -154 -83 -211z" />
    <glyph glyph-name="Gbreve.small" horiz-adv-x="545" 
d="M404 624c-64 0 -89 35 -94 72c-5 35 5 65 28 100h25c-4 -43 -2 -103 80 -103c75 0 125 57 155 103h32c-25 -79 -107 -172 -226 -172zM373 29c-4 4 -11 9 -17 9c-28 0 -64 -48 -156 -48c-143 0 -190 89 -190 172c0 177 163 371 359 371c97 0 139 -51 139 -107
c0 -48 -33 -77 -73 -77c-14 0 -28 3 -35 8v20c23 8 51 21 51 58c0 38 -36 57 -84 57c-61 0 -90 -23 -111 -47c-28 -36 -40 -89 -77 -169c-57 -121 -88 -117 -88 -167c0 -48 44 -73 112 -73c108 0 148 63 148 126c0 13 -3 25 -12 34c-9 8 -24 13 -49 14v30h166
c-10 -42 -48 -154 -83 -211z" />
    <glyph glyph-name="Gdotaccent.small" horiz-adv-x="545" 
d="M399 642c-29 0 -51 19 -51 47c0 39 28 64 63 64c30 0 51 -20 51 -48c0 -38 -27 -63 -63 -63zM373 29c-4 4 -11 9 -17 9c-28 0 -64 -48 -156 -48c-143 0 -190 89 -190 172c0 177 163 371 359 371c97 0 139 -51 139 -107c0 -48 -33 -77 -73 -77c-14 0 -28 3 -35 8v20
c23 8 51 21 51 58c0 38 -36 57 -84 57c-61 0 -90 -23 -111 -47c-28 -36 -40 -89 -77 -169c-57 -121 -88 -117 -88 -167c0 -48 44 -73 112 -73c108 0 148 63 148 126c0 13 -3 25 -12 34c-9 8 -24 13 -49 14v30h166c-10 -42 -48 -154 -83 -211z" />
    <glyph glyph-name="Gcommaaccent.small" horiz-adv-x="545" 
d="M373 29c-4 4 -11 9 -17 9c-28 0 -64 -48 -156 -48c-143 0 -190 89 -190 172c0 177 163 371 359 371c97 0 139 -51 139 -107c0 -48 -33 -77 -73 -77c-14 0 -28 3 -35 8v20c23 8 51 21 51 58c0 38 -36 57 -84 57c-61 0 -90 -23 -111 -47c-28 -36 -40 -89 -77 -169
c-57 -121 -88 -117 -88 -167c0 -48 44 -73 112 -73c108 0 148 63 148 126c0 13 -3 25 -12 34c-9 8 -24 13 -49 14v30h166c-10 -42 -48 -154 -83 -211zM90 -220c21 37 55 117 62 166h78c-9 -56 -63 -146 -108 -178z" />
    <glyph glyph-name="Hcircumflex.small" horiz-adv-x="562" 
d="M197 631l232 175h26c11 -51 41 -132 68 -182l-25 -18c-28 15 -89 84 -108 114l-179 -116zM300 0c0 34 18 132 63 253h-216l-96 -253h-27c-12 37 -19 88 -19 129c0 180 133 262 183 396h29c0 -31 -16 -121 -54 -228h216l87 228h27c11 -37 19 -89 19 -130
c0 -177 -133 -261 -183 -395h-29z" />
    <glyph glyph-name="Hbar.small" horiz-adv-x="562" 
d="M300 0c0 34 18 132 63 253h-216l-96 -253h-27c-12 37 -19 88 -19 129c0 120 59 197 113 274h-73l12 40h89c16 26 31 53 42 82h29c0 -15 -4 -44 -12 -82h230l31 82h27c7 -23 13 -53 16 -82h81l-12 -40h-66v-8c0 -177 -133 -261 -183 -395h-29zM163 297h216l40 106h-223
c-9 -32 -19 -68 -33 -106z" />
    <glyph glyph-name="Igrave.small" horiz-adv-x="252" 
d="M80 757c0 20 21 42 45 42c44 0 65 -93 120 -176l-20 -19c-67 70 -145 111 -145 153zM193 524h29c0 -37 -19 -148 -72 -283l-95 -241h-26c-13 47 -19 89 -19 131c0 178 133 260 183 393z" />
    <glyph glyph-name="Iacute.small" horiz-adv-x="252" 
d="M175 623c100 97 132 171 174 171c22 0 40 -18 40 -38c0 -48 -83 -70 -199 -152zM193 524h29c0 -37 -19 -148 -72 -283l-95 -241h-26c-13 47 -19 89 -19 131c0 178 133 260 183 393z" />
    <glyph glyph-name="Icircumflex.small" horiz-adv-x="252" 
d="M96 631l212 175h26c9 -54 26 -118 48 -182l-25 -18c-33 29 -70 81 -88 114l-159 -116zM193 524h29c0 -37 -19 -148 -72 -283l-95 -241h-26c-13 47 -19 89 -19 131c0 178 133 260 183 393z" />
    <glyph glyph-name="Itilde.small" horiz-adv-x="252" 
d="M92 644c0 98 40 134 104 134c74 0 88 -74 134 -74c39 0 45 27 48 70h34c0 -95 -46 -132 -105 -132c-70 0 -89 74 -133 74c-39 0 -45 -29 -49 -72h-33zM193 524h29c0 -37 -19 -148 -72 -283l-95 -241h-26c-13 47 -19 89 -19 131c0 178 133 260 183 393z" />
    <glyph glyph-name="Idieresis.small" horiz-adv-x="252" 
d="M115 705c0 37 30 60 61 60c26 0 41 -17 41 -40c0 -36 -29 -59 -62 -59c-26 0 -40 18 -40 39zM273 705c0 37 30 60 61 60c26 0 41 -17 41 -40c0 -36 -30 -59 -62 -59c-26 0 -40 18 -40 39zM193 524h29c0 -37 -19 -148 -72 -283l-95 -241h-26c-13 47 -19 89 -19 131
c0 178 133 260 183 393z" />
    <glyph glyph-name="Imacron.small" horiz-adv-x="252" 
d="M160 754h227l-20 -58h-228zM193 524h29c0 -37 -19 -148 -72 -283l-95 -241h-26c-13 47 -19 89 -19 131c0 178 133 260 183 393z" />
    <glyph glyph-name="Ibreve.small" horiz-adv-x="252" 
d="M244 624c-64 0 -104 30 -104 84c0 31 13 65 33 88h23c-9 -44 -4 -103 70 -103c65 0 109 53 137 103h32c-25 -79 -84 -172 -191 -172zM193 524h29c0 -37 -19 -148 -72 -283l-95 -241h-26c-13 47 -19 89 -19 131c0 178 133 260 183 393z" />
    <glyph glyph-name="Idotaccent.small" horiz-adv-x="252" 
d="M235 642c-29 0 -51 19 -51 47c0 39 28 64 63 64c30 0 51 -20 51 -48c0 -38 -27 -63 -63 -63zM193 524h29c0 -37 -19 -148 -72 -283l-95 -241h-26c-13 47 -19 89 -19 131c0 178 133 260 183 393z" />
    <glyph glyph-name="Iogonek.small" horiz-adv-x="252" 
d="M-74 -135c0 55 45 92 101 141c-12 45 -17 85 -17 125c0 178 133 260 183 393h29c0 -37 -19 -148 -72 -283l-95 -241c-39 -44 -56 -85 -56 -117c0 -27 10 -40 32 -40c24 0 40 18 46 41h21c-9 -54 -38 -93 -98 -93c-49 0 -74 28 -74 74z" />
    <glyph glyph-name="IJ.small" horiz-adv-x="557" 
d="M145 0h33c-7 -42 -3 -79 57 -79c58 0 79 45 79 93v102c0 185 144 290 184 409h29c0 -99 -80 -302 -120 -426c-36 -112 -57 -222 -179 -222c-71 0 -96 37 -96 75c0 20 5 35 13 48zM193 524h29c0 -37 -19 -148 -72 -283l-95 -241h-26c-13 47 -19 89 -19 131
c0 178 133 260 183 393z" />
    <glyph glyph-name="Jcircumflex.small" horiz-adv-x="304" 
d="M130 631l232 175h26c11 -51 41 -132 68 -182l-25 -18c-28 15 -89 84 -108 114l-179 -116zM-108 0h33c-7 -42 -3 -79 57 -79c58 0 79 45 79 93v102c0 185 144 290 184 409h29c0 -99 -80 -302 -120 -426c-36 -112 -57 -222 -179 -222c-71 0 -96 37 -96 75c0 20 5 35 13 48z
" />
    <glyph glyph-name="Kcommaaccent.small" horiz-adv-x="503" 
d="M353 -2c-72 2 -97 34 -97 82c0 68 50 107 50 156c0 18 -6 48 -58 48c-48 0 -98 -38 -125 -108l-70 -176h-27c-14 37 -21 90 -21 125c0 184 133 267 182 400h29c0 -34 -20 -133 -54 -231l298 231h18c8 -10 15 -22 15 -38c0 -59 -107 -92 -253 -174c16 3 29 3 41 3
c105 0 128 -66 128 -107c0 -101 -85 -124 -85 -160c0 -16 14 -22 36 -26zM70 -220c21 37 55 117 62 166h78c-9 -56 -63 -146 -108 -178z" />
    <glyph glyph-name="Lacute.small" horiz-adv-x="420" 
d="M194 623c100 97 132 171 174 171c22 0 40 -18 40 -38c0 -48 -83 -70 -199 -152zM235 -8c-64 0 -147 25 -215 32c-10 37 -15 72 -15 108c0 178 140 265 184 393h28c0 -46 -27 -166 -72 -281l-72 -177h142c66 2 100 15 111 44h19c0 -68 -35 -119 -110 -119z" />
    <glyph glyph-name="Lcaron.small" horiz-adv-x="420" 
d="M281 350c20 38 53 130 59 178h74c-9 -57 -58 -160 -103 -192zM234 -8c-64 0 -147 25 -215 32c-10 37 -15 72 -15 108c0 178 140 265 184 393h28c0 -46 -27 -166 -72 -281l-72 -177h142c66 2 100 15 111 44h19c0 -68 -35 -119 -110 -119z" />
    <glyph glyph-name="Lcommaaccent.small" horiz-adv-x="420" 
d="M235 -8c-64 0 -147 25 -215 32c-10 37 -15 72 -15 108c0 178 140 265 184 393h28c0 -46 -27 -166 -72 -281l-72 -177h142c66 2 100 15 111 44h19c0 -68 -35 -119 -110 -119zM70 -220c21 37 55 117 62 166h78c-9 -56 -63 -146 -108 -178z" />
    <glyph glyph-name="Lslash.small" horiz-adv-x="420" 
d="M-55 116v49l68 39c30 132 138 211 176 321h28c0 -40 -21 -137 -56 -237l133 75v-49l-157 -89l-64 -158h142c66 2 100 15 111 44h19c0 -68 -35 -119 -110 -119c-64 0 -147 25 -215 32c-10 37 -15 72 -15 108c0 6 0 12 1 18z" />
    <glyph glyph-name="Ldot.small" horiz-adv-x="420" 
d="M235 -8c-64 0 -147 25 -215 32c-10 37 -15 72 -15 108c0 178 140 265 184 393h28c0 -46 -27 -166 -72 -281l-72 -177h142c66 2 100 15 111 44h19c0 -68 -35 -119 -110 -119zM275 206c-29 0 -51 19 -51 47c0 39 28 64 63 64c30 0 51 -20 51 -48c0 -38 -27 -63 -63 -63z
" />
    <glyph glyph-name="Nacute.small" horiz-adv-x="602" 
d="M341 623c100 97 132 171 174 171c22 0 40 -18 40 -38c0 -48 -83 -70 -199 -152zM342 0h-40c-11 80 -93 226 -113 396l-149 -396h-16c-10 26 -19 60 -19 97c0 162 140 259 203 428h39c39 -140 95 -312 119 -407l152 407h15c16 -33 24 -66 24 -105
c0 -126 -118 -227 -215 -420z" />
    <glyph glyph-name="Ncaron.small" horiz-adv-x="602" 
d="M311 784l35 22c28 -14 73 -68 105 -122l179 119l14 -27l-232 -174h-26c-22 77 -54 148 -75 182zM342 0h-40c-11 80 -93 226 -113 396l-149 -396h-16c-10 26 -19 60 -19 97c0 162 140 259 203 428h39c39 -140 95 -312 119 -407l152 407h15c16 -33 24 -66 24 -105
c0 -126 -118 -227 -215 -420z" />
    <glyph glyph-name="Ntilde.small" horiz-adv-x="602" 
d="M258 644c0 98 43 134 113 134c83 0 96 -74 148 -74c39 0 48 27 51 70h34c0 -95 -47 -132 -114 -132c-78 0 -91 74 -147 74c-39 0 -48 -29 -52 -72h-33zM342 0h-40c-11 80 -93 226 -113 396l-149 -396h-16c-10 26 -19 60 -19 97c0 162 140 259 203 428h39
c39 -140 95 -312 119 -407l152 407h15c16 -33 24 -66 24 -105c0 -126 -118 -227 -215 -420z" />
    <glyph glyph-name="Ncommaaccent.small" horiz-adv-x="602" 
d="M342 0h-40c-11 80 -93 226 -113 396l-149 -396h-16c-10 26 -19 60 -19 97c0 162 140 259 203 428h39c39 -140 95 -312 119 -407l152 407h15c16 -33 24 -66 24 -105c0 -126 -118 -227 -215 -420zM73 -220c21 37 55 117 62 166h78c-9 -56 -63 -146 -108 -178z" />
    <glyph glyph-name="Ograve.small" horiz-adv-x="573" 
d="M274 757c0 20 21 42 45 42c44 0 65 -93 120 -176l-20 -19c-67 70 -145 111 -145 153zM10 170c0 151 127 363 323 363c140 0 185 -94 185 -178c0 -155 -130 -365 -320 -365c-135 0 -188 89 -188 180zM367 246c40 109 60 113 60 169c0 45 -34 78 -96 78
c-113 0 -120 -103 -168 -223c-43 -108 -62 -110 -62 -165c0 -46 32 -75 98 -75c119 0 125 100 168 216z" />
    <glyph glyph-name="Oacute.small" horiz-adv-x="573" 
d="M344 623c100 97 132 171 174 171c22 0 40 -18 40 -38c0 -48 -83 -70 -199 -152zM10 170c0 151 127 363 323 363c140 0 185 -94 185 -178c0 -155 -130 -365 -320 -365c-135 0 -188 89 -188 180zM367 246c40 109 60 113 60 169c0 45 -34 78 -96 78
c-113 0 -120 -103 -168 -223c-43 -108 -62 -110 -62 -165c0 -46 32 -75 98 -75c119 0 125 100 168 216z" />
    <glyph glyph-name="Ocircumflex.small" horiz-adv-x="573" 
d="M225 631l232 175h26c11 -51 41 -132 68 -182l-25 -18c-28 15 -89 84 -108 114l-179 -116zM10 170c0 151 127 363 323 363c140 0 185 -94 185 -178c0 -155 -130 -365 -320 -365c-135 0 -188 89 -188 180zM367 246c40 109 60 113 60 169c0 45 -34 78 -96 78
c-113 0 -120 -103 -168 -223c-43 -108 -62 -110 -62 -165c0 -46 32 -75 98 -75c119 0 125 100 168 216z" />
    <glyph glyph-name="Otilde.small" horiz-adv-x="573" 
d="M242 644c0 98 43 134 113 134c83 0 96 -74 148 -74c39 0 48 27 51 70h34c0 -95 -47 -132 -114 -132c-78 0 -91 74 -147 74c-39 0 -48 -29 -52 -72h-33zM10 170c0 151 127 363 323 363c140 0 185 -94 185 -178c0 -155 -130 -365 -320 -365c-135 0 -188 89 -188 180z
M367 246c40 109 60 113 60 169c0 45 -34 78 -96 78c-113 0 -120 -103 -168 -223c-43 -108 -62 -110 -62 -165c0 -46 32 -75 98 -75c119 0 125 100 168 216z" />
    <glyph glyph-name="Odieresis.small" horiz-adv-x="573" 
d="M269 705c0 37 30 60 61 60c26 0 41 -17 41 -40c0 -36 -29 -59 -62 -59c-26 0 -40 18 -40 39zM447 705c0 37 30 60 61 60c26 0 41 -17 41 -40c0 -36 -30 -59 -62 -59c-26 0 -40 18 -40 39zM10 170c0 151 127 363 323 363c140 0 185 -94 185 -178
c0 -155 -130 -365 -320 -365c-135 0 -188 89 -188 180zM367 246c40 109 60 113 60 169c0 45 -34 78 -96 78c-113 0 -120 -103 -168 -223c-43 -108 -62 -110 -62 -165c0 -46 32 -75 98 -75c119 0 125 100 168 216z" />
    <glyph glyph-name="Omacron.small" horiz-adv-x="573" 
d="M282 754h287l-26 -58h-288zM10 170c0 151 127 363 323 363c140 0 185 -94 185 -178c0 -155 -130 -365 -320 -365c-135 0 -188 89 -188 180zM367 246c40 109 60 113 60 169c0 45 -34 78 -96 78c-113 0 -120 -103 -168 -223c-43 -108 -62 -110 -62 -165
c0 -46 32 -75 98 -75c119 0 125 100 168 216z" />
    <glyph glyph-name="Obreve.small" horiz-adv-x="573" 
d="M381 624c-64 0 -89 35 -94 72c-5 35 5 65 28 100h25c-4 -43 -2 -103 80 -103c75 0 125 57 155 103h32c-25 -79 -107 -172 -226 -172zM10 170c0 151 127 363 323 363c140 0 185 -94 185 -178c0 -155 -130 -365 -320 -365c-135 0 -188 89 -188 180zM367 246
c40 109 60 113 60 169c0 45 -34 78 -96 78c-113 0 -120 -103 -168 -223c-43 -108 -62 -110 -62 -165c0 -46 32 -75 98 -75c119 0 125 100 168 216z" />
    <glyph glyph-name="Ohungarumlaut.small" horiz-adv-x="573" 
d="M270 625l130 189l68 -44l-172 -168zM443 625l136 186l65 -48l-175 -161zM10 170c0 151 127 363 323 363c140 0 185 -94 185 -178c0 -155 -130 -365 -320 -365c-135 0 -188 89 -188 180zM367 246c40 109 60 113 60 169c0 45 -34 78 -96 78c-113 0 -120 -103 -168 -223
c-43 -108 -62 -110 -62 -165c0 -46 32 -75 98 -75c119 0 125 100 168 216z" />
    <glyph glyph-name="Oslash.small" horiz-adv-x="573" 
d="M10 170c0 151 127 363 323 363c49 0 87 -12 115 -31l26 31h45l-45 -53c32 -34 44 -81 44 -125c0 -155 -130 -365 -320 -365c-49 0 -87 12 -116 31l-27 -31h-45l46 53c-32 34 -46 80 -46 127zM101 105v-8l311 364c-15 20 -43 32 -81 32c-113 0 -120 -103 -168 -223
c-43 -108 -62 -110 -62 -165zM367 246c40 109 60 113 60 169c0 3 0 7 -1 10l-311 -365c15 -19 43 -30 84 -30c119 0 125 100 168 216z" />
    <glyph glyph-name="Oslashacute.small" horiz-adv-x="573" 
d="M327 623c100 97 132 171 174 171c22 0 40 -18 40 -38c0 -48 -83 -70 -199 -152zM10 170c0 151 127 363 323 363c49 0 87 -12 115 -31l26 31h45l-45 -53c32 -34 44 -81 44 -125c0 -155 -130 -365 -320 -365c-49 0 -87 12 -116 31l-27 -31h-45l46 53c-32 34 -46 80 -46 127
zM101 105v-8l311 364c-15 20 -43 32 -81 32c-113 0 -120 -103 -168 -223c-43 -108 -62 -110 -62 -165zM367 246c40 109 60 113 60 169c0 3 0 7 -1 10l-311 -365c15 -19 43 -30 84 -30c119 0 125 100 168 216z" />
    <glyph glyph-name="OE.small" horiz-adv-x="802" 
d="M701 109c-6 -71 -38 -119 -110 -119c-67 0 -156 24 -225 29c-3 11 -6 23 -8 35c-44 -39 -98 -64 -160 -64c-135 0 -188 89 -188 180c0 151 127 363 323 363c92 0 135 -41 153 -93c15 27 30 54 41 85l203 -10c49 -3 69 4 81 17h11c0 -76 -32 -90 -76 -90
c-62 0 -145 28 -193 40c-8 -48 -26 -114 -50 -185h191l-14 -42h-192l-70 -193h155c66 0 101 18 111 47h17zM367 246c40 109 60 117 60 173c0 45 -34 77 -96 77c-113 0 -120 -106 -168 -226c-43 -108 -63 -114 -63 -169c0 -46 32 -74 98 -74c119 0 126 103 169 219z" />
    <glyph glyph-name="Racute.small" horiz-adv-x="519" 
d="M296 623c100 97 132 171 174 171c22 0 40 -18 40 -38c0 -48 -83 -70 -199 -152zM366 -2c-79 2 -97 40 -97 86s26 71 26 115c0 34 -24 57 -84 57h-60l-99 -256h-29c-11 37 -18 76 -18 119c0 190 126 286 170 406c27 0 102 5 150 5c105 0 169 -42 169 -111
c0 -94 -104 -137 -215 -145c94 -12 124 -46 124 -95c0 -72 -66 -98 -66 -130c0 -15 14 -23 36 -26zM302 489c-26 0 -58 -1 -87 -4c-10 -60 -31 -125 -51 -188h48c102 0 132 17 156 71c16 36 26 49 26 73c0 27 -18 48 -92 48z" />
    <glyph glyph-name="Rcaron.small" horiz-adv-x="519" 
d="M246 784l35 22c28 -14 73 -68 105 -122l179 119l14 -27l-232 -174h-26c-22 77 -54 148 -75 182zM366 -2c-79 2 -97 40 -97 86s26 71 26 115c0 34 -24 57 -84 57h-60l-99 -256h-29c-11 37 -18 76 -18 119c0 190 126 286 170 406c27 0 102 5 150 5c105 0 169 -42 169 -111
c0 -94 -104 -137 -215 -145c94 -12 124 -46 124 -95c0 -72 -66 -98 -66 -130c0 -15 14 -23 36 -26zM302 489c-26 0 -58 -1 -87 -4c-10 -60 -31 -125 -51 -188h48c102 0 132 17 156 71c16 36 26 49 26 73c0 27 -18 48 -92 48z" />
    <glyph glyph-name="Rcommaaccent.small" horiz-adv-x="519" 
d="M366 -2c-79 2 -97 40 -97 86s26 71 26 115c0 34 -24 57 -84 57h-60l-99 -256h-29c-11 37 -18 76 -18 119c0 190 126 286 170 406c27 0 102 5 150 5c105 0 169 -42 169 -111c0 -94 -104 -137 -215 -145c94 -12 124 -46 124 -95c0 -72 -66 -98 -66 -130
c0 -15 14 -23 36 -26zM302 489c-26 0 -58 -1 -87 -4c-10 -60 -31 -125 -51 -188h48c102 0 132 17 156 71c16 36 26 49 26 73c0 27 -18 48 -92 48zM81 -220c21 37 55 117 62 166h78c-9 -56 -63 -146 -108 -178z" />
    <glyph glyph-name="germandbls.small" horiz-adv-x="951" 
d="M7 186h39c-16 -83 -5 -150 99 -150c86 0 126 42 126 92s-45 67 -100 94c-56 28 -102 56 -102 137c0 84 63 174 212 174c93 0 143 -52 143 -110c0 -21 -7 -43 -18 -57h-42c11 46 13 122 -91 122c-89 0 -129 -44 -129 -94c0 -55 44 -63 99 -80c62 -21 124 -47 124 -137
c0 -81 -74 -186 -227 -186c-118 0 -155 69 -155 125c0 24 8 50 22 70zM484 186h39c-16 -83 -5 -150 99 -150c86 0 126 42 126 92s-45 67 -100 94c-56 28 -102 56 -102 137c0 84 63 174 212 174c93 0 143 -52 143 -110c0 -21 -7 -43 -18 -57h-42c11 46 13 122 -91 122
c-89 0 -129 -44 -129 -94c0 -55 44 -63 99 -80c62 -21 124 -47 124 -137c0 -81 -74 -186 -227 -186c-118 0 -155 69 -155 125c0 24 8 50 22 70z" />
    <glyph glyph-name="Sacute.small" horiz-adv-x="474" 
d="M258 623c100 97 132 171 174 171c22 0 40 -18 40 -38c0 -48 -83 -70 -199 -152zM7 186h39c-16 -83 -5 -150 99 -150c86 0 126 42 126 92s-45 67 -100 94c-56 28 -102 56 -102 137c0 84 63 174 212 174c93 0 143 -52 143 -110c0 -21 -7 -43 -18 -57h-42
c11 46 13 122 -91 122c-89 0 -129 -44 -129 -94c0 -55 44 -63 99 -80c62 -21 124 -47 124 -137c0 -81 -74 -186 -227 -186c-118 0 -155 69 -155 125c0 24 8 50 22 70z" />
    <glyph glyph-name="Scircumflex.small" horiz-adv-x="474" 
d="M151 631l232 175h26c11 -51 41 -132 68 -182l-25 -18c-28 15 -89 84 -108 114l-179 -116zM7 186h39c-16 -83 -5 -150 99 -150c86 0 126 42 126 92s-45 67 -100 94c-56 28 -102 56 -102 137c0 84 63 174 212 174c93 0 143 -52 143 -110c0 -21 -7 -43 -18 -57h-42
c11 46 13 122 -91 122c-89 0 -129 -44 -129 -94c0 -55 44 -63 99 -80c62 -21 124 -47 124 -137c0 -81 -74 -186 -227 -186c-118 0 -155 69 -155 125c0 24 8 50 22 70z" />
    <glyph glyph-name="Scaron.small" horiz-adv-x="474" 
d="M216 784l35 22c28 -14 73 -68 105 -122l179 119l14 -27l-232 -174h-26c-22 77 -54 148 -75 182zM7 186h39c-16 -83 -5 -150 99 -150c86 0 126 42 126 92s-45 67 -100 94c-56 28 -102 56 -102 137c0 84 63 174 212 174c93 0 143 -52 143 -110c0 -21 -7 -43 -18 -57h-42
c11 46 13 122 -91 122c-89 0 -129 -44 -129 -94c0 -55 44 -63 99 -80c62 -21 124 -47 124 -137c0 -81 -74 -186 -227 -186c-118 0 -155 69 -155 125c0 24 8 50 22 70z" />
    <glyph glyph-name="Scedilla.small" horiz-adv-x="474" 
d="M72 -115h21c0 -28 9 -49 39 -49c27 0 45 18 45 48c0 21 -13 35 -36 35c-7 0 -14 -1 -20 -3l-18 18l30 57c-112 3 -148 70 -148 125c0 24 8 50 22 70h39c-16 -83 -5 -150 99 -150c86 0 126 42 126 92s-45 67 -100 94c-56 28 -102 56 -102 137c0 84 63 174 212 174
c93 0 143 -52 143 -110c0 -21 -7 -43 -18 -57h-42c11 46 13 122 -91 122c-89 0 -129 -44 -129 -94c0 -55 44 -63 99 -80c62 -21 124 -47 124 -137c0 -76 -65 -172 -198 -185l-14 -40c52 8 81 -19 81 -61c0 -57 -46 -91 -98 -91c-63 0 -74 50 -66 85z" />
    <glyph glyph-name="Scommaaccent.small" horiz-adv-x="474" 
d="M7 186h39c-16 -83 -5 -150 99 -150c86 0 126 42 126 92s-45 67 -100 94c-56 28 -102 56 -102 137c0 84 63 174 212 174c93 0 143 -52 143 -110c0 -21 -7 -43 -18 -57h-42c11 46 13 122 -91 122c-89 0 -129 -44 -129 -94c0 -55 44 -63 99 -80c62 -21 124 -47 124 -137
c0 -81 -74 -186 -227 -186c-118 0 -155 69 -155 125c0 24 8 50 22 70zM34 -220c21 37 55 117 62 166h78c-9 -56 -63 -146 -108 -178z" />
    <glyph glyph-name="Tcaron.small" horiz-adv-x="457" 
d="M230 784l35 22c28 -14 73 -68 105 -122l179 119l14 -27l-232 -174h-26c-22 77 -54 148 -75 182zM39 408h-19c3 43 34 123 144 123c96 0 193 -28 270 -28c26 0 71 -1 85 31h18c-5 -52 -41 -84 -147 -84h-80l-167 -450h-34c-10 35 -21 75 -21 111c0 137 111 239 168 339
h-115c-56 0 -83 -10 -102 -42z" />
    <glyph glyph-name="Tcommaaccent.small" horiz-adv-x="457" 
d="M39 408h-19c3 43 34 123 144 123c96 0 193 -28 270 -28c26 0 71 -1 85 31h18c-5 -52 -41 -84 -147 -84h-80l-167 -450h-34c-10 35 -21 75 -21 111c0 137 111 239 168 339h-115c-56 0 -83 -10 -102 -42zM22 -220c21 37 55 117 62 166h78c-9 -56 -63 -146 -108 -178z" />
    <glyph glyph-name="Tcedilla.small" horiz-adv-x="457" 
d="M43 -115h21c0 -28 9 -49 39 -49c27 0 45 18 45 48c0 21 -13 35 -36 35c-7 0 -14 -1 -20 -3l-18 18l35 66c-10 35 -21 75 -21 111c0 137 111 239 168 339h-115c-56 0 -83 -10 -102 -42h-19c3 43 34 123 144 123c96 0 193 -28 270 -28c26 0 71 -1 85 31h18
c-5 -52 -41 -84 -147 -84h-80l-167 -450l-17 -48c52 8 81 -19 81 -61c0 -57 -46 -91 -98 -91c-63 0 -74 50 -66 85z" />
    <glyph glyph-name="Tbar.small" horiz-adv-x="457" 
d="M54 270h82c37 65 88 123 120 180h-115c-56 0 -83 -10 -102 -42h-19c3 43 34 123 144 123c96 0 193 -28 270 -28c26 0 71 -1 85 31h18c-5 -52 -41 -84 -147 -84h-80l-67 -180h84l-13 -40h-86l-85 -230h-34c-10 35 -21 75 -21 111c0 43 11 82 28 119h-75z" />
    <glyph glyph-name="Ugrave.small" horiz-adv-x="559" 
d="M256 757c0 20 21 42 45 42c44 0 65 -93 120 -176l-20 -19c-67 70 -145 111 -145 153zM10 140c0 170 129 234 195 385h34c-2 -40 -15 -90 -34 -145l-57 -161c-19 -54 -33 -94 -32 -124c0 -36 20 -62 75 -62c94 0 153 91 196 242l71 250h30c13 -42 21 -89 21 -131
c0 -166 -132 -404 -323 -404c-113 0 -176 62 -176 150z" />
    <glyph glyph-name="Uacute.small" horiz-adv-x="559" 
d="M325 623c100 97 132 171 174 171c22 0 40 -18 40 -38c0 -48 -83 -70 -199 -152zM10 140c0 170 129 234 195 385h34c-2 -40 -15 -90 -34 -145l-57 -161c-19 -54 -33 -94 -32 -124c0 -36 20 -62 75 -62c94 0 153 91 196 242l71 250h30c13 -42 21 -89 21 -131
c0 -166 -132 -404 -323 -404c-113 0 -176 62 -176 150z" />
    <glyph glyph-name="Ucircumflex.small" horiz-adv-x="559" 
d="M202 631l232 175h26c11 -51 41 -132 68 -182l-25 -18c-28 15 -89 84 -108 114l-179 -116zM10 140c0 170 129 234 195 385h34c-2 -40 -15 -90 -34 -145l-57 -161c-19 -54 -33 -94 -32 -124c0 -36 20 -62 75 -62c94 0 153 91 196 242l71 250h30c13 -42 21 -89 21 -131
c0 -166 -132 -404 -323 -404c-113 0 -176 62 -176 150z" />
    <glyph glyph-name="Utilde.small" horiz-adv-x="559" 
d="M225 644c0 98 43 134 113 134c83 0 96 -74 148 -74c39 0 48 27 51 70h34c0 -95 -47 -132 -114 -132c-78 0 -91 74 -147 74c-39 0 -48 -29 -52 -72h-33zM10 140c0 170 129 234 195 385h34c-2 -40 -15 -90 -34 -145l-57 -161c-19 -54 -33 -94 -32 -124c0 -36 20 -62 75 -62
c94 0 153 91 196 242l71 250h30c13 -42 21 -89 21 -131c0 -166 -132 -404 -323 -404c-113 0 -176 62 -176 150z" />
    <glyph glyph-name="Udieresis.small" horiz-adv-x="559" 
d="M241 705c0 37 30 60 61 60c26 0 41 -17 41 -40c0 -36 -29 -59 -62 -59c-26 0 -40 18 -40 39zM419 705c0 37 30 60 61 60c26 0 41 -17 41 -40c0 -36 -30 -59 -62 -59c-26 0 -40 18 -40 39zM10 140c0 170 129 234 195 385h34c-2 -40 -15 -90 -34 -145l-57 -161
c-19 -54 -33 -94 -32 -124c0 -36 20 -62 75 -62c94 0 153 91 196 242l71 250h30c13 -42 21 -89 21 -131c0 -166 -132 -404 -323 -404c-113 0 -176 62 -176 150z" />
    <glyph glyph-name="Umacron.small" horiz-adv-x="559" 
d="M259 754h287l-26 -58h-288zM10 140c0 170 129 234 195 385h34c-2 -40 -15 -90 -34 -145l-57 -161c-19 -54 -33 -94 -32 -124c0 -36 20 -62 75 -62c94 0 153 91 196 242l71 250h30c13 -42 21 -89 21 -131c0 -166 -132 -404 -323 -404c-113 0 -176 62 -176 150z" />
    <glyph glyph-name="Ubreve.small" horiz-adv-x="559" 
d="M366 624c-64 0 -89 35 -94 72c-5 35 5 65 28 100h25c-4 -43 -2 -103 80 -103c75 0 125 57 155 103h32c-25 -79 -107 -172 -226 -172zM10 140c0 170 129 234 195 385h34c-2 -40 -15 -90 -34 -145l-57 -161c-19 -54 -33 -94 -32 -124c0 -36 20 -62 75 -62
c94 0 153 91 196 242l71 250h30c13 -42 21 -89 21 -131c0 -166 -132 -404 -323 -404c-113 0 -176 62 -176 150z" />
    <glyph glyph-name="Uring.small" horiz-adv-x="559" 
d="M272 711c0 63 53 115 126 115c63 0 99 -39 99 -89c0 -66 -55 -114 -126 -114c-61 0 -99 34 -99 88zM438 736c0 30 -14 52 -45 52c-35 0 -63 -31 -63 -76c0 -29 11 -52 46 -52c40 0 62 42 62 76zM10 140c0 170 129 234 195 385h34c-2 -40 -15 -90 -34 -145l-57 -161
c-19 -54 -33 -94 -32 -124c0 -36 20 -62 75 -62c94 0 153 91 196 242l71 250h30c13 -42 21 -89 21 -131c0 -166 -132 -404 -323 -404c-113 0 -176 62 -176 150z" />
    <glyph glyph-name="Uhungarumlaut.small" horiz-adv-x="559" 
d="M263 625l130 189l68 -44l-172 -168zM436 625l136 186l65 -48l-175 -161zM10 140c0 170 129 234 195 385h34c-2 -40 -15 -90 -34 -145l-57 -161c-19 -54 -33 -94 -32 -124c0 -36 20 -62 75 -62c94 0 153 91 196 242l71 250h30c13 -42 21 -89 21 -131
c0 -166 -132 -404 -323 -404c-113 0 -176 62 -176 150z" />
    <glyph glyph-name="Uogonek.small" horiz-adv-x="559" 
d="M10 140c0 170 129 234 195 385h34c-2 -40 -15 -90 -34 -145l-57 -161c-19 -54 -33 -94 -32 -124c0 -36 20 -62 75 -62c94 0 153 91 196 242l71 250h30c13 -42 21 -89 21 -131c0 -119 -68 -275 -177 -354c-66 -58 -95 -115 -95 -156c0 -27 9 -41 31 -41c24 0 36 18 42 41
h25c-9 -54 -38 -93 -98 -93c-49 0 -73 31 -73 77c0 53 29 91 73 128c-17 -4 -34 -6 -51 -6c-113 0 -176 62 -176 150z" />
    <glyph glyph-name="Wgrave.small" horiz-adv-x="721" 
d="M327 757c0 20 21 42 45 42c44 0 65 -93 120 -176l-20 -19c-67 70 -145 111 -145 153zM323 0c-21 50 -33 127 -22 216c-39 -47 -137 -151 -206 -216h-38c-27 41 -47 97 -47 159c0 139 105 213 151 366h32c1 -51 -9 -111 -22 -165l-74 -298c120 131 269 272 299 463h26
c26 -47 27 -122 9 -193l-67 -269l102 102c89 89 157 185 164 360h28c38 -29 53 -64 53 -110c0 -95 -96 -179 -188 -263l-166 -152h-34z" />
    <glyph glyph-name="Wacute.small" horiz-adv-x="721" 
d="M407 623c100 97 132 171 174 171c22 0 40 -18 40 -38c0 -48 -83 -70 -199 -152zM323 0c-21 50 -33 127 -22 216c-39 -47 -137 -151 -206 -216h-38c-27 41 -47 97 -47 159c0 139 105 213 151 366h32c1 -51 -9 -111 -22 -165l-74 -298c120 131 269 272 299 463h26
c26 -47 27 -122 9 -193l-67 -269l102 102c89 89 157 185 164 360h28c38 -29 53 -64 53 -110c0 -95 -96 -179 -188 -263l-166 -152h-34z" />
    <glyph glyph-name="Wcircumflex.small" horiz-adv-x="721" 
d="M274 631l232 175h26c11 -51 41 -132 68 -182l-25 -18c-28 15 -89 84 -108 114l-179 -116zM323 0c-21 50 -33 127 -22 216c-39 -47 -137 -151 -206 -216h-38c-27 41 -47 97 -47 159c0 139 105 213 151 366h32c1 -51 -9 -111 -22 -165l-74 -298c120 131 269 272 299 463h26
c26 -47 27 -122 9 -193l-67 -269l102 102c89 89 157 185 164 360h28c38 -29 53 -64 53 -110c0 -95 -96 -179 -188 -263l-166 -152h-34z" />
    <glyph glyph-name="Wdieresis.small" horiz-adv-x="721" 
d="M318 705c0 37 30 60 61 60c26 0 41 -17 41 -40c0 -36 -29 -59 -62 -59c-26 0 -40 18 -40 39zM496 705c0 37 30 60 61 60c26 0 41 -17 41 -40c0 -36 -30 -59 -62 -59c-26 0 -40 18 -40 39zM323 0c-21 50 -33 127 -22 216c-39 -47 -137 -151 -206 -216h-38
c-27 41 -47 97 -47 159c0 139 105 213 151 366h32c1 -51 -9 -111 -22 -165l-74 -298c120 131 269 272 299 463h26c26 -47 27 -122 9 -193l-67 -269l102 102c89 89 157 185 164 360h28c38 -29 53 -64 53 -110c0 -95 -96 -179 -188 -263l-166 -152h-34z" />
    <glyph glyph-name="Ygrave.small" horiz-adv-x="412" 
d="M184 757c0 20 21 42 45 42c44 0 65 -93 120 -176l-20 -19c-67 70 -145 111 -145 153zM101 0h-30c-17 23 -31 49 -31 78c0 52 41 91 90 147l-37 78c-52 110 -32 165 37 222h20c-13 -57 -1 -92 28 -176l22 -56l203 232h20c13 -12 19 -27 19 -43c0 -73 -129 -137 -222 -231
c-35 -35 -51 -55 -71 -112z" />
    <glyph glyph-name="Yacute.small" horiz-adv-x="412" 
d="M262 623c100 97 132 171 174 171c22 0 40 -18 40 -38c0 -48 -83 -70 -199 -152zM101 0h-30c-17 23 -31 49 -31 78c0 52 41 91 90 147l-37 78c-52 110 -32 165 37 222h20c-13 -57 -1 -92 28 -176l22 -56l203 232h20c13 -12 19 -27 19 -43c0 -73 -129 -137 -222 -231
c-35 -35 -51 -55 -71 -112z" />
    <glyph glyph-name="Ycircumflex.small" horiz-adv-x="412" 
d="M138 631l232 175h26c11 -51 41 -132 68 -182l-25 -18c-28 15 -89 84 -108 114l-179 -116zM101 0h-30c-17 23 -31 49 -31 78c0 52 41 91 90 147l-37 78c-52 110 -32 165 37 222h20c-13 -57 -1 -92 28 -176l22 -56l203 232h20c13 -12 19 -27 19 -43
c0 -73 -129 -137 -222 -231c-35 -35 -51 -55 -71 -112z" />
    <glyph glyph-name="Ydieresis.small" horiz-adv-x="412" 
d="M183 705c0 37 30 60 61 60c26 0 41 -17 41 -40c0 -36 -29 -59 -62 -59c-26 0 -40 18 -40 39zM361 705c0 37 30 60 61 60c26 0 41 -17 41 -40c0 -36 -30 -59 -62 -59c-26 0 -40 18 -40 39zM101 0h-30c-17 23 -31 49 -31 78c0 52 41 91 90 147l-37 78
c-52 110 -32 165 37 222h20c-13 -57 -1 -92 28 -176l22 -56l203 232h20c13 -12 19 -27 19 -43c0 -73 -129 -137 -222 -231c-35 -35 -51 -55 -71 -112z" />
    <glyph glyph-name="Zacute.small" horiz-adv-x="490" 
d="M236 623c100 97 132 171 174 171c22 0 40 -18 40 -38c0 -48 -83 -70 -199 -152zM500 505c-103 -147 -286 -303 -429 -423h180c65 0 101 11 112 40h20c0 -81 -43 -129 -112 -129c-55 0 -175 37 -254 44c-16 -14 -32 -27 -46 -39l-21 20c136 191 297 332 428 432h-162
c-70 0 -93 -11 -109 -43h-22c0 37 25 124 121 124c64 0 173 -35 224 -42c17 13 33 25 49 36z" />
    <glyph glyph-name="Zcaron.small" horiz-adv-x="490" 
d="M204 784l35 22c28 -14 73 -68 105 -122l179 119l14 -27l-232 -174h-26c-22 77 -54 148 -75 182zM500 505c-103 -147 -286 -303 -429 -423h180c65 0 101 11 112 40h20c0 -81 -43 -129 -112 -129c-55 0 -175 37 -254 44c-16 -14 -32 -27 -46 -39l-21 20
c136 191 297 332 428 432h-162c-70 0 -93 -11 -109 -43h-22c0 37 25 124 121 124c64 0 173 -35 224 -42c17 13 33 25 49 36z" />
    <glyph glyph-name="Zdotaccent.small" horiz-adv-x="490" 
d="M308 642c-29 0 -51 19 -51 47c0 39 28 64 63 64c30 0 51 -20 51 -48c0 -38 -27 -63 -63 -63zM500 505c-103 -147 -286 -303 -429 -423h180c65 0 101 11 112 40h20c0 -81 -43 -129 -112 -129c-55 0 -175 37 -254 44c-16 -14 -32 -27 -46 -39l-21 20
c136 191 297 332 428 432h-162c-70 0 -93 -11 -109 -43h-22c0 37 25 124 121 124c64 0 173 -35 224 -42c17 13 33 25 49 36z" />
    <glyph glyph-name="Schwa.small" horiz-adv-x="531" 
d="M77 350c-7 115 84 183 206 183c128 0 193 -64 193 -181c0 -168 -170 -362 -334 -362c-105 0 -152 46 -152 120c0 62 47 114 115 133c54 17 115 24 223 22c39 76 60 107 60 153c0 53 -42 74 -112 74c-103 0 -151 -63 -158 -142h-41zM146 28c88 0 102 67 169 205
c-41 0 -106 -4 -144 -24c-35 -17 -54 -52 -62 -70c-26 -64 -22 -111 37 -111z" />
    <glyph glyph-name="Eng.small" horiz-adv-x="602" 
d="M215 -153c-71 0 -95 37 -95 75c0 20 5 35 13 48h33c-7 -42 -4 -83 56 -83c63 0 79 45 79 93c0 87 -95 217 -112 422l-149 -402h-16c-10 26 -19 60 -19 97c0 162 140 259 203 428h39c39 -140 96 -322 120 -417l151 417h15c16 -33 24 -66 24 -105
c0 -103 -103 -223 -159 -352c-55 -126 -67 -221 -183 -221z" />
    <glyph glyph-name="Eth.small" horiz-adv-x="593" 
d="M16 105c0 55 10 103 25 147h-61l12 40h65c37 84 91 154 126 233h133c174 0 222 -103 222 -189c0 -163 -160 -336 -378 -336h-141c-2 19 -3 79 -3 105zM84 43h41c127 0 196 19 248 168c43 123 64 125 64 179c0 55 -35 93 -134 93h-75c-10 -55 -31 -113 -58 -191h121
l-12 -40h-122z" />
    <glyph glyph-name="Thorn.small" horiz-adv-x="499" 
d="M23 0c-11 35 -18 77 -18 123c0 170 136 273 184 401h29c0 -17 -4 -48 -14 -91h83c100 0 164 -43 164 -126c0 -108 -97 -193 -235 -193c-30 0 -84 6 -114 14l-48 -128h-31zM203 153c46 0 78 17 92 40c14 25 14 31 34 79c19 45 26 50 26 74c0 31 -23 50 -94 50
c-21 0 -48 -1 -66 -3c-13 -52 -38 -122 -57 -173l-21 -55c18 -7 52 -12 86 -12z" />
    <glyph glyph-name="grave" unicode="`" horiz-adv-x="500" 
d="M203 707c0 20 21 42 45 42c44 0 65 -93 120 -176l-20 -19c-67 70 -145 111 -145 153z" />
    <glyph glyph-name="grave.cap" horiz-adv-x="500" 
d="M276 823c0 18 14 46 44 46c40 0 88 -60 158 -114l-13 -22c-94 38 -189 43 -189 90z" />
    <glyph glyph-name="acute" unicode="&#xb4;" horiz-adv-x="500" 
d="M238 573c100 97 132 171 174 171c22 0 40 -18 40 -38c0 -48 -83 -70 -199 -152z" />
    <glyph glyph-name="acute.cap" horiz-adv-x="500" 
d="M322 765c98 51 148 105 193 105c23 0 40 -19 40 -43c0 -23 -16 -37 -39 -44c-30 -7 -116 -23 -184 -44z" />
    <glyph glyph-name="circumflex" unicode="&#x2c6;" horiz-adv-x="500" 
d="M166 581l232 175h26c11 -51 41 -132 68 -182l-25 -18c-28 15 -89 84 -108 114l-179 -116z" />
    <glyph glyph-name="circumflex.cap" horiz-adv-x="500" 
d="M256 759l209 119h25c17 -38 52 -95 79 -127l-21 -21c-32 10 -96 53 -118 73l-158 -72z" />
    <glyph glyph-name="caron" unicode="&#x2c7;" horiz-adv-x="500" 
d="M230 734l35 22c28 -14 73 -68 105 -122l179 119l14 -27l-232 -174h-26c-22 77 -54 148 -75 182z" />
    <glyph glyph-name="caron.cap" horiz-adv-x="500" 
d="M278 855l35 25c36 -13 71 -41 114 -79l155 77l15 -28l-208 -119h-25c-33 66 -65 100 -86 124z" />
    <glyph glyph-name="caronSlovak" horiz-adv-x="500" 
d="M243 532c20 38 53 130 59 178h74c-9 -57 -58 -160 -103 -192z" />
    <glyph glyph-name="tilde" unicode="&#x2dc;" horiz-adv-x="500" 
d="M179 594c0 98 43 134 113 134c83 0 96 -74 148 -74c39 0 48 27 51 70h34c0 -95 -47 -132 -114 -132c-78 0 -91 74 -147 74c-39 0 -48 -29 -52 -72h-33z" />
    <glyph glyph-name="tilde.cap" horiz-adv-x="500" 
d="M532 804c38 0 48 25 52 65h28c0 -89 -49 -127 -118 -127c-76 0 -86 67 -144 67c-38 0 -47 -25 -53 -64h-27c0 87 47 127 116 127c81 0 93 -68 146 -68z" />
    <glyph glyph-name="dieresis" unicode="&#xa8;" horiz-adv-x="500" 
d="M191 655c0 37 30 60 61 60c26 0 41 -17 41 -40c0 -36 -29 -59 -62 -59c-26 0 -40 18 -40 39zM369 655c0 37 30 60 61 60c26 0 41 -17 41 -40c0 -36 -30 -59 -62 -59c-26 0 -40 18 -40 39z" />
    <glyph glyph-name="dieresis.cap" horiz-adv-x="500" 
d="M266 788c0 37 30 59 61 59c26 0 41 -17 41 -40c0 -35 -30 -58 -62 -58c-26 0 -40 17 -40 39zM444 788c0 37 30 59 60 59c27 0 41 -17 41 -40c0 -35 -29 -58 -61 -58c-26 0 -40 17 -40 39z" />
    <glyph glyph-name="macron" unicode="&#xaf;" horiz-adv-x="500" 
d="M196 704h287l-26 -58h-288z" />
    <glyph glyph-name="macron.cap" horiz-adv-x="500" 
d="M290 833h288l-26 -57h-288z" />
    <glyph glyph-name="breve" unicode="&#x2d8;" horiz-adv-x="500" 
d="M299 574c-64 0 -89 35 -94 72c-5 35 5 65 28 100h25c-4 -43 -2 -103 80 -103c75 0 125 57 155 103h32c-25 -79 -107 -172 -226 -172z" />
    <glyph glyph-name="breve.cap" horiz-adv-x="500" 
d="M313 880h28c-6 -42 4 -84 73 -84c66 0 116 39 145 84h33c-30 -77 -103 -144 -208 -144c-65 0 -92 29 -97 59s4 58 26 85z" />
    <glyph glyph-name="ring" unicode="&#x2da;" horiz-adv-x="500" 
d="M216 661c0 63 53 115 126 115c63 0 99 -39 99 -89c0 -66 -55 -114 -126 -114c-61 0 -99 34 -99 88zM382 686c0 30 -14 52 -45 52c-35 0 -63 -31 -63 -76c0 -29 11 -52 46 -52c40 0 62 42 62 76z" />
    <glyph glyph-name="ring.cap" horiz-adv-x="500" 
d="M314 805c0 61 52 112 124 112c63 0 97 -38 97 -87c0 -64 -54 -112 -124 -112c-67 0 -97 38 -97 87zM476 825c0 30 -14 54 -44 54c-34 0 -58 -29 -58 -71c0 -29 13 -52 44 -52c34 0 58 31 58 69z" />
    <glyph glyph-name="hungarumlaut" unicode="&#x2dd;" horiz-adv-x="500" 
d="M188 575l130 189l68 -44l-172 -168zM361 575l136 186l65 -48l-175 -161z" />
    <glyph glyph-name="hungarumlaut.cap" horiz-adv-x="500" 
d="M226 740l136 141l75 -35l-183 -130zM403 740l136 141l74 -35l-182 -130z" />
    <glyph glyph-name="dotaccent" unicode="&#x2d9;" horiz-adv-x="500" 
d="M288 592c-29 0 -51 19 -51 47c0 39 28 64 63 64c30 0 51 -20 51 -48c0 -38 -27 -63 -63 -63z" />
    <glyph glyph-name="dotaccent.cap" horiz-adv-x="500" 
d="M350 798c0 31 25 56 55 56c31 0 57 -25 57 -56s-26 -56 -57 -56c-30 0 -55 25 -55 56z" />
    <glyph glyph-name="cedilla" unicode="&#xb8;" horiz-adv-x="500" 
d="M57 -115h21c0 -28 9 -49 39 -49c27 0 45 18 45 48c0 21 -13 35 -36 35c-7 0 -14 -1 -20 -3l-18 18l40 76l29 -10l-17 -48c52 8 81 -19 81 -61c0 -57 -46 -91 -98 -91c-63 0 -74 50 -66 85z" />
    <glyph glyph-name="ogonek" unicode="&#x2db;" horiz-adv-x="500" 
d="M166 -132c0 87 79 134 167 198l28 -4c-85 -65 -122 -132 -122 -178c0 -27 9 -41 31 -41c24 0 36 18 42 41h25c-9 -54 -38 -93 -98 -93c-49 0 -73 31 -73 77z" />
    <glyph glyph-name="commaaccent" unicode="&#xf6c3;" horiz-adv-x="500" 
d="M41 -220c21 37 55 117 62 166h78c-9 -56 -63 -146 -108 -178z" />
    <glyph glyph-name="commaaccent.alt" horiz-adv-x="500" 
d="M311 729c-21 -37 -55 -117 -62 -166h-78c9 56 63 146 108 178z" />
    <glyph glyph-name="comma" unicode="," horiz-adv-x="261" 
d="M-60 -109c63 25 100 66 110 109c-36 4 -55 25 -55 53c0 33 24 58 61 58c40 0 61 -31 61 -62c0 -66 -54 -158 -165 -187z" />
    <glyph glyph-name="semicolon" unicode=";" horiz-adv-x="218" 
d="M65 403c0 31 23 60 63 60c36 0 60 -30 60 -61c0 -35 -24 -62 -60 -62c-39 0 -63 28 -63 63zM-51 -109c63 25 100 66 110 109c-36 4 -55 25 -55 53c0 33 24 58 61 58c40 0 61 -31 61 -62c0 -66 -54 -158 -165 -187z" />
    <glyph glyph-name="colon" unicode=":" horiz-adv-x="218" 
d="M65 403c0 31 23 60 63 60c36 0 60 -30 60 -61c0 -35 -24 -62 -60 -62c-39 0 -63 28 -63 63zM-16 52c0 31 23 60 63 60c36 0 60 -30 60 -61c0 -35 -24 -62 -60 -62c-39 0 -63 28 -63 63z" />
    <glyph glyph-name="period" unicode="." horiz-adv-x="261" 
d="M-5 52c0 31 23 60 63 60c36 0 60 -30 60 -61c0 -35 -24 -62 -60 -62c-39 0 -63 28 -63 63z" />
    <glyph glyph-name="ellipsis" unicode="&#x2026;" horiz-adv-x="694" 
d="M-5 52c0 31 23 60 63 60c36 0 60 -30 60 -61c0 -35 -24 -62 -60 -62c-39 0 -63 28 -63 63zM212 52c0 31 23 60 63 60c36 0 60 -30 60 -61c0 -35 -24 -62 -60 -62c-39 0 -63 28 -63 63zM428 52c0 31 23 60 63 60c36 0 60 -30 60 -61c0 -35 -24 -62 -60 -62
c-39 0 -63 28 -63 63z" />
    <glyph glyph-name="hyphen" unicode="-" horiz-adv-x="370" 
d="M38 318h250v-55h-250v55z" />
    <glyph glyph-name="hyphen.cap" horiz-adv-x="370" 
d="M60 405h250v-55h-250v55z" />
    <glyph glyph-name="exclam" unicode="!" horiz-adv-x="316" 
d="M114 194h-43c15 65 67 265 105 387l34 109h32c33 -32 40 -79 40 -109c0 -106 -133 -280 -168 -387zM7 50c0 30 22 57 60 57c35 0 57 -28 57 -57c0 -34 -22 -59 -57 -59c-37 0 -60 26 -60 59z" />
    <glyph glyph-name="exclamdown" unicode="&#xa1;" horiz-adv-x="316" 
d="M240 425c0 -30 -22 -57 -60 -57c-35 0 -57 28 -57 57c0 34 22 59 57 59c37 0 60 -26 60 -59zM133 281h43c-15 -65 -67 -265 -105 -387l-34 -109h-32c-33 32 -40 79 -40 109c0 106 133 280 168 387z" />
    <glyph glyph-name="exclamdown.cap" horiz-adv-x="316" 
d="M299 640c0 -30 -22 -57 -60 -57c-35 0 -57 28 -57 57c0 34 22 59 57 59c37 0 60 -26 60 -59zM192 496h43c-15 -65 -67 -265 -105 -387l-34 -109h-32c-33 32 -40 79 -40 109c0 106 133 280 168 387z" />
    <glyph glyph-name="exclam.small" horiz-adv-x="283" 
d="M104 189h-37c15 65 58 231 71 278l16 60h29c21 -20 34 -56 34 -87c0 -72 -80 -174 -113 -251zM11 47c0 27 21 53 56 53c33 0 54 -27 54 -54c0 -32 -21 -55 -54 -55c-35 0 -56 24 -56 56z" />
    <glyph glyph-name="exclamdown.small" horiz-adv-x="283" 
d="M227 472c0 -27 -21 -53 -56 -53c-33 0 -54 27 -54 54c0 32 21 55 54 55c35 0 56 -24 56 -56zM134 330h37c-15 -65 -58 -231 -71 -278l-16 -60h-29c-21 20 -34 56 -34 87c0 72 80 174 113 251z" />
    <glyph glyph-name="question" unicode="?" horiz-adv-x="490" 
d="M206 292c-36 -19 -49 -37 -58 -99h-29c-7 20 -14 39 -14 59c0 129 242 95 242 278c0 67 -36 118 -108 118c-81 0 -112 -43 -112 -134h-43c-16 91 29 184 187 184c130 0 199 -73 199 -173c0 -157 -162 -178 -264 -233zM73 50c0 30 22 57 60 57c34 0 57 -28 57 -57
c0 -34 -23 -59 -57 -59c-38 0 -60 26 -60 59z" />
    <glyph glyph-name="questiondown" unicode="&#xbf;" horiz-adv-x="490" 
d="M362 425c0 -30 -22 -57 -60 -57c-34 0 -57 28 -57 57c0 34 23 59 57 59c38 0 60 -26 60 -59zM229 183c36 19 49 37 58 99h29c7 -20 14 -39 14 -59c0 -129 -242 -95 -242 -278c0 -67 36 -118 108 -118c81 0 112 43 112 134h43c16 -91 -29 -184 -187 -184
c-130 0 -199 73 -199 173c0 157 162 178 264 233z" />
    <glyph glyph-name="questiondown.cap" horiz-adv-x="490" 
d="M413 637c0 -30 -22 -57 -60 -57c-34 0 -57 28 -57 57c0 34 23 59 57 59c38 0 60 -26 60 -59zM280 395c36 19 49 37 58 99h29c7 -20 14 -39 14 -59c0 -129 -242 -95 -242 -278c0 -67 36 -118 108 -118c81 0 112 43 112 134h43c16 -91 -29 -184 -187 -184
c-130 0 -199 73 -199 173c0 157 162 178 264 233z" />
    <glyph glyph-name="question.small" horiz-adv-x="394" 
d="M119 173h-29c-2 5 -10 22 -10 43c0 92 178 77 178 201c0 47 -22 79 -75 79c-61 0 -83 -35 -84 -102h-33c-14 65 15 139 143 139c97 0 153 -50 153 -122c0 -119 -112 -130 -196 -163c-42 -17 -47 -35 -47 -75zM50 47c0 28 20 54 56 54c32 0 53 -27 53 -54
c0 -32 -21 -56 -53 -56c-35 0 -56 25 -56 56z" />
    <glyph glyph-name="questiondown.small" horiz-adv-x="394" 
d="M307 477c0 -28 -20 -54 -56 -54c-32 0 -53 27 -53 54c0 32 21 56 53 56c35 0 56 -25 56 -56zM238 351h29c2 -5 10 -22 10 -43c0 -92 -178 -77 -178 -201c0 -47 22 -79 75 -79c61 0 83 35 84 102h33c14 -65 -15 -139 -143 -139c-97 0 -153 50 -153 122
c0 119 112 130 196 163c42 17 47 35 47 75z" />
    <glyph glyph-name="quoteleft" unicode="&#x2018;" horiz-adv-x="201" 
d="M252 683c-61 -25 -97 -66 -98 -101c3 -17 38 -15 38 -59c0 -29 -21 -53 -56 -53c-37 0 -54 28 -54 59c0 64 48 150 159 181z" />
    <glyph glyph-name="quoteright" unicode="&#x2019;" horiz-adv-x="201" 
d="M74 497c61 25 97 66 99 101c-3 17 -38 15 -38 58c0 30 21 54 55 54c37 0 55 -28 55 -59c0 -64 -48 -150 -159 -181z" />
    <glyph glyph-name="quotedblleft" unicode="&#x201c;" horiz-adv-x="382" 
d="M252 683c-61 -25 -97 -66 -98 -101c3 -17 38 -15 38 -59c0 -29 -21 -53 -56 -53c-37 0 -54 28 -54 59c0 64 48 150 159 181zM434 683c-61 -25 -97 -66 -98 -101c3 -17 38 -15 38 -59c0 -29 -21 -53 -56 -53c-37 0 -54 28 -54 59c0 64 48 150 159 181z" />
    <glyph glyph-name="quotedblright" unicode="&#x201d;" horiz-adv-x="382" 
d="M74 497c61 25 97 66 99 101c-3 17 -38 15 -38 58c0 30 21 54 55 54c37 0 55 -28 55 -59c0 -64 -48 -150 -159 -181zM256 497c61 25 97 66 99 101c-3 17 -38 15 -38 58c0 30 21 54 55 54c37 0 55 -28 55 -59c0 -64 -48 -150 -159 -181z" />
    <glyph glyph-name="quotesinglbase" unicode="&#x201a;" horiz-adv-x="191" 
d="M-80 -83c61 25 97 66 99 101c-3 17 -38 15 -38 58c0 30 21 54 55 54c37 0 55 -28 55 -59c0 -64 -48 -150 -159 -181z" />
    <glyph glyph-name="quotedblbase" unicode="&#x201e;" horiz-adv-x="373" 
d="M-80 -83c61 25 97 66 99 101c-3 17 -38 15 -38 58c0 30 21 54 55 54c37 0 55 -28 55 -59c0 -64 -48 -150 -159 -181zM102 -83c61 25 97 66 99 101c-3 17 -38 15 -38 58c0 30 21 54 55 54c37 0 55 -28 55 -59c0 -64 -48 -150 -159 -181z" />
    <glyph glyph-name="quotesingle" unicode="'" horiz-adv-x="153" 
d="M105 536h-42l52 174h82c-13 -54 -59 -148 -92 -174z" />
    <glyph glyph-name="quotedbl" unicode="&#x22;" horiz-adv-x="300" 
d="M105 536h-42l52 174h82c-13 -54 -59 -148 -92 -174zM257 536h-42l52 174h82c-13 -54 -59 -148 -92 -174z" />
    <glyph glyph-name="guilsinglleft" unicode="&#x2039;" horiz-adv-x="297" 
d="M279 433l-153 -188l44 -179h-55l-81 179l6 23l177 165h62z" />
    <glyph glyph-name="guilsinglright" unicode="&#x203a;" horiz-adv-x="297" 
d="M205 230l-177 -165h-62l153 188l-44 179h55l81 -179z" />
    <glyph glyph-name="guilsinglleft.cap" horiz-adv-x="297" 
d="M309 533l-153 -188l44 -179h-55l-81 179l6 23l177 165h62z" />
    <glyph glyph-name="guilsinglright.cap" horiz-adv-x="297" 
d="M227 330l-177 -165h-62l153 188l-44 179h55l81 -179z" />
    <glyph glyph-name="guillemotleft" unicode="&#xab;" horiz-adv-x="481" 
d="M279 433l-153 -188l44 -179h-55l-81 179l6 23l177 165h62zM463 433l-153 -188l44 -179h-55l-81 179l6 23l177 165h62z" />
    <glyph glyph-name="guillemotright" unicode="&#xbb;" horiz-adv-x="481" 
d="M389 230l-177 -165h-62l153 188l-44 179h55l81 -179zM205 230l-177 -165h-62l153 188l-44 179h55l81 -179z" />
    <glyph glyph-name="guillemotleft.cap" horiz-adv-x="515" 
d="M319 533l-153 -188l44 -179h-55l-81 179l6 23l177 165h62zM519 533l-153 -188l44 -179h-55l-81 179l6 23l177 165h62z" />
    <glyph glyph-name="guillemotright.cap" horiz-adv-x="515" 
d="M435 330l-177 -165h-62l153 188l-44 179h55l81 -179zM251 330l-177 -165h-62l153 188l-44 179h55l81 -179z" />
    <glyph glyph-name="slash" unicode="/" horiz-adv-x="444" 
d="M83 -88h-47c61 274 195 574 312 798h47c-60 -215 -176 -536 -312 -798z" />
    <glyph glyph-name="backslash" unicode="\" horiz-adv-x="444" 
d="M114 710c95 -224 219 -594 260 -798h-46c-96 211 -206 537 -261 798h47z" />
    <glyph glyph-name="bar" unicode="|" horiz-adv-x="268" 
d="M165 -153h-62v893h62v-893z" />
    <glyph glyph-name="brokenbar" unicode="&#xa6;" horiz-adv-x="268" 
d="M165 417h-62v323h62v-323zM165 -153h-62v323h62v-323z" />
    <glyph glyph-name="endash" unicode="&#x2013;" horiz-adv-x="573" 
d="M12 318h512v-55h-512v55z" />
    <glyph glyph-name="endash.cap" horiz-adv-x="500" 
d="M8 413h512v-55h-512v55z" />
    <glyph glyph-name="underscore" unicode="_" horiz-adv-x="534" 
d="M-126 -196h534v-54h-534v54z" />
    <glyph glyph-name="emdash" unicode="&#x2014;" horiz-adv-x="1000" 
d="M12 318h940v-55h-940v55z" />
    <glyph glyph-name="emdash.cap" horiz-adv-x="1000" 
d="M31 412h940v-55h-940v55z" />
    <glyph glyph-name="bullet" unicode="&#x2022;" horiz-adv-x="389" 
d="M177 192c-78 0 -141 57 -141 142c0 84 63 142 141 142c79 0 142 -58 142 -142c0 -85 -63 -142 -142 -142z" />
    <glyph glyph-name="periodcentered" unicode="&#xb7;" horiz-adv-x="238" 
d="M47 349c0 31 23 60 63 60c36 0 60 -30 60 -61c0 -35 -24 -62 -60 -62c-39 0 -63 28 -63 63z" />
    <glyph glyph-name="periodcentered.cap" horiz-adv-x="238" 
d="M58 380c0 31 23 60 63 60c36 0 60 -30 60 -61c0 -35 -24 -62 -60 -62c-39 0 -63 28 -63 63z" />
    <glyph glyph-name="parenleft" unicode="(" horiz-adv-x="342" 
d="M150 109c0 -163 52 -239 73 -276l-30 -20c-35 43 -151 169 -151 367c0 278 237 476 356 550l23 -31c-128 -98 -271 -243 -271 -590z" />
    <glyph glyph-name="parenright" unicode=")" horiz-adv-x="342" 
d="M162 431c0 163 -52 239 -73 276l30 20c35 -43 151 -169 151 -367c0 -278 -237 -476 -356 -550l-23 31c128 98 271 243 271 590z" />
    <glyph glyph-name="parenleft.cap" horiz-adv-x="342" 
d="M150 159c0 -163 52 -239 73 -276l-30 -20c-35 43 -151 169 -151 367c0 278 237 476 356 550l23 -31c-128 -98 -271 -243 -271 -590z" />
    <glyph glyph-name="parenright.cap" horiz-adv-x="342" 
d="M162 481c0 163 -52 239 -73 276l30 20c35 -43 151 -169 151 -367c0 -278 -237 -476 -356 -550l-23 31c128 98 271 243 271 590z" />
    <glyph glyph-name="parenleft.small" horiz-adv-x="291" 
d="M126 124c0 -121 36 -184 58 -227l-38 -23c-29 40 -118 145 -118 308c0 232 171 390 269 462l26 -30c-124 -111 -197 -216 -197 -490z" />
    <glyph glyph-name="parenright.small" horiz-adv-x="291" 
d="M121 388c0 121 -36 184 -58 227l38 23c29 -40 118 -145 118 -308c0 -232 -171 -390 -269 -462l-26 30c124 111 197 216 197 490z" />
    <glyph glyph-name="bracketleft" unicode="[" horiz-adv-x="333" 
d="M179 -168l-12 -48h-216l263 955h217l-13 -48h-119l-238 -859h118z" />
    <glyph glyph-name="bracketright" unicode="]" horiz-adv-x="333" 
d="M348 739l-263 -955h-217l13 48h119l238 859h-118l12 48h216z" />
    <glyph glyph-name="bracketleft.cap" horiz-adv-x="333" 
d="M179 -101l-12 -48h-216l263 955h217l-13 -48h-119l-238 -859h118z" />
    <glyph glyph-name="bracketright.cap" horiz-adv-x="333" 
d="M348 806l-263 -955h-217l13 48h119l238 859h-118l12 48h216z" />
    <glyph glyph-name="bracketleft.small" horiz-adv-x="330" 
d="M211 -74l-18 -51h-211l212 768h211l-17 -51h-120l-175 -666h118z" />
    <glyph glyph-name="bracketright.small" horiz-adv-x="330" 
d="M318 643l-212 -768h-211l17 51h120l175 666h-118l18 51h211z" />
    <glyph glyph-name="braceleft" unicode="{" horiz-adv-x="380" 
d="M196 142c0 -107 -78 -189 -78 -260c0 -34 18 -49 54 -55l19 -3v-40h-29c-109 0 -150 50 -150 112c0 117 112 150 112 265c0 63 -69 98 -69 98l12 35c90 0 131 31 131 105v133c0 171 92 205 197 205h25v-40l-26 -4c-50 -7 -84 -26 -84 -90c0 -76 -2 -135 -18 -196
c-29 -111 -111 -143 -165 -149c45 -20 69 -62 69 -116z" />
    <glyph glyph-name="braceright" unicode="}" horiz-adv-x="380" 
d="M137 379c0 107 78 189 78 260c0 34 -18 49 -54 55l-19 3v40h29c109 0 150 -50 150 -112c0 -117 -112 -150 -112 -265c0 -63 69 -98 69 -98l-12 -35c-90 0 -131 -31 -131 -105v-133c0 -171 -92 -205 -197 -205h-25v40l26 4c50 7 84 26 84 90c0 76 2 135 18 196
c29 111 111 143 165 149c-45 20 -69 62 -69 116z" />
    <glyph glyph-name="braceleft.cap" horiz-adv-x="380" 
d="M196 203c0 -107 -78 -189 -78 -260c0 -34 18 -49 54 -55l19 -3v-40h-29c-109 0 -150 50 -150 112c0 117 112 150 112 265c0 63 -69 98 -69 98l12 35c90 0 131 31 131 105v133c0 171 92 205 197 205h25v-40l-26 -4c-50 -7 -84 -26 -84 -90c0 -76 -2 -135 -18 -196
c-29 -111 -111 -143 -165 -149c45 -20 69 -62 69 -116z" />
    <glyph glyph-name="braceright.cap" horiz-adv-x="380" 
d="M147 440c0 107 78 189 78 260c0 34 -18 49 -54 55l-19 3v40h29c109 0 150 -50 150 -112c0 -117 -112 -150 -112 -265c0 -63 69 -98 69 -98l-12 -35c-90 0 -131 -31 -131 -105v-133c0 -171 -92 -205 -197 -205h-25v40l26 4c50 7 84 26 84 90c0 76 2 135 18 196
c29 111 111 143 165 149c-45 20 -69 62 -69 116z" />
    <glyph glyph-name="braceleft.small" horiz-adv-x="362" 
d="M184 162c0 -79 -69 -139 -69 -194c0 -31 17 -43 50 -47l17 -3v-37h-25c-99 0 -146 40 -146 94c0 92 99 117 99 202c0 54 -63 82 -63 82l11 29c75 0 119 30 119 86v100c0 139 92 167 188 167h22v-36l-24 -3c-45 -6 -76 -22 -76 -75c0 -57 -1 -113 -15 -160
c-21 -73 -102 -101 -152 -108c41 -16 64 -51 64 -97z" />
    <glyph glyph-name="braceright.small" horiz-adv-x="372" 
d="M138 361c0 79 69 139 69 194c0 31 -17 43 -50 47l-17 3v37h25c99 0 146 -40 146 -94c0 -92 -99 -117 -99 -202c0 -54 63 -82 63 -82l-11 -29c-75 0 -119 -30 -119 -86v-100c0 -139 -92 -167 -188 -167h-22v36l24 3c45 6 76 22 76 75c0 57 1 113 15 160
c21 73 102 101 152 108c-41 16 -64 51 -64 97z" />
    <glyph glyph-name="asterisk" unicode="*" horiz-adv-x="482" 
d="M397 346l-95 -33l-37 174l-105 -150l-64 77l154 92l-165 44l50 89l128 -110v177l95 -28l-70 -154l165 46l-3 -102l-163 30z" />
    <glyph glyph-name="dagger" unicode="&#x2020;" horiz-adv-x="462" 
d="M107 -54c2 103 16 261 32 344l96 168l-191 -49l44 125l156 -45v201h139l-101 -201l191 45l-45 -125l-153 49v-168c-30 -98 -107 -278 -148 -344h-20z" />
    <glyph glyph-name="daggerdbl" unicode="&#x2021;" horiz-adv-x="462" 
d="M59 -54l101 200l-184 -45l44 125l147 -50v140l81 145l-184 -50l44 125l148 -45v199h139l-100 -200l184 46l-45 -125l-147 49v-144l-80 -140l183 50l-44 -125l-148 44v-199h-139z" />
    <glyph glyph-name="section" unicode="&#xa7;" horiz-adv-x="531" 
d="M31 32c-7 -80 22 -141 117 -141c77 0 122 33 122 86c0 58 -51 69 -117 98c-72 31 -115 64 -115 147c0 72 41 138 138 176c-35 24 -55 56 -55 110c0 97 81 182 223 182c99 0 147 -56 147 -111c0 -19 -6 -38 -15 -54h-38c11 54 -5 123 -100 123c-89 0 -128 -39 -128 -94
c0 -61 49 -72 117 -96c72 -25 124 -55 124 -142c0 -61 -45 -143 -136 -180c33 -22 54 -53 54 -107c0 -86 -72 -183 -230 -183c-108 0 -156 59 -156 126c0 26 5 41 18 60h30zM246 168c8 -3 15 -5 23 -8c50 17 89 56 89 100c0 61 -54 76 -122 106c-7 3 -14 6 -21 10
c-60 -21 -91 -65 -91 -106c0 -64 51 -78 122 -102z" />
    <glyph glyph-name="paragraph" unicode="&#xb6;" horiz-adv-x="618" 
d="M179 -113h-48l106 422c-103 0 -166 51 -166 140c0 155 134 241 275 241h300l-11 -44h-61c2 -37 2 -82 2 -100c0 -268 -191 -473 -251 -659h-44c10 68 55 221 86 307l109 452h-93z" />
    <glyph glyph-name="at" unicode="@" horiz-adv-x="861" 
d="M620 -15l20 -33c-1 -1 -92 -87 -274 -87c-240 0 -346 147 -346 317c0 226 170 488 483 488c205 0 322 -126 322 -280c0 -214 -163 -319 -277 -319c-64 0 -85 31 -85 71c0 6 0 12 1 18c-36 -50 -84 -87 -142 -87c-65 0 -111 37 -111 121c0 138 118 267 231 267
c53 0 83 -27 94 -61l73 42h33l-82 -226c-10 -31 -19 -55 -19 -69c0 -21 10 -33 35 -33c69 0 176 94 176 277c0 134 -89 238 -255 238c-257 0 -395 -219 -395 -438c0 -172 95 -281 284 -281c149 0 233 74 234 75zM509 361c0 35 -16 64 -53 64c-65 0 -70 -80 -99 -153
c-27 -69 -54 -84 -54 -124c0 -23 14 -36 42 -36c78 0 164 166 164 249z" />
    <glyph glyph-name="at.cap" horiz-adv-x="861" 
d="M635 52l20 -33c-1 -1 -92 -87 -274 -87c-240 0 -346 147 -346 317c0 226 170 488 483 488c205 0 322 -126 322 -280c0 -214 -163 -319 -277 -319c-64 0 -85 31 -85 71c0 6 0 12 1 18c-36 -50 -84 -87 -142 -87c-65 0 -111 37 -111 121c0 138 118 267 231 267
c53 0 83 -27 94 -61l73 42h33l-82 -226c-10 -31 -19 -55 -19 -69c0 -21 10 -33 35 -33c69 0 176 94 176 277c0 134 -89 238 -255 238c-257 0 -395 -219 -395 -438c0 -172 95 -281 284 -281c149 0 233 74 234 75zM524 428c0 35 -16 64 -53 64c-65 0 -70 -80 -99 -153
c-27 -69 -54 -84 -54 -124c0 -23 14 -36 42 -36c78 0 164 166 164 249z" />
    <glyph glyph-name="at.small" horiz-adv-x="775" 
d="M503 216c-10 -27 -16 -47 -16 -59c0 -19 12 -29 31 -29c57 0 149 79 149 234c0 118 -82 202 -224 202c-225 0 -352 -182 -352 -368c0 -150 92 -236 251 -236c127 0 207 65 207 66l19 -31c-1 -1 -79 -76 -239 -76c-217 0 -311 122 -311 270c0 192 153 413 434 413
c185 0 283 -108 283 -238c0 -184 -144 -270 -247 -270c-52 0 -69 26 -69 60v4c-31 -36 -71 -62 -121 -62c-59 0 -98 34 -98 105c0 120 105 223 202 223c46 0 74 -22 85 -50l54 35h29zM461 336c0 31 -17 57 -52 57c-62 0 -54 -60 -89 -130c-30 -60 -47 -67 -47 -98
c0 -20 14 -36 40 -36c78 0 148 134 148 207z" />
    <glyph glyph-name="copyright" unicode="&#xa9;" horiz-adv-x="773" 
d="M386 -12c-201 0 -338 142 -338 354c0 215 146 353 338 353c193 0 339 -138 339 -353c0 -212 -146 -354 -339 -354zM385 53c160 0 270 119 270 289c0 168 -110 288 -270 288c-161 0 -267 -118 -267 -288c0 -167 100 -289 267 -289zM490 396c-2 35 -25 69 -80 69
c-57 0 -91 -47 -91 -127c0 -86 44 -126 99 -126c56 0 87 30 92 81h29c0 -77 -47 -138 -142 -138c-85 0 -176 40 -176 179c0 125 70 197 174 197c97 0 134 -61 134 -112c0 -6 0 -15 -2 -23h-37z" />
    <glyph glyph-name="registered" unicode="&#xae;" horiz-adv-x="571" 
d="M286 213c-150 0 -252 109 -252 249s101 248 252 248c150 0 251 -108 251 -248s-101 -249 -251 -249zM285 264c129 0 194 89 194 197s-72 197 -194 197c-128 0 -194 -89 -194 -197s66 -197 194 -197zM374 330c-38 0 -51 17 -51 67c0 34 -15 46 -46 46h-29v-110h-58v262
h102c63 0 100 -21 100 -69c0 -39 -24 -57 -60 -65c34 -4 50 -18 50 -56c0 -34 0 -49 13 -49c5 0 9 3 10 4l6 -11c-8 -12 -22 -19 -37 -19zM280 557h-32v-80h33c33 0 55 10 55 39s-21 41 -56 41z" />
    <glyph glyph-name="uni2117" unicode="&#x2117;" horiz-adv-x="773" 
d="M386 -12c-201 0 -338 142 -338 354c0 215 146 353 338 353c193 0 339 -138 339 -353c0 -212 -146 -354 -339 -354zM385 53c160 0 270 119 270 289c0 168 -110 288 -270 288c-161 0 -267 -118 -267 -288c0 -167 100 -289 267 -289zM266 530h150c89 0 143 -40 143 -116
c0 -83 -57 -123 -142 -123h-68v-134h-83v373zM389 473h-40v-126h44c49 0 85 13 85 64c0 46 -33 62 -89 62z" />
    <glyph glyph-name="trademark" unicode="&#x2122;" horiz-adv-x="896" 
d="M480 320h-66l14 370h92l112 -253l117 253h73l14 -370h-66l-11 260l-118 -253h-38l-112 252zM255 320h-84v311h-121v57h318v-57h-113v-311z" />
    <glyph glyph-name="ordfeminine" unicode="&#xaa;" horiz-adv-x="347" 
d="M296 400c-43 0 -67 15 -71 52c-14 -29 -44 -52 -91 -52c-53 0 -80 23 -80 66c0 66 71 89 149 97c23 3 39 4 56 10c20 7 31 27 31 48c0 25 -14 44 -48 44c-45 0 -67 -24 -72 -60h-33c-3 55 41 91 118 91c74 0 111 -36 111 -84c0 -68 -78 -119 -78 -159c0 -15 6 -24 19 -24
c15 0 22 10 25 29h24c2 -35 -18 -58 -60 -58zM163 436c40 0 47 36 61 67c7 15 12 28 28 42c-18 -5 -30 -5 -50 -8c-32 -5 -50 -20 -59 -51c-10 -32 -2 -50 20 -50z" />
    <glyph glyph-name="ordmasculine" unicode="&#xba;" horiz-adv-x="348" 
d="M67 513c0 109 82 184 189 184c69 0 118 -38 118 -114c0 -99 -79 -184 -190 -184c-70 0 -117 40 -117 114zM274 546c20 50 37 59 37 83c0 23 -19 41 -52 41c-60 0 -67 -51 -92 -119c-21 -50 -36 -55 -36 -82c0 -22 17 -41 51 -41c58 0 66 50 92 118z" />
    <glyph glyph-name="numero" unicode="&#x2116;" horiz-adv-x="1103" 
d="M434 -1h-24c-12 87 -144 326 -175 529l-164 -528h-20c-11 30 -21 83 -21 127c0 175 142 335 220 563h25c41 -151 141 -349 184 -541l167 541h19c17 -40 26 -84 26 -133c0 -137 -123 -302 -237 -558zM919 391c-77 0 -129 48 -129 115c0 100 78 184 185 184
c78 0 130 -47 130 -114c0 -94 -74 -185 -186 -185zM1010 531c12 30 18 47 18 64c0 27 -14 55 -56 55c-53 0 -65 -43 -87 -100c-11 -29 -16 -46 -16 -64c0 -27 12 -54 55 -54c48 0 63 41 86 99zM731 280h299v-55h-299v55z" />
    <glyph glyph-name="numbersign" unicode="#" 
d="M124 0h-60l57 197h-100v55h117l53 182h-125v55h141l51 176h61l-52 -176h180l52 176h60l-52 -176h97v-55h-113l-53 -182h121v-55h-137l-58 -197h-60l58 197h-180zM198 252h180l53 182h-180z" />
    <glyph glyph-name="Euro" unicode="&#x20ac;" 
d="M92 215c0 13 1 25 2 38h-85l16 50h76c6 28 15 57 26 85h-82l16 50h88c68 133 191 241 338 241c108 0 150 -58 150 -115c0 -19 -4 -37 -12 -53h-45c7 56 0 118 -94 118c-58 0 -101 -17 -124 -54c-23 -40 -34 -82 -52 -137h192l-16 -50h-192c-4 -11 -8 -22 -13 -34
c-8 -20 -16 -36 -23 -51h198l-16 -50h-211c-25 -39 -43 -57 -43 -98c0 -85 50 -109 128 -109c108 0 151 43 170 139h49c-10 -140 -95 -194 -219 -194c-150 0 -222 85 -222 224z" />
    <glyph glyph-name="dollar" unicode="$" 
d="M61 225h41c-11 -91 -1 -172 105 -182l63 249c-4 2 -7 3 -11 5c-77 33 -132 66 -132 170c0 101 86 203 243 211l18 73h54l-18 -74c90 -9 138 -60 138 -128c0 -26 -7 -49 -18 -69h-45c11 57 18 136 -88 147l-59 -235c79 -27 152 -59 152 -172c0 -103 -83 -222 -256 -230
l-20 -77h-54l20 79c-119 11 -156 84 -156 151c0 29 7 57 23 82zM227 506c0 -59 30 -80 75 -97l55 218c-101 -10 -130 -70 -130 -121zM391 172c0 55 -29 79 -73 100l-57 -229c96 10 130 69 130 129z" />
    <glyph glyph-name="cent" unicode="&#xa2;" 
d="M267 0h-54l27 104c-81 18 -125 86 -125 176c0 150 116 296 255 313l25 97h54l-25 -98c65 -9 97 -49 97 -95c0 -49 -33 -69 -66 -69c-8 0 -16 1 -24 4v18c18 11 34 21 34 50c0 32 -22 55 -68 55c-86 0 -82 -88 -130 -200c-40 -94 -64 -95 -64 -144c0 -41 39 -64 86 -64
c77 0 126 36 128 119h39c8 -103 -63 -164 -164 -167z" />
    <glyph glyph-name="sterling" unicode="&#xa3;" 
d="M442 321h-167v-5c0 -93 -55 -160 -101 -211h20c68 0 121 -13 166 -13c59 0 84 22 102 66h30c-6 -52 -37 -166 -159 -166c-89 0 -139 41 -195 60c-30 -24 -75 -48 -132 -53v44c84 21 139 67 139 171c0 41 -1 76 -2 107h-88l14 50h74c2 56 10 105 40 166
c40 82 115 142 223 142c102 0 170 -48 170 -128c0 -19 -4 -39 -11 -61h-52c13 63 3 136 -110 136c-79 0 -126 -47 -135 -106c-7 -57 0 -99 4 -149h186z" />
    <glyph glyph-name="florin" unicode="&#x192;" 
d="M162 87c0 181 85 232 129 322h-91l11 50h98c2 11 4 22 5 34c8 84 49 186 174 186c70 0 100 -42 101 -84c0 -16 -3 -31 -10 -44h-39c8 47 -5 84 -59 84c-82 0 -89 -71 -93 -134c-1 -14 -2 -28 -5 -42h121l-10 -50h-122c-15 -55 -37 -105 -50 -145l-65 -200
c-30 -91 -62 -184 -177 -184c-94 0 -107 64 -81 118h38c-4 -28 -15 -74 47 -74c78 0 78 81 78 163z" />
    <glyph glyph-name="yen" unicode="&#xa5;" 
d="M209 0h-31c-18 29 -33 72 -33 100c0 25 7 51 19 77h-127l15 50h140c12 18 26 34 40 50h-164l15 50h140l-29 63c-55 118 -61 221 14 281h28c-15 -60 21 -147 52 -229l31 -81l253 310h23c12 -14 19 -30 19 -49c0 -89 -119 -144 -275 -295h147l-16 -50h-169
c-9 -16 -16 -32 -23 -50h167l-15 -50h-169v-1z" />
    <glyph glyph-name="zeroslash" horiz-adv-x="611" 
d="M226 -10c-125 0 -196 79 -196 229c0 196 154 461 356 461c126 0 195 -74 195 -225c0 -201 -152 -465 -355 -465zM117 125c0 -9 1 -17 3 -24l359 492c-19 28 -55 42 -98 42c-113 0 -116 -101 -179 -256c-49 -121 -85 -183 -85 -254zM229 35c111 0 118 103 180 257
c50 122 84 183 84 252l-350 -480c20 -19 50 -29 86 -29z" />
    <glyph glyph-name="zero" unicode="0" horiz-adv-x="611" 
d="M226 -10c-125 0 -196 79 -196 229c0 196 154 461 356 461c126 0 195 -74 195 -225c0 -201 -152 -465 -355 -465zM229 35c111 0 118 103 180 257c50 122 84 183 84 253c0 59 -49 90 -112 90c-113 0 -116 -101 -179 -256c-49 -121 -85 -183 -85 -254c0 -56 46 -90 112 -90z
" />
    <glyph glyph-name="one" unicode="1" horiz-adv-x="401" 
d="M188 0h-34c-19 40 -32 90 -32 151c0 160 143 317 203 465c-59 -32 -156 -102 -246 -117l-14 38l284 142h32c-8 -70 -31 -203 -80 -346z" />
    <glyph glyph-name="two" unicode="2" horiz-adv-x="598" 
d="M39 56l-8 -56h-31v64c0 229 434 239 434 450c0 59 -28 109 -113 109c-89 0 -157 -51 -150 -186h-51c-30 124 43 243 230 243c127 0 208 -73 208 -178c0 -234 -395 -215 -497 -384l270 -20c83 -6 114 19 126 51h24c0 -70 -40 -156 -156 -156c-90 0 -193 42 -286 63z" />
    <glyph glyph-name="three" unicode="3" horiz-adv-x="582" 
d="M476 204c0 -130 -126 -214 -284 -214c-132 0 -187 64 -187 148c0 32 9 61 25 86h44c-31 -113 10 -181 116 -181c104 0 119 39 142 128c11 41 21 61 21 90c0 42 -25 68 -117 68h-73v50h63c147 0 163 29 179 93c11 44 18 61 18 85c0 43 -33 69 -100 69
c-111 0 -146 -72 -146 -148h-50c-2 12 -4 26 -4 43c0 88 93 159 215 159c131 0 204 -64 204 -159c0 -96 -81 -157 -204 -172c89 -16 138 -74 138 -145z" />
    <glyph glyph-name="four" unicode="4" horiz-adv-x="638" 
d="M0 158v72l533 449h55c0 -42 -24 -129 -47 -202l-78 -237h109l-21 -82h-114l-52 -158h-38c-16 44 -21 92 -21 158h-326zM100 240h241c35 102 124 229 187 364z" />
    <glyph glyph-name="five" unicode="5" horiz-adv-x="600" 
d="M198 665h255c70 0 87 5 110 27h27l-45 -114h-322l-60 -182c35 29 88 48 155 48c120 0 191 -64 191 -174c0 -155 -131 -280 -302 -280c-113 0 -177 56 -177 147c0 37 10 60 25 87h44c-29 -108 10 -181 114 -181c95 0 120 71 151 150c21 54 39 77 39 120
c0 44 -30 82 -102 82c-88 0 -140 -44 -175 -79l-42 16z" />
    <glyph glyph-name="six" unicode="6" horiz-adv-x="576" 
d="M228 -10c-147 0 -198 100 -198 229c0 201 145 461 358 461c121 0 168 -73 168 -141c0 -26 -2 -54 -18 -80h-45c28 108 -18 170 -105 170c-90 0 -160 -62 -217 -282c32 40 84 67 156 67c112 0 174 -69 174 -167c0 -111 -101 -257 -273 -257zM125 109c1 -40 32 -74 105 -74
c84 0 113 65 139 151c14 49 29 80 29 107c0 41 -21 75 -90 75c-84 0 -130 -58 -155 -145c-19 -61 -29 -75 -28 -114z" />
    <glyph glyph-name="seven" unicode="7" horiz-adv-x="530" 
d="M585 665l-17 -68c-198 -224 -308 -349 -432 -597h-29c-10 40 -17 63 -17 102c0 188 226 290 405 476h-183c-128 0 -145 -3 -185 -57h-32l58 144h432z" />
    <glyph glyph-name="eight" unicode="8" horiz-adv-x="577" 
d="M487 212c0 -108 -73 -222 -272 -222c-141 0 -203 68 -203 152c0 77 53 152 168 191c-42 29 -73 69 -73 139c0 110 82 208 246 208c122 0 187 -66 187 -146c0 -84 -81 -145 -162 -167c59 -30 109 -70 109 -155zM193 519c0 -77 71 -103 143 -134c99 45 110 98 110 143
c0 58 -39 103 -115 103c-88 0 -138 -58 -138 -112zM109 163c0 -66 41 -123 133 -123c90 0 140 53 140 118c0 79 -69 106 -137 139c-11 5 -22 10 -33 16c-72 -26 -103 -109 -103 -150z" />
    <glyph glyph-name="nine" unicode="9" horiz-adv-x="571" 
d="M343 680c147 0 198 -100 198 -229c0 -201 -145 -461 -358 -461c-121 0 -168 73 -168 141c0 26 2 54 18 80h45c-28 -108 18 -170 105 -170c90 0 160 62 217 282c-32 -40 -84 -67 -156 -67c-112 0 -174 69 -174 167c0 111 101 257 273 257zM446 561c-1 40 -32 74 -105 74
c-84 0 -113 -65 -139 -151c-14 -49 -29 -80 -29 -107c0 -41 21 -75 90 -75c84 0 130 58 155 145c19 61 29 75 28 114z" />
    <glyph glyph-name="zeroslash.tab" 
d="M226 -10c-125 0 -196 79 -196 229c0 196 154 461 356 461c126 0 195 -74 195 -225c0 -201 -152 -465 -355 -465zM117 125c0 -9 1 -17 3 -24l359 492c-19 28 -55 42 -98 42c-113 0 -116 -101 -179 -256c-49 -121 -85 -183 -85 -254zM229 35c111 0 118 103 180 257
c50 122 84 183 84 252l-350 -480c20 -19 50 -29 86 -29z" />
    <glyph glyph-name="zero.tab" 
d="M226 -10c-125 0 -196 79 -196 229c0 196 154 461 356 461c126 0 195 -74 195 -225c0 -201 -152 -465 -355 -465zM229 35c111 0 118 103 180 257c50 122 84 183 84 253c0 59 -49 90 -112 90c-113 0 -116 -101 -179 -256c-49 -121 -85 -183 -85 -254c0 -56 46 -90 112 -90z
" />
    <glyph glyph-name="one.tab" 
d="M59 0v55h182c-8 28 -14 60 -14 96c0 160 143 314 203 462c-59 -32 -168 -103 -285 -125l-14 41l323 150h32c-8 -70 -18 -163 -80 -346l-94 -278h167v-55h-420z" />
    <glyph glyph-name="two.tab" 
d="M54 56l-8 -56h-31v64c0 229 434 239 434 450c0 59 -28 109 -113 109c-89 0 -157 -51 -150 -186h-51c-30 124 43 243 230 243c127 0 208 -73 208 -178c0 -234 -395 -215 -497 -384l270 -20c83 -6 114 19 126 51h24c0 -70 -40 -156 -156 -156c-90 0 -193 42 -286 63z" />
    <glyph glyph-name="three.tab" 
d="M494 204c0 -130 -126 -214 -284 -214c-132 0 -187 64 -187 148c0 32 9 61 25 86h44c-31 -113 10 -181 116 -181c104 0 119 39 142 128c11 41 21 61 21 90c0 42 -25 68 -117 68h-73v50h63c147 0 163 29 179 93c11 44 18 61 18 85c0 43 -33 69 -100 69
c-111 0 -146 -72 -146 -148h-50c-2 12 -4 26 -4 43c0 88 93 159 215 159c131 0 204 -64 204 -159c0 -96 -81 -157 -204 -172c89 -16 138 -74 138 -145z" />
    <glyph glyph-name="four.tab" 
d="M-5 158v72l533 449h55c0 -42 -24 -129 -47 -202l-78 -237h109l-21 -82h-114l-52 -158h-38c-16 44 -21 92 -21 158h-326zM95 240h241c35 102 124 229 187 364z" />
    <glyph glyph-name="five.tab" 
d="M208 665h255c70 0 87 5 110 27h27l-45 -114h-322l-60 -182c35 29 88 48 155 48c120 0 191 -64 191 -174c0 -155 -131 -280 -302 -280c-113 0 -177 56 -177 147c0 37 10 60 25 87h44c-29 -108 10 -181 114 -181c95 0 120 71 151 150c21 54 39 77 39 120
c0 44 -30 82 -102 82c-88 0 -140 -44 -175 -79l-42 16z" />
    <glyph glyph-name="six.tab" 
d="M233 -10c-147 0 -198 100 -198 229c0 201 145 461 358 461c121 0 168 -73 168 -141c0 -26 -2 -54 -18 -80h-45c28 108 -18 170 -105 170c-90 0 -160 -62 -217 -282c32 40 84 67 156 67c112 0 174 -69 174 -167c0 -111 -101 -257 -273 -257zM130 109c1 -40 32 -74 105 -74
c84 0 113 65 139 151c14 49 29 80 29 107c0 41 -21 75 -90 75c-84 0 -130 -58 -155 -145c-19 -61 -29 -75 -28 -114z" />
    <glyph glyph-name="seven.tab" 
d="M638 665l-17 -68c-198 -224 -338 -349 -462 -597h-29c-10 40 -17 63 -17 102c0 188 258 294 438 481h-216c-128 0 -145 -3 -185 -57h-32l58 139h462z" />
    <glyph glyph-name="eight.tab" 
d="M512 212c0 -108 -73 -222 -272 -222c-141 0 -203 68 -203 152c0 77 53 152 168 191c-42 29 -73 69 -73 139c0 110 82 208 246 208c122 0 187 -66 187 -146c0 -84 -81 -145 -162 -167c59 -30 109 -70 109 -155zM218 519c0 -77 71 -103 143 -134c99 45 110 98 110 143
c0 58 -39 103 -115 103c-88 0 -138 -58 -138 -112zM134 163c0 -66 41 -123 133 -123c90 0 140 53 140 118c0 79 -69 106 -137 139c-11 5 -22 10 -33 16c-72 -26 -103 -109 -103 -150z" />
    </font>
</defs>
</svg>
